<svg width="75" height="26" viewBox="0 0 75 26" fill="none" xmlns="http://www.w3.org/2000/svg">
<g clip-path="url(#clip0_1_246)">
<path d="M28.6802 7.83804C28.1341 7.27349 27.548 6.92998 27.1439 6.92998H26.7798V6.61639H27.0832C27.2243 6.61639 28.882 6.68313 29.0439 6.68313C29.3065 6.68313 30.0736 6.61639 30.2352 6.61639H30.5583L38.2482 14.9769V8.38218C38.2482 7.33389 37.7845 6.92998 36.6135 6.92998H36.2705V6.61639H36.6337C36.6743 6.61639 38.4102 6.68313 38.5511 6.68313C38.7522 6.68313 39.904 6.61639 40.1257 6.61639H40.3483L40.3681 6.92998C39.2973 7.01112 39.0142 7.29338 39.0142 8.2208V18.6466H38.6515L29.4679 8.66665V16.177C29.4679 17.7516 29.8316 18.1757 31.1638 18.1757H31.5068V18.5121H31.1228C30.8405 18.5121 29.4478 18.445 29.1246 18.445C28.943 18.445 27.6492 18.5121 27.3664 18.5121H27.0422V18.1757C28.397 18.0538 28.6803 17.832 28.6803 16.8634V7.83804H28.6802Z" fill="black"/>
<path d="M42.601 7.95853C42.601 7.17208 42.2973 6.92992 41.3472 6.92992H41.0448V6.61633H41.8321C42.3781 6.61633 45.328 6.68307 45.349 6.68307C45.7723 6.68307 48.5756 6.61633 49.1787 6.61633H49.9866L50.0269 9.20799H49.7137C49.6516 7.85645 49.0385 7.31146 47.6278 7.31146H44.8043V11.8929H47.2444C48.1927 11.8929 48.7173 11.4482 48.8578 10.499L49.2184 10.5194V14.1364H48.8782C48.7173 13.0063 48.1323 12.5622 46.7204 12.5622H44.7834V16.741C44.7834 17.4282 45.1271 17.7715 45.8131 17.7715H47.8296C49.1386 17.7715 50.0882 17.1857 50.6539 15.9739H51.0179L50.1688 18.5121C49.5823 18.5121 46.801 18.445 45.8738 18.445C45.2478 18.445 42.2365 18.4919 41.5496 18.5121H41.0234V18.1757H41.3471C42.2972 18.1553 42.601 17.9126 42.601 17.1257V7.95853H42.601Z" fill="black"/>
<path d="M62.0075 18.6694H61.4416L59.1367 12.3963L56.7711 18.6694H56.2256L52.2833 8.14071C51.98 7.33384 51.6971 7.01112 51.1709 6.91078V6.61639H51.5149C51.737 6.61639 52.8496 6.68313 53.1128 6.68313C53.3347 6.68313 54.4867 6.61639 54.7291 6.61639H55.0932V6.92998C54.5075 6.95109 54.2641 7.11179 54.2641 7.4345C54.2641 7.61662 54.3251 7.87851 54.4259 8.16076L57.1958 15.6236L58.7727 11.3675L57.7422 8.50358C57.2972 7.27349 56.913 6.95109 55.9418 6.92998V6.61639H56.2658C56.5489 6.61639 58.0043 6.68313 58.3489 6.68313C58.6312 6.68313 60.0869 6.61639 60.4098 6.61639H60.8953V6.92998H60.4098C59.7434 6.92998 59.4197 7.09169 59.4197 7.4345C59.4197 7.61662 59.5013 7.93886 59.622 8.26126L62.3108 15.6841L64.4333 9.39122C64.6962 8.58403 64.8171 8.05978 64.8171 7.73717C64.8171 7.17246 64.5348 6.92998 63.9084 6.92998H63.5437V6.61639H63.6453C63.928 6.61639 64.6349 6.68313 65.0602 6.68313C65.2614 6.68313 66.0487 6.61639 66.4322 6.61639H66.5741V6.92998C66.0682 7.07164 65.8064 7.4345 65.4034 8.66512L62.0075 18.6694Z" fill="black"/>
<path d="M66.668 15.7505C66.9906 16.5352 67.273 16.8981 67.8161 17.3004C68.501 17.8241 69.4075 18.0855 70.4152 18.0855C72.148 18.0855 73.3163 17.1797 73.3163 15.8711C73.3163 14.9045 72.7518 14.3808 70.665 13.3953C68.6421 12.4285 68.1385 11.9457 67.7156 11.5429C67.0916 10.8784 66.8305 10.2744 66.8305 9.46963C66.8305 7.61721 68.3399 6.39124 70.6248 6.39124C71.3125 6.39124 72.0611 6.49174 72.87 6.69216C73.1937 6.77209 73.5174 6.81235 73.6994 6.81235C73.8611 6.81235 73.9423 6.77204 74.0025 6.63819H74.3502L74.3904 9.17503H74.1042C73.9224 8.5707 73.8013 8.30918 73.5379 7.97934C72.9709 7.31496 72.0809 6.953 70.9386 6.953C69.4882 6.953 68.5402 7.63758 68.5402 8.66445C68.5402 9.54982 69.085 10.053 71.0198 10.9386C73.4985 12.086 75.0003 13.1134 75.0003 15.0054C75.0003 17.1797 73.2154 18.6466 70.5762 18.6466C69.911 18.6466 69.2464 18.5667 68.4405 18.3865C68.159 18.3261 67.8565 18.2858 67.7156 18.2858C67.4736 18.2858 67.3943 18.3261 67.2333 18.5122H66.8906L66.8504 18.2301C66.6885 17.3035 66.5067 16.4382 66.3643 15.851L66.668 15.7505Z" fill="black"/>
<path d="M6.97589 13.0096C6.97589 13.8913 6.25898 14.6059 5.37464 14.6059C4.4903 14.6059 3.77345 13.8912 3.77345 13.0096C3.77345 12.128 4.49035 11.4134 5.37464 11.4134C6.25898 11.4134 6.97589 12.1281 6.97589 13.0096ZM13.04 11.4134C12.1557 11.4134 11.4388 12.1281 11.4388 13.0096C11.4388 13.8913 12.1557 14.6059 13.04 14.6059C13.9244 14.6059 14.6412 13.8912 14.6412 13.0096C14.6412 12.1281 13.9244 11.4134 13.04 11.4134ZM26.08 13.0096C26.08 20.1893 20.2418 26.0096 13.04 26.0096C5.83822 26.0096 0 20.1893 0 13.0096C0 5.82994 5.83822 0.00964355 13.04 0.00964355C20.2418 0.00964355 26.08 5.82994 26.08 13.0096ZM8.97737 13.0096C8.97737 11.026 7.36437 9.41803 5.37469 9.41803C3.38496 9.41803 1.77202 11.0261 1.77202 13.0096C1.77202 14.9933 3.38496 16.6013 5.37469 16.6013C6.4206 16.6013 6.97594 15.9245 6.97594 15.9245V16.5431H8.97742V13.0096H8.97737ZM16.6427 13.0096C16.6427 11.026 15.0298 9.41803 13.0401 9.41803C12.0694 9.41803 11.4388 9.94307 11.4388 9.94307L11.4389 7.66384H9.4374V13.0096C9.4374 14.9933 11.0504 16.6013 13.0401 16.6013C15.0298 16.6013 16.6427 14.9933 16.6427 13.0096ZM24.278 13.4668H22.2391C22.0418 14.1255 21.4302 14.6059 20.7054 14.6059C19.8211 14.6059 19.1042 13.8912 19.1042 13.0096C19.1042 12.128 19.8211 11.4134 20.7054 11.4134C21.4302 11.4134 22.0418 11.8938 22.2391 12.5524H24.278C24.0526 10.7849 22.5397 9.41803 20.7054 9.41803C18.7157 9.41803 17.1027 11.0261 17.1027 13.0096C17.1027 14.9933 18.7157 16.6013 20.7054 16.6013C22.5396 16.6013 24.0526 15.2344 24.278 13.4668Z" fill="black"/>
</g>
<defs>
<clipPath id="clip0_1_246">
<rect width="75" height="26" fill="white" transform="translate(0 0.00964355)"/>
</clipPath>
</defs>
</svg>
