<svg width="50" height="50" viewBox="0 0 50 50" fill="none" xmlns="http://www.w3.org/2000/svg">
<rect x="1.5" y="1.5" width="47" height="47" rx="23.5" fill="url(#paint0_linear_0_221)"/>
<rect x="1.5" y="1.5" width="47" height="47" rx="23.5" stroke="white" stroke-width="3"/>
<path d="M25.0158 16C25.3568 16 25.6838 16.1185 25.9249 16.3295C26.1661 16.5405 26.3015 16.8266 26.3015 17.125V30.1594L31.8211 25.3298C32.0636 25.1248 32.3883 25.0114 32.7255 25.014C33.0626 25.0166 33.385 25.1349 33.6234 25.3435C33.8618 25.552 33.997 25.8342 34 26.1292C34.0029 26.4242 33.8733 26.7083 33.6391 26.9205L25.9248 33.6706C25.6837 33.8815 25.3567 34 25.0158 34C24.6749 34 24.3479 33.8815 24.1068 33.6706L16.3925 26.9205C16.2697 26.8167 16.1718 26.6926 16.1044 26.5553C16.037 26.4181 16.0015 26.2705 16 26.1211C15.9986 25.9717 16.0311 25.8236 16.0957 25.6853C16.1604 25.547 16.2559 25.4214 16.3766 25.3158C16.4973 25.2102 16.6408 25.1266 16.7989 25.0701C16.9569 25.0135 17.1262 24.985 17.2969 24.9863C17.4676 24.9876 17.6363 25.0187 17.7932 25.0776C17.95 25.1366 18.0919 25.2223 18.2105 25.3298L23.7301 30.1594V17.125C23.7301 16.8266 23.8655 16.5405 24.1067 16.3295C24.3478 16.1185 24.6748 16 25.0158 16Z" fill="white"/>
<defs>
<linearGradient id="paint0_linear_0_221" x1="0" y1="25" x2="50" y2="25" gradientUnits="userSpaceOnUse">
<stop stop-color="#F9822E"/>
<stop offset="1" stop-color="#FB9A3C"/>
</linearGradient>
</defs>
</svg>
