<svg width="109" height="20" viewBox="0 0 109 20" fill="none" xmlns="http://www.w3.org/2000/svg">
<g clip-path="url(#clip0_1_55)">
<path d="M0.5 0.00964355H8.41776C9.92591 0.00964355 11.057 0.387795 11.8949 1.01805C12.8165 1.77435 13.3192 2.86679 13.3192 4.21132C13.3192 5.76595 12.6908 6.73233 11.4341 7.32057V7.4046C13.1098 7.95082 14.0733 9.46343 14.0733 11.2701C14.0733 12.9928 13.403 14.3374 12.3138 15.1777C11.3922 15.85 10.2192 16.1441 8.62723 16.1441H0.5V0.00964355ZM7.6218 6.31216C8.45966 6.31216 9.08805 5.84998 9.08805 4.88359C9.08805 3.95922 8.45966 3.49704 7.5799 3.49704H4.85687V6.27015H7.6218V6.31216ZM7.99883 12.5727C8.96237 12.5727 9.67455 11.9844 9.67455 10.934C9.67455 9.79956 8.92048 9.29536 7.99883 9.29536H4.89876V12.6147H7.99883V12.5727Z" fill="black"/>
<path d="M14.7856 0.00964355H18.933V16.1861H14.7856V0.00964355Z" fill="black"/>
<path d="M19.771 10.4298C19.771 6.77438 22.117 4.3374 25.7617 4.3374C29.4064 4.3374 31.7105 6.81639 31.7105 10.4298C31.7105 14.0853 29.4064 16.5223 25.7617 16.5223C22.117 16.5223 19.771 14.0853 19.771 10.4298ZM27.5631 10.4298C27.5631 8.41303 26.9347 7.15253 25.6779 7.15253C24.4211 7.15253 23.8346 8.41303 23.8346 10.4298C23.8346 12.4466 24.4211 13.7492 25.6779 13.7492C26.9347 13.7072 27.5631 12.4466 27.5631 10.4298Z" fill="black"/>
<path d="M32.1709 10.4298C32.1709 6.77438 34.5169 4.3374 38.1616 4.3374C41.8063 4.3374 44.0685 6.77438 44.0685 10.4298C44.0685 14.0853 41.7644 16.5223 38.1197 16.5223C34.5169 16.5223 32.1709 14.0853 32.1709 10.4298ZM39.963 10.4298C39.963 8.41303 39.3346 7.15253 38.0778 7.15253C36.821 7.15253 36.2345 8.41303 36.2345 10.4298C36.2345 12.4466 36.821 13.7492 38.0778 13.7492C39.3346 13.7072 39.963 12.4466 39.963 10.4298Z" fill="black"/>
<path d="M44.9067 4.63148H48.7609V6.35417H48.8447C49.5987 5.00963 50.6461 4.29535 52.3218 4.29535C53.788 4.29535 54.8773 5.00964 55.4219 6.27014H55.5057C56.4273 4.75753 57.6422 4.29535 59.0666 4.29535C61.7477 4.29535 62.8788 6.27014 62.8788 8.9172V16.1441H58.8571V9.63148C58.8571 8.45501 58.4801 7.69871 57.4746 7.69871C56.4692 7.69871 55.9665 8.62308 55.9665 9.88358V16.1441H51.9448V9.63148C51.9448 8.45501 51.5677 7.69871 50.5623 7.69871C49.5569 7.69871 49.0541 8.62308 49.0541 9.88358V16.1441H44.9067V4.63148Z" fill="black"/>
<path d="M67.9478 14.6315H67.9059V16.1441H64.0518V0.00964355H68.0735V5.80796H68.1573C68.9113 4.79956 69.9587 4.25334 71.4249 4.25334C74.3155 4.25334 75.9912 6.85838 75.9912 10.3458C75.9912 14.2533 74.1898 16.5223 71.1736 16.5223C69.9168 16.5223 68.6181 15.934 67.9478 14.6315ZM71.8438 10.3038C71.8438 8.45502 71.1735 7.23654 69.9587 7.23654C68.7019 7.23654 67.9478 8.45502 67.9478 10.3038C67.9478 12.1525 68.7438 13.371 69.9587 13.371C71.1735 13.371 71.8438 12.1945 71.8438 10.3038Z" fill="black"/>
<path d="M76.4517 10.3878C76.4517 6.77434 78.8396 4.29535 82.2748 4.29535C83.9924 4.29535 85.2911 4.84157 86.2965 5.80795C87.6371 7.11048 88.2236 9.12728 88.1817 11.4802H80.4734C80.641 12.9088 81.3112 13.6651 82.5261 13.6651C83.2383 13.6651 83.8667 13.329 84.1181 12.5727H88.0141C87.3438 15.2197 85.2911 16.5222 82.4005 16.5222C78.8396 16.4802 76.4517 14.0432 76.4517 10.3878ZM80.4734 9.1693H84.16C84.0762 7.78274 83.3221 7.06846 82.3586 7.06846C81.2275 7.02644 80.5991 7.82476 80.4734 9.1693Z" fill="black"/>
<path d="M92.7482 6.60629H92.832C93.6698 5.00965 94.759 4.37939 96.1415 4.37939C96.4767 4.37939 96.6861 4.42141 96.8118 4.50544V8.03486H96.728C94.3401 7.61469 92.9577 8.74914 92.9577 11.3542V16.1861H88.894V4.6315H92.7482V6.60629Z" fill="black"/>
<path d="M97.2309 16.1861H101.127C101.295 16.6903 101.797 17.1525 102.761 17.1525C104.06 17.1525 104.52 16.3542 104.52 15.1357V14.2954H104.437C103.808 15.0517 102.928 15.5979 101.672 15.5979C99.1999 15.5979 97.0215 13.7492 97.0215 10.1357C97.0215 6.81638 98.781 4.25336 101.462 4.25336C103.012 4.25336 103.934 4.88361 104.562 5.85H104.646V4.58949H108.5V14.5895C108.5 16.4382 107.872 17.8668 106.908 18.7071C105.903 19.5895 104.478 19.9676 102.845 19.9676C99.7445 20.0097 97.608 18.7492 97.2309 16.1861ZM104.688 9.96764C104.688 8.53907 104.018 7.3626 102.845 7.3626C101.713 7.3626 101.001 8.371 101.001 9.96764C101.001 11.5223 101.713 12.6147 102.845 12.6147C103.976 12.6147 104.688 11.4802 104.688 9.96764Z" fill="black"/>
</g>
<defs>
<clipPath id="clip0_1_55">
<rect width="108" height="20" fill="white" transform="translate(0.5 0.00964355)"/>
</clipPath>
</defs>
</svg>
