<svg width="48" height="33" viewBox="0 0 48 33" fill="none" xmlns="http://www.w3.org/2000/svg">
<path d="M39.7459 15.7154C38.2502 14.1003 36.1876 13.2928 33.5581 13.2928C32.8826 13.2928 32.3399 13.3771 31.9177 13.5579L38.4312 0.0227051L30.6029 0.0588633L24.8011 12.7383C23.7155 14.9922 22.9797 16.7398 22.5575 17.9572C22.1474 19.1865 21.9424 20.4882 21.9424 21.8864C21.9424 24.9357 22.8229 27.3824 24.5719 29.2265C26.333 31.0826 28.7695 31.9986 31.8815 31.9986C34.9935 31.9986 37.418 31.1308 39.2393 29.4073C41.0607 27.6837 41.9774 25.2732 41.9774 22.1756C41.9774 19.4758 41.2296 17.3184 39.7339 15.6913L39.7459 15.7154ZM32.0262 27.3462C29.457 27.3462 27.3703 25.2611 27.3703 22.6939C27.3703 20.4039 29.0349 18.4995 31.2301 18.1259C31.4834 18.0777 31.7609 18.0415 32.0624 18.0415C32.364 18.0415 32.6052 18.0777 32.8585 18.138C35.0297 18.5357 36.6822 20.4159 36.6822 22.7059C36.6822 25.2732 34.5955 27.3583 32.0262 27.3583V27.3462Z" fill="#595959"/>
<path d="M13.3419 31.854L4.88639 25.6348C2.72728 24.0438 0.604365 25.6709 0.158069 27.3342C-0.505343 29.805 0.99035 31.854 3.31832 31.854H13.3419Z" fill="white"/>
<path d="M14.6686 19.97C14.9822 17.5474 13.0161 15.7636 10.9053 16.2939C8.86679 16.8001 8.11895 19.2468 8.78236 20.9101L13.1247 31.854L14.6686 19.9579V19.97Z" fill="white"/>
<path d="M19.5897 21.3078C20.6029 19.1383 19.2881 16.7398 17.129 16.4626C15.0544 16.1975 13.619 18.2344 13.7517 20.0423L14.5719 31.9504L19.5897 21.2958V21.3078Z" fill="white"/>
<path d="M13.3416 31.854L9.18023 21.3681C8.2032 18.9455 5.62193 18.6442 4.19861 20.0664C3.19746 21.0788 2.41343 23.8028 4.65697 25.466L13.3416 31.866V31.854Z" fill="white"/>
<path d="M24.5109 31.854C26.8509 31.854 28.3345 29.793 27.6711 27.3342C27.2248 25.6589 25.0898 24.0438 22.9428 25.6348L14.4873 31.854H24.5109Z" fill="white"/>
<path d="M23.172 25.466C25.4155 23.8028 24.6435 21.0788 23.6303 20.0664C22.207 18.6442 19.6257 18.9455 18.6487 21.3681L14.4873 31.854L23.172 25.454V25.466Z" fill="white"/>
<path d="M15.3442 24.0317H11.0742V31.854H15.3442V24.0317Z" fill="white"/>
<path d="M19.1199 20.8378L15.4892 28.3828L14.7655 21.6815C14.669 20.7776 16.237 20.2713 16.237 20.2713C16.1044 19.958 15.6219 19.9459 15.6219 19.9459L14.5845 19.9098C14.476 18.2585 16.0079 17.1256 17.6001 17.5474C19.1681 17.9572 19.6868 19.6928 19.1319 20.8378H19.1199Z" fill="#999999"/>
<path d="M11.8341 30.9139L5.28445 26.5508C3.61989 25.442 1.96739 26.5749 1.61759 27.744C1.09893 29.4676 2.25688 30.9139 4.06619 30.9139H11.8341Z" fill="#878787"/>
<path d="M13.9809 20.1026C14.2221 18.4031 12.7023 17.1497 11.0619 17.5233C9.48174 17.8728 8.90277 19.5964 9.42143 20.7655L12.7867 28.4431L13.9929 20.1026H13.9809Z" fill="#828282"/>
<path d="M12.0032 29.4194L8.77058 22.0672C8.01067 20.3678 6.02044 20.1508 4.91073 21.1512C4.1267 21.8623 3.52359 23.7787 5.27259 24.9357L12.0032 29.4194Z" fill="#898989"/>
<path d="M23.7513 30.9139C25.5607 30.9139 26.7186 29.4675 26.1999 27.744C25.8501 26.5749 24.1976 25.4299 22.5331 26.5508L15.9834 30.9139H23.7513Z" fill="#595959"/>
<path d="M22.4972 25.2129C24.2341 24.0558 23.631 22.1395 22.8591 21.4283C21.7494 20.428 19.7591 20.6449 18.9992 22.3444L15.7666 29.6965L22.4972 25.2129Z" fill="#737373"/>
</svg>
