<svg width="88" height="16" viewBox="0 0 88 16" fill="none" xmlns="http://www.w3.org/2000/svg">
<g clip-path="url(#clip0_1_271)">
<path d="M18.0125 4.09783L14.3625 12.4353L13.3208 5.1895C13.1875 4.20617 14.8625 3.59783 14.8625 3.59783C14.7083 3.25617 14.1792 3.2645 14.1792 3.2645H13.0458C12.8667 1.48117 14.4833 0.185336 16.2292 0.581169C17.9458 0.964502 18.5708 2.83117 18.0125 4.09783Z" fill="#999999"/>
<path d="M11.2333 15.1353L4.11666 10.3936C2.30416 9.18533 0.51249 10.4186 0.133325 11.6895C-0.425009 13.5686 0.82916 15.1353 2.79583 15.1353H11.2333Z" fill="#878787"/>
<path d="M12.1666 3.38117C12.4291 1.5395 10.7791 0.177004 8.99583 0.581171C7.27913 0.964504 6.65413 2.83117 7.21248 4.09784L10.8625 12.4353L12.1666 3.377V3.38117Z" fill="#828282"/>
<path d="M10.5705 13.8062L7.06635 5.81865C6.2455 3.96866 4.07467 3.73949 2.87467 4.82282C2.02884 5.5895 1.37467 7.6728 3.26217 8.9353L10.5705 13.8062Z" fill="#898989"/>
<path d="M22.4297 15.1354C24.4005 15.1354 25.6505 13.5687 25.0922 11.6896C24.713 10.4146 22.9213 9.18121 21.1088 10.3937L13.9922 15.1354H22.4297Z" fill="#595959"/>
<path d="M21.9626 8.9353C23.8501 7.6728 23.1959 5.5895 22.3501 4.82282C21.1501 3.73949 18.9793 3.96866 18.1584 5.81865L14.6543 13.8062L21.9626 8.9353Z" fill="#737373"/>
<path d="M42.7544 0.884644H46.096L52.9751 10.1013V0.884644H56.1086V15.1346H52.7666L45.8877 5.89713V15.1346H42.7544V0.884644Z" fill="black"/>
<path d="M72.0546 10.6471C72.0546 14.5221 68.9501 15.1346 67.0086 15.1346H58.7251V0.884644H67.0001C69.5376 0.884644 71.5671 2.32631 71.5671 5.02631C71.5671 6.36383 70.6251 7.10133 69.9086 7.46383C71.0836 8.05548 72.0546 8.92633 72.0546 10.6471ZM61.7501 3.55548V6.25133H66.6336C67.4376 6.25133 68.3251 5.91383 68.3251 4.91381C68.3251 3.91381 67.6336 3.55548 66.5211 3.55548H61.7501ZM68.8336 10.6471C68.8336 9.28048 67.6961 8.92633 66.5836 8.92633H61.7501V12.3305H66.7001C67.6046 12.3305 68.8336 12.018 68.8336 10.6513V10.6471Z" fill="black"/>
<path d="M87.846 12.8096C86.2835 14.1513 84.6 15.5096 81.271 15.5096C76.846 15.4888 73.4165 12.0596 73.4165 7.98049C73.4375 3.78048 77.0085 0.509644 81.3125 0.509644C85.046 0.509644 87.0585 2.90548 87.321 3.16798L84.9665 5.52214C84.454 5.00131 83.346 3.81798 81.2915 3.81798C78.7875 3.81798 76.75 5.69299 76.75 7.99714C76.75 10.0055 78.479 12.1763 81.275 12.1763C83.504 12.1763 84.325 11.4471 85.696 10.2971L87.85 12.8096H87.846Z" fill="black"/>
<path d="M41.3208 12.8096C39.7583 14.1513 38.075 15.5096 34.7458 15.5096C30.3208 15.4888 26.8916 12.0596 26.8916 7.98049C26.9125 3.78048 30.4833 0.509644 34.7875 0.509644C38.5208 0.509644 40.5333 2.90548 40.7958 3.16798L38.4416 5.52214C37.9291 5.00131 36.8208 3.81798 34.7666 3.81798C32.2625 3.81798 30.225 5.69299 30.225 7.99714C30.225 10.0055 31.9541 12.1763 34.75 12.1763C36.9791 12.1763 37.8 11.4471 39.1708 10.2971L41.325 12.8096H41.3208Z" fill="black"/>
</g>
<defs>
<clipPath id="clip0_1_271">
<rect width="88" height="15" fill="white" transform="translate(0 0.509644)"/>
</clipPath>
</defs>
</svg>
