<svg width="107" height="30" viewBox="0 0 107 30" fill="none" xmlns="http://www.w3.org/2000/svg">
<g clip-path="url(#clip0_1_116)">
<path fill-rule="evenodd" clip-rule="evenodd" d="M0.0712891 0.0810547H106.929V29.9382H0.0712891V0.0810547ZM15.0887 19.1957C11.9479 19.1957 10.5161 16.8971 10.5147 14.7641C10.5133 12.6105 11.892 10.2901 14.9262 10.2858H17.3029V11.8165C17.3029 11.8165 16.7067 11.8145 15.0087 11.8165C11.186 11.822 10.7849 17.673 15.2759 17.6675H17.3516C17.6121 17.6675 17.7886 17.4511 17.788 17.2061V10.4492C17.788 7.92438 20.9612 6.70824 22.6395 9.64281C24.3541 12.643 25.3356 14.3744 25.3356 14.3744V10.4517C25.3356 7.92681 28.5027 6.71038 30.1816 9.64396C31.896 12.6455 32.9015 14.3765 32.9015 14.3765V7.98624H34.4229V18.9392C34.4229 19.0872 34.3786 19.1908 34.3094 19.2141C34.2479 19.2334 34.1705 19.1898 34.1125 19.1091C34.1071 19.1001 33.9862 18.9029 33.7827 18.571L33.7818 18.5695C32.7331 16.8592 29.4988 11.584 28.5764 10.0508C28.3161 9.66639 27.8929 9.50796 27.5067 9.63239C27.1084 9.76138 26.8627 10.1445 26.8633 10.6304V18.9368C26.8642 19.1067 26.8092 19.1941 26.7559 19.2124C26.7105 19.228 26.6352 19.1985 26.5708 19.1077C26.5708 19.1062 21.0344 10.0484 21.0344 10.0484C20.7744 9.66396 20.3504 9.50553 19.9641 9.63039C19.5649 9.75996 19.3182 10.1415 19.3197 10.6285V18.8835C19.3197 19.0558 19.1753 19.1957 19.0059 19.1957H15.0887ZM45.4075 7.98773H38.2066V10.7954H39.4328V18.7234H38.2066V21.5314H43.3305V18.7234H42.2653V10.7954L44.7564 21.5314H47.8985L50.5052 10.9319V18.7234H49.474V21.5314H55.5403V18.7234H54.2937V10.7954H55.5403V7.98773H48.5311L46.9017 15.6406L45.4075 7.98773ZM77.3046 18.7234H76.4806H76.4804V14.1193C76.4328 12.3268 75.6943 11.2124 73.7571 11.2124C72.2756 11.2124 71.1595 12.0727 70.4289 13.3071V11.428H66.4427V14.2368H67.2478V18.7235H66.4427V21.5315H71.7968V18.7235H70.7933V15.5971C70.8219 14.718 71.3753 14.0888 72.0153 14.0888C72.5677 14.0888 72.9158 14.4178 72.9158 15.1878V21.5314H77.3046V18.7234ZM83.6942 15.3472C83.7476 14.6072 83.4852 13.6942 82.4865 13.6942C81.3379 13.6942 81.298 14.9083 81.298 15.3472H83.6942ZM87.1052 18.0592C86.7732 20.499 85.0601 21.7849 82.5265 21.7849C79.8803 21.7849 77.5624 20.4583 77.5624 16.5194C77.5624 14.012 78.6728 11.2126 82.3911 11.2126C86.1094 11.2126 87.4352 13.8232 87.2388 17.1626H81.2044C81.2044 17.9422 81.3322 19.3272 82.5798 19.3272C83.613 19.3272 83.8581 18.43 83.9173 18.0592H87.1052ZM60.8851 19.0587C59.4686 19.0587 59.4686 17.1266 59.4686 16.4984C59.4686 15.8717 59.4686 13.9397 60.8851 13.9397C62.3026 13.9397 62.3026 15.8716 62.3026 16.4984C62.3026 17.1267 62.3026 19.0587 60.8851 19.0587ZM60.8851 11.2126C57.4749 11.2126 55.8266 13.2829 55.8266 16.4984C55.8266 19.716 57.4748 21.7849 60.8851 21.7849C64.2961 21.7849 65.9446 19.7159 65.9446 16.4984C65.9446 13.2829 64.2961 11.2126 60.8851 11.2126ZM92.5078 11.4279V14.2368H91.7025L93.0629 18.6058L94.3276 14.2368H93.4853V11.4279H98.3034V14.2368H97.4603L94.7588 21.6926C93.595 24.9169 92.334 25.8028 90.0389 25.8028C89.1544 25.8028 88.5775 25.6703 88.0864 25.5576L87.9661 25.5301V22.7398C88.5157 22.8559 89.0136 22.9481 89.4913 22.9481C90.157 22.9481 90.6846 22.7508 90.9527 22.1339C91.0118 22.0125 91.017 21.9986 91.044 21.9256L91.056 21.8933L91.0747 21.8438L88.2569 14.2368H87.4137V11.4279H92.5078ZM35.1617 7.98625V18.9383C35.1631 19.4294 34.9231 19.8118 34.5321 19.934C34.1571 20.0543 33.7557 19.8994 33.4947 19.527L33.4229 19.4099C32.8455 18.4684 28.9708 12.151 27.9574 10.459C27.8839 10.3503 27.7891 10.3333 27.7313 10.3527C27.6498 10.3778 27.6035 10.4818 27.6035 10.6298V18.9368C27.6055 19.5251 27.2829 19.8383 26.9786 19.9324C26.6099 20.0528 26.2126 19.896 25.9528 19.5243C25.9528 19.5243 20.4159 10.459 20.4159 10.4561C20.3414 10.3478 20.2464 10.3317 20.1878 10.3503C20.1058 10.377 20.0591 10.478 20.0591 10.6264V18.8834C20.0591 19.4751 19.5869 19.9503 19.0065 19.9503H15.0893C11.441 19.9503 9.77755 17.2625 9.77555 14.7648C9.77355 12.1668 11.5413 9.53482 14.9255 9.53082H17.3032V7.98425H15.2217C5.88503 7.98425 5.97477 21.514 15.3457 21.5208H19.0098C20.5841 21.5208 21.5976 20.5741 21.5958 18.8194V15.3907C21.5958 15.3907 23.6496 18.8561 24.4575 20.2135C25.8283 22.5218 29.1458 22.0674 29.1373 19.1808V15.393C29.1373 15.393 31.1915 18.8574 31.999 20.2148C33.3702 22.5227 36.6879 22.0687 36.6795 19.1827V7.98625H35.1617Z" fill="black"/>
</g>
<defs>
<clipPath id="clip0_1_116">
<rect width="107" height="30" fill="white" transform="translate(0 0.00964355)"/>
</clipPath>
</defs>
</svg>
