<svg width="128" height="26" viewBox="0 0 128 26" fill="none" xmlns="http://www.w3.org/2000/svg">
<g clip-path="url(#clip0_1_71)">
<path d="M0.686044 17.4766L2.29173 17.2199V2.35731L0.5 2.12397L0.593022 0.514099H11.8085L11.5293 5.01729L9.29555 4.94724L9.15593 2.12397H5.68897V8.8203H7.20129L7.55042 7.28048L9.10933 7.32718V11.947H7.55042L7.17816 10.3603H5.66567V17.4532H9.15593L9.48176 14.3734L11.8318 14.4435L12.0178 19.1332H0.616487L0.686044 17.4766ZM13.065 19.1565L13.1349 17.78L14.3913 17.5233V8.14379L12.9254 8.00369V6.60381L16.6019 6.06724L16.8811 6.8605V7.39707C17.7653 6.46387 18.8356 5.90379 20.2085 5.90379C22.2097 5.90379 23.6987 7.11719 23.6987 9.52032V17.4999L25.0252 17.7566L24.9553 19.1332H20.5807V10.2203C20.5807 8.93688 20.1155 8.21368 18.9519 8.21368C18.5564 8.21368 18.2771 8.28373 17.9748 8.40032C17.7887 8.56377 17.6024 8.79711 17.4396 9.0071V17.5466L18.7659 17.8033L18.6729 19.1799H13.065V19.1565ZM83.3595 19.1565L83.4061 17.78L84.6625 17.5233V8.14379L83.1966 8.00369V6.60381L86.8731 6.06724L87.1523 6.8605V7.39707C88.0364 6.46387 89.1068 5.90379 90.4797 5.90379C92.4809 5.90379 93.9699 7.11719 93.9699 9.52032V17.4999L95.2964 17.7566L95.2265 19.1332H90.8754V10.2203C90.8754 8.93688 90.4099 8.21368 89.2464 8.21368C88.8509 8.21368 88.5716 8.28373 88.2693 8.40032C88.083 8.56377 87.8968 8.79711 87.7341 9.0071V17.5466L89.0604 17.8033L88.9672 19.1799H83.3595V19.1565ZM31.9591 18.8998C31.4472 19.1098 30.5398 19.3433 29.3532 19.3433C27.7941 19.3433 26.3513 18.6433 26.3513 16.3568V8.14362L24.8623 7.91045L24.932 6.27723L26.6074 6.20718L27.3286 3.71065L29.4695 3.61725V6.30042H31.7731L31.6102 7.9338L29.4926 8.16714V16.3799C29.4926 17.0566 29.865 17.4999 30.5631 17.4999H31.8195L31.9591 18.8998ZM119.054 19.1565L119.1 17.8033L120.287 17.5233V8.14379L118.891 8.00369V6.60381L122.707 6.06724L122.963 6.97709V7.28048C123.963 6.53376 125.313 6.04389 126.942 6.04389L127.5 6.53376L127.104 10.0802L125.01 10.0104L124.801 8.12044C124.312 8.19033 123.847 8.33043 123.451 8.61031V17.5466L124.778 17.8267L124.685 19.1799H119.054V19.1565ZM64.2559 19.1565L64.3258 17.8033L65.5125 17.5233V8.14379L64.1163 8.00369V6.60381L67.9324 6.06724L68.1883 6.97709V7.28048C69.189 6.53376 70.5385 6.04389 72.1674 6.04389L72.7258 6.53376L72.2837 10.0802L70.1894 10.0104L69.9799 8.12044C69.4915 8.19033 69.0261 8.33043 68.6305 8.61031V17.5466L69.9568 17.8267L69.8638 19.1799H64.2559V19.1565ZM32.8898 19.1565L32.9597 17.8033L34.1464 17.5233V8.14379L32.7502 8.00369V6.60381L36.5663 6.06724L36.8223 6.97709V7.28048C37.8229 6.53376 39.1724 6.04389 40.778 6.04389L41.3364 6.53376L40.9409 10.0802L38.8466 10.0104L38.6371 8.12044C38.1485 8.19033 37.6833 8.33043 37.2877 8.61031V17.5466L38.614 17.8267L38.521 19.1799H32.8898V19.1565ZM44.943 13.4401C44.943 15.6801 45.9202 17.4067 47.8517 17.4067C48.8523 17.4067 49.6434 17.1967 50.5741 16.7532L51.1093 17.99C50.1553 18.7599 48.7591 19.3431 47.014 19.3431C43.6167 19.3431 41.6623 16.4033 41.6623 12.6235C41.6623 9.40373 43.0816 5.88044 46.9674 5.88044C50.3648 5.88044 51.6445 9.03029 51.6445 12.5302L51.3186 13.3702L44.943 13.4401ZM44.8966 11.947L48.8057 11.7602C48.7358 10.197 48.4101 7.72381 46.8744 7.72381C46.5021 7.72381 46.2462 7.7937 45.7807 8.02704C45.1525 9.10051 44.8966 11.037 44.8966 11.947ZM99.0193 13.4401C99.0193 15.6801 99.9964 17.4067 101.928 17.4067C102.929 17.4067 103.72 17.1967 104.65 16.7532L105.185 17.99C104.232 18.7599 102.835 19.3431 101.09 19.3431C97.6928 19.3431 95.7385 16.4033 95.7385 12.6235C95.7385 9.40373 97.1578 5.88044 101.044 5.88044C104.441 5.88044 105.721 9.03029 105.721 12.5302L105.395 13.3702L99.0193 13.4401ZM98.9727 11.947L102.882 11.7602C102.812 10.197 102.486 7.72381 100.951 7.72381C100.578 7.72381 100.322 7.7937 99.857 8.02704C99.2288 9.10051 98.9727 11.037 98.9727 11.947ZM76.3091 13.4401C76.3091 15.6801 77.2863 17.4067 79.2178 17.4067C80.2184 17.4067 81.0095 17.1967 81.9401 16.7532L82.4752 17.99C81.5214 18.7599 80.1252 19.3431 78.3801 19.3431C74.9827 19.3431 73.0284 16.4033 73.0284 12.6235C73.0284 9.40373 74.4477 5.88044 78.3335 5.88044C81.7307 5.88044 83.0106 9.03029 83.0106 12.5302L82.6847 13.3702L76.3091 13.4401ZM76.2625 11.947L80.1718 11.7602C80.1019 10.197 79.7762 7.72381 78.2404 7.72381C77.8682 7.72381 77.6121 7.7937 77.1468 8.02704C76.5186 9.10051 76.2394 11.037 76.2625 11.947ZM114.516 19.1565L114.19 18.0367C113.329 18.8531 112.492 19.3431 111.189 19.3431C109.188 19.3431 107.396 18.3399 107.396 15.5633V7.81721L105.93 7.67711V6.44052L110.165 5.95049L110.491 7.07049V15.1899C110.491 16.6131 111.072 17.3598 112.213 17.3598C112.538 17.3598 112.957 17.3131 113.329 17.1732C113.548 16.9533 113.743 16.7108 113.911 16.4498V7.81705L112.399 7.67711V6.44052L116.68 5.95049L117.006 7.07049V17.5233L118.332 17.78L118.169 19.1565H114.516ZM57.9968 17.4766C57.322 17.4766 56.7867 17.36 56.368 17.1267V8.89018C56.554 8.61014 56.7635 8.35361 56.9731 8.12027C57.3686 7.98017 57.7176 7.93363 58.1362 7.93363C59.8815 7.93363 60.1839 9.70679 60.1839 12.88C60.1839 15.9366 59.7186 16.7766 59.6023 17.1265C59.1136 17.3598 58.6017 17.4764 57.9966 17.4764L57.9968 17.4766ZM63.2089 12.3202C63.2089 8.37713 62.0455 5.90379 59.1369 5.90379C57.2055 5.90379 56.2981 7.02379 55.9258 7.49047V7.04697L55.6 5.92714L51.8072 6.46387V7.81705L53.2733 8.00369V23.9164L52.0167 24.1729L51.9468 25.5029H57.5546L57.6477 24.1729L56.3214 23.9164V18.8766C56.8566 19.1799 57.6012 19.3665 58.4155 19.3665C63.1623 19.3665 63.2089 14.5367 63.2089 12.3202Z" fill="black"/>
</g>
<defs>
<clipPath id="clip0_1_71">
<rect width="127" height="25" fill="white" transform="translate(0.5 0.509644)"/>
</clipPath>
</defs>
</svg>
