<svg width="76" height="20" viewBox="0 0 76 20" fill="none" xmlns="http://www.w3.org/2000/svg">
<g clip-path="url(#clip0_1_53)">
<path d="M42.9875 6.75037C42.9875 4.60222 43.025 2.60222 43.1375 0.750366L37.4 1.82444V2.34296L37.9625 2.41703C38.375 2.45407 38.6375 2.60222 38.7875 2.82444C38.9375 3.0837 39.05 3.45407 39.125 4.00963C39.2 5.0837 39.275 7.52814 39.2375 11.38C39.2375 15.1948 39.2 17.6022 39.125 18.5281C41.1875 18.9726 42.8 19.1578 44 19.1578C46.25 19.1578 48.0125 18.5281 49.2875 17.2318C50.5625 15.9726 51.2375 14.1948 51.2375 12.0096C51.2375 10.2689 50.75 8.82444 49.775 7.67629C48.8 6.52814 47.5625 5.97259 46.1 5.97259C45.125 5.97259 44.1125 6.23185 42.9875 6.75037ZM43.1 18.1578C43.025 16.9726 42.95 13.417 42.95 7.60222C43.2875 7.49111 43.7375 7.41703 44.3 7.41703C45.2 7.41703 45.9125 7.86148 46.4375 8.7874C46.9625 9.71333 47.225 10.8244 47.225 12.2318C47.225 13.9726 46.925 15.38 46.325 16.5652C45.725 17.7133 44.975 18.3059 44.0375 18.3059C43.7375 18.2318 43.4375 18.1948 43.1 18.1578ZM15.875 1.12074H0.875V1.86148L1.6625 1.93555C2.2625 2.04666 2.675 2.26888 2.9375 2.60222C3.2 2.97259 3.35 3.56518 3.3875 4.38C3.6875 8.38 3.6875 12.1207 3.3875 15.5652C3.3125 16.38 3.1625 16.9726 2.9375 17.343C2.675 17.7133 2.2625 17.9356 1.6625 18.0096L0.875 18.1207V18.8615H10.55V18.1207L9.5375 18.0467C9.29043 18.0262 9.05011 17.9567 8.83099 17.8421C8.61187 17.7275 8.41849 17.5703 8.2625 17.38C8 17.0096 7.85 16.417 7.8125 15.6022C7.7 14.1207 7.625 12.417 7.625 10.5281L9.65 10.5652C10.7375 10.6022 11.4875 11.417 11.8625 13.0467H12.6125V7.00962H11.8625C11.4875 8.60222 10.775 9.41703 9.65 9.45407L7.625 9.49111C7.625 6.15777 7.7 3.7874 7.8125 2.34296H10.775C12.875 2.34296 14.3 3.67629 15.125 6.34296L16.025 6.0837L15.875 1.12074ZM14.1125 12.5281C14.1125 14.4541 14.675 16.0467 15.7625 17.3059C16.85 18.5652 18.4625 19.1578 20.4875 19.1578C22.5125 19.1578 24.1625 18.5281 25.3625 17.2318C26.5625 15.9726 27.125 14.38 27.125 12.4541C27.125 10.5281 26.5625 8.93555 25.475 7.67629C24.3875 6.41703 22.775 5.82444 20.75 5.82444C18.725 5.82444 17.075 6.45407 15.875 7.75037C14.675 9.00963 14.1125 10.6022 14.1125 12.5281ZM22.475 8.30592C22.925 9.38 23.1125 10.7874 23.1125 12.4911C23.1125 16.417 22.2875 18.343 20.675 18.343C19.85 18.343 19.2125 17.7874 18.7625 16.6763C18.3125 15.5652 18.125 14.1578 18.125 12.4911C18.125 8.60222 18.95 6.67629 20.5625 6.67629C21.3875 6.63926 22.025 7.19481 22.475 8.30592ZM54.1625 17.3059C55.4 18.5281 56.975 19.1578 58.85 19.1578C60.0125 19.1578 61.025 18.9356 61.925 18.4541C62.825 18.0096 63.5375 17.4541 64.025 16.7874L63.65 16.343C62.825 16.9726 61.8875 17.2689 60.8 17.2689C59.3 17.2689 58.1375 16.7874 57.35 15.7874C56.525 14.7874 56.15 13.5281 56.225 11.8985H64.25C64.25 10.1207 63.8 8.67629 62.8625 7.52814C61.925 6.41703 60.6125 5.86148 58.925 5.86148C56.825 5.86148 55.2125 6.52814 54.05 7.82444C52.8875 9.12074 52.325 10.7133 52.325 12.6022C52.325 14.5281 52.925 16.0837 54.1625 17.3059ZM56.9375 8.00963C57.35 7.12074 57.875 6.67629 58.5875 6.67629C59.7125 6.67629 60.275 8.0837 60.275 10.9356L56.3 11.0096C56.3375 9.89851 56.525 8.89851 56.9375 8.00963ZM74.3375 6.52814C73.325 6.0837 72.05 5.82444 70.5125 5.82444C68.9375 5.82444 67.7 6.23185 66.7625 7.00962C65.825 7.7874 65.3375 8.75037 65.3375 9.89851C65.3375 10.8985 65.6375 11.6763 66.2 12.2318C66.7625 12.7874 67.6625 13.2689 68.825 13.6763C69.875 14.0467 70.625 14.417 71 14.7504C71.375 15.1207 71.6 15.5281 71.6 16.0837C71.6 16.6022 71.4125 17.0837 71 17.4541C70.625 17.8615 70.1 18.0467 69.425 18.0467C67.775 18.0467 66.5375 16.8615 65.675 14.4911L65.0375 14.6763L65.1875 18.38C66.5375 18.8985 68.0375 19.1578 69.6875 19.1578C71.4125 19.1578 72.725 18.7874 73.7 18.0096C74.675 17.2689 75.1625 16.1948 75.1625 14.8615C75.1625 13.9726 74.9375 13.2318 74.45 12.6763C73.9625 12.1207 73.175 11.6393 72.05 11.1948C70.8125 10.7504 69.95 10.343 69.5 9.97259C69.05 9.60222 68.825 9.15777 68.825 8.60222C68.825 8.04666 68.975 7.60222 69.3125 7.23185C69.65 6.86148 70.0625 6.71333 70.5875 6.71333C72.0875 6.71333 73.175 7.7874 73.85 9.89851L74.4875 9.71333L74.3375 6.52814ZM38.2625 6.19481C37.7375 5.93555 37.175 5.82444 36.5375 5.82444C35.9 5.82444 35.2625 6.0837 34.55 6.60222C33.8375 7.12074 33.3125 7.82444 32.9 8.7874L32.9375 5.82444L27.2375 6.93555V7.45407L27.8 7.49111C28.5125 7.56518 28.925 8.12074 29 9.12074C29.225 11.417 29.225 13.8615 29 16.4541C28.925 17.4541 28.5125 17.9726 27.8 18.0837L27.2375 18.1578V18.8615H35.1875V18.1578L34.175 18.0837C33.4625 18.0096 33.05 17.4541 32.975 16.4541C32.75 14.3059 32.7125 12.0096 32.9 9.63925C33.125 9.26888 33.6125 9.04666 34.3625 8.97259C35.1125 8.89851 35.975 9.12074 36.875 9.63925L38.2625 6.19481Z" fill="black"/>
</g>
<defs>
<clipPath id="clip0_1_53">
<rect width="75" height="20" fill="white" transform="translate(0.5 0.00964355)"/>
</clipPath>
</defs>
</svg>
