<svg width="173" height="14" viewBox="0 0 173 14" fill="none" xmlns="http://www.w3.org/2000/svg">
<g clip-path="url(#clip0_1_69)">
<path fill-rule="evenodd" clip-rule="evenodd" d="M4.77187 11.8297C4.77187 12.7964 5.0488 13.0173 6.82053 13.0173V13.6248H0.646973V13.0173C1.86501 13.0173 2.28048 12.9067 2.28048 11.8574V1.99813C2.28048 0.94862 1.86501 0.838085 0.646973 0.838085V0.230551H11.0009L11.0564 3.9036H10.558C10.2811 1.14202 9.58901 0.893597 7.0144 0.893597H4.74429V6.36174H6.57134C8.31549 6.36174 8.4263 6.08548 8.56468 4.70469H9.06306V8.70918H8.56468C8.4263 7.32839 8.31549 7.07964 6.57134 7.07964H4.74429V11.8299H4.77203L4.77187 11.8297ZM12.3298 13.6248V13.0173C13.5479 13.0173 13.9633 12.9067 13.9633 11.8574V1.99813C13.9633 0.94862 13.5479 0.838085 12.3298 0.838085V0.230551H18.0882V0.838248C16.87 0.838248 16.4547 0.948783 16.4547 1.99829V11.8576C16.4547 12.9069 16.87 13.0174 18.0882 13.0174V13.625H12.3296L12.3298 13.6248ZM31.1551 13.8457L21.9639 2.49513V11.8022C21.9639 12.8794 22.7113 13.0449 23.985 13.0449V13.6526H19.1125V13.0449C20.3858 13.0449 21.0781 12.8794 21.0781 11.8022V1.47329C20.4967 0.86576 20.0813 0.838085 19.1125 0.838085V0.230551H23.4313L30.463 9.26136V2.05332C30.463 0.976295 29.7156 0.810574 28.4421 0.810574V0.230551H33.3421V0.838248C32.0688 0.838248 31.3765 1.00397 31.3765 2.08116V13.846H31.1551V13.8457ZM37.7164 13.6248H32.8715V13.0173C34.145 13.0173 34.7265 12.8516 35.1416 11.7469L39.5159 0.092504H40.7339L45.4402 11.8297C45.8556 12.8792 46.0493 12.9896 47.0183 12.9896V13.5971H41.3984V12.9896C43.1148 12.9896 43.2809 12.8516 42.8655 11.8297L41.4815 8.2672H37.2733L36.0277 11.7192C35.6402 12.7687 36.2492 12.9896 37.7441 12.9896V13.6248H37.7164ZM37.5225 7.57664H41.1768L39.2667 2.77139L37.5225 7.57664ZM59.6423 13.8457L50.4788 2.49513V11.8022C50.4788 12.8794 51.2262 13.0449 52.4997 13.0449V13.6526H47.7379V13.0449C48.9008 13.0449 49.5929 12.8794 49.5929 11.8022V1.50097C48.9285 0.893434 48.4302 0.838085 47.3229 0.838085V0.230551H51.9183L58.9501 9.26136V2.05332C58.9501 0.976295 58.2027 0.810574 56.9293 0.810574V0.230551H61.8018V0.838248C60.5283 0.838248 59.8362 1.00397 59.8362 2.08116V13.846H59.6423V13.8457ZM73.2354 0.203039H73.5676L73.7613 4.20736L73.2631 4.23504C72.9309 1.94295 71.7128 0.727713 69.4703 0.727713C66.9788 0.727713 65.0962 2.85425 65.0962 6.11299C65.0962 10.2832 67.7262 12.6582 70.4945 12.6582C71.6851 12.6582 72.7647 12.3269 73.8166 11.1947L74.2044 11.5811C73.346 12.7964 71.6573 13.8182 69.3871 13.8182C66.0097 13.8182 62.5769 11.2774 62.5769 7.02429C62.5768 2.90943 65.7051 0.00964355 69.498 0.00964355C71.2975 0.00964355 72.2388 0.782899 72.737 0.782899C72.9584 0.782899 73.1246 0.589667 73.2354 0.203039ZM75.3116 13.6248V13.0173C76.5298 13.0173 76.9451 12.9067 76.9451 11.8574V1.99813C76.9451 0.94862 76.5298 0.838085 75.3116 0.838085V0.230551H81.07V0.838248C79.852 0.838248 79.4365 0.948783 79.4365 1.99829V11.8576C79.4365 12.9069 79.852 13.0174 81.07 13.0174V13.625L75.3116 13.6248ZM86.4962 13.6248H81.9835V13.0173C82.9803 13.0173 83.5062 12.8516 83.9216 11.7469L88.2956 0.092504H89.5137L94.22 11.8297C94.6353 12.8792 94.8292 12.9896 95.798 12.9896V13.5971H90.1783V12.9896C91.8947 12.9896 92.0609 12.8516 91.6456 11.8297L90.2614 8.2672H86.0534L84.8075 11.7192C84.4199 12.7687 85.0291 12.9896 86.5241 12.9896V13.6248H86.4962ZM86.3023 7.57664H89.9567L88.0742 2.77139L86.3023 7.57664ZM96.7393 13.6248V13.0173C97.9575 13.0173 98.3728 12.9067 98.3728 11.8574V1.99813C98.3728 0.94862 97.9575 0.838085 96.7393 0.838085V0.230551H102.47V0.838248C101.252 0.838248 100.864 0.948783 100.864 1.99829V11.9404C100.864 12.824 101.307 12.9346 102.027 12.9346H102.719C105.322 12.9346 106.152 12.5479 106.872 9.59297L107.37 9.64816L106.955 13.5975H96.7393V13.6251V13.6248ZM124.645 0.230551L124.701 4.1245H124.202C123.926 1.25239 123.233 0.893597 120.659 0.893597H119.828V11.8299C119.828 12.8794 120.216 13.0174 121.877 13.0174V13.625H115.288V13.0174C116.949 13.0174 117.364 12.8517 117.364 11.8299V0.893434H116.534C113.959 0.893434 113.267 1.25239 112.99 4.1245H112.492L112.547 0.230551H124.645ZM125.946 13.625V13.0173C127.165 13.0173 127.58 12.9067 127.58 11.8574V1.99813C127.58 0.94862 127.165 0.838085 125.946 0.838085V0.230551H131.705V0.838248C130.487 0.838248 130.071 0.948783 130.071 1.99829V11.8576C130.071 12.9069 130.487 13.0174 131.705 13.0174V13.625H125.946ZM149.035 0.230388V0.838248C147.817 0.838248 147.291 0.893597 147.402 1.97062L148.454 11.9127C148.565 12.9346 148.952 13.0449 150.17 13.0449V13.6526H144.44V13.0449C145.63 13.0449 146.045 12.9346 145.962 11.9127L144.882 1.47313L140.647 13.8732H140.481L136.328 1.44578L135.331 11.8849C135.22 12.9344 135.94 13.0448 137.158 13.0448V13.6525H132.673V13.0448C133.892 13.0448 134.307 12.8516 134.39 11.8849L135.442 1.94278C135.553 0.893434 135.027 0.810574 133.808 0.810574V0.230551H138.515L141.339 9.37174L144.384 0.230551H149.035L149.035 0.230388ZM159.749 8.70885H159.251C159.112 7.32806 159.002 7.07932 157.258 7.07932H155.209V11.9401C155.209 12.8237 155.652 12.9342 156.371 12.9342H157.479C160.081 12.9342 160.912 12.5476 161.631 9.59264L162.13 9.64783L161.659 13.5971H151.084V12.9894C152.302 12.9894 152.717 12.8791 152.717 11.8296V1.99813C152.717 0.94862 152.302 0.838085 151.084 0.838085V0.230551H161.244L161.299 3.57216H160.801C160.496 1.19704 159.887 0.920946 157.23 0.920946H155.236V6.36141H157.285C159.029 6.36141 159.14 6.08532 159.278 4.70453H159.777V8.70902H159.749L159.749 8.70885ZM170.435 10.8629C170.435 9.64783 169.66 9.04029 168.331 8.29455L166.2 7.18985C164.594 6.33374 163.653 5.39476 163.653 3.7102C163.653 1.6115 165.452 0.00964355 167.805 0.00964355C169.411 0.00964355 170.241 0.782899 170.712 0.782899C171.017 0.782899 171.155 0.589667 171.293 0.203039H171.681L171.875 3.95895L171.376 3.98662C171.1 2.16369 169.798 0.755225 167.971 0.755225C166.587 0.755225 165.673 1.58383 165.673 2.74371C165.673 4.01413 166.642 4.53881 167.722 5.11883L169.549 6.08532C171.266 7.02429 172.484 7.96327 172.484 9.75836C172.484 12.1335 170.435 13.8182 167.888 13.8182C166.089 13.8182 165.203 12.9619 164.732 12.9619C164.428 12.9619 164.262 13.2382 164.123 13.6525H163.735L163.459 9.6755L163.957 9.62032C164.345 12.1058 166.061 13.1276 167.777 13.1276C169.217 13.1 170.435 12.4649 170.435 10.8632L170.435 10.8629Z" fill="black"/>
</g>
<defs>
<clipPath id="clip0_1_69">
<rect width="172" height="14" fill="white" transform="translate(0.5 0.00964355)"/>
</clipPath>
</defs>
</svg>
