<svg width="170" height="36" viewBox="0 0 170 36" fill="none" xmlns="http://www.w3.org/2000/svg">
<path d="M26.4321 28.7586C27.1533 31.971 33.326 28.2244 33.326 28.2244C33.326 28.2244 27.6704 26.6925 26.4321 28.7586Z" fill="#3DAEDF"/>
<path d="M23.9931 27.2591C27.298 28.5858 26.7941 21.8102 26.7941 21.8102C26.7941 21.8102 22.6808 25.1371 23.9931 27.2591Z" fill="#3DAEDF"/>
<path d="M29.3949 24.5627C32.6759 24.9293 30.523 19.0107 30.523 19.0107C30.523 19.0107 27.6909 22.9943 29.3949 24.5627Z" fill="#3DAEDF"/>
<path d="M30.4861 26.2784C32.3299 28.7634 36.1953 23.2361 36.1953 23.2361C36.1953 23.2361 30.7601 24.0421 30.4861 26.2784Z" fill="#3DAEDF"/>
<path d="M35.6226 20.7085C38.0788 22.0199 39.5 15.7664 39.5 15.7664C39.5 15.7664 35.0829 18.7185 35.6226 20.7085Z" fill="#3DAEDF"/>
<path d="M36.3694 13.5495C39.6844 14.2802 37.8762 8.39758 37.8762 8.39758C37.8762 8.39758 34.7367 11.8589 36.3694 13.5495Z" fill="#3DAEDF"/>
<path d="M33.9379 8.03326C36.6159 7.27697 33.0743 2.85384 33.0743 2.85384C33.0743 2.85384 32.114 7.23233 33.9379 8.03326Z" fill="#3DAEDF"/>
<path d="M31.4086 4.10883C32.7052 2.52909 28.1725 0.242104 28.1725 0.242104C28.1725 0.242104 29.8417 4.12273 31.4086 4.10883Z" fill="#3DAEDF"/>
<path d="M33.6435 20.2123C36.3669 19.1441 32.3681 14.9522 32.3681 14.9522C32.928 15.5963 31.4722 19.1151 33.6435 20.2123Z" fill="#3DAEDF"/>
<path d="M34.588 14.1929C37.0141 11.8471 31.2557 10.5093 31.2557 10.5093C31.2557 10.5093 32.3169 14.7131 34.588 14.1929Z" fill="#3DAEDF"/>
<path d="M32.2256 9.40345C34.7946 6.47057 28.1725 6.40239 28.1725 6.40239C28.1725 6.40239 30.307 10.1151 32.2256 9.40345Z" fill="#3DAEDF"/>
<path d="M28.8664 4.37585C29.1777 1.57303 24.3119 3.83445 24.3119 3.83445C24.3119 3.83445 27.5887 5.58932 28.8664 4.37585Z" fill="#3DAEDF"/>
<path d="M26.7011 2.44282C28.0424 -0.614435 22.2236 0.73031 22.2236 0.73031C22.2236 0.73031 24.9472 3.48868 26.7011 2.44282Z" fill="#3DAEDF"/>
<path d="M9.67374 35.6764C11.9231 33.9958 15.4074 32.4696 18.4014 31.0871C40.963 23.8094 38.8633 11.6521 28.1733 2.6819C44.2385 16.8974 31.3579 26.8008 17.3802 30.8635C11.9311 32.6633 7.78769 34.1251 9.0404 35.6764H9.67374Z" fill="#3DAEDF"/>
<path d="M13.5652 28.9796C12.8441 32.2441 6.67126 28.4369 6.67126 28.4369C6.67126 28.4369 12.3269 26.88 13.5652 28.9796Z" fill="#3DAEDF"/>
<path d="M16.004 27.4561C12.6991 28.8044 13.203 21.9189 13.203 21.9189C13.203 21.9189 17.3163 25.2997 16.004 27.4561Z" fill="#3DAEDF"/>
<path d="M10.6011 24.7148C7.32 25.0874 9.47306 19.0729 9.47306 19.0729C9.47306 19.0729 12.305 23.1211 10.6011 24.7148Z" fill="#3DAEDF"/>
<path d="M9.51258 26.4621C7.66882 28.9873 3.80347 23.3705 3.80347 23.3705C3.80347 23.3705 9.23853 24.1896 9.51258 26.4621Z" fill="#3DAEDF"/>
<path d="M4.37734 20.7993C1.92113 22.132 0.5 15.7773 0.5 15.7773C0.5 15.7773 4.91703 18.7773 4.37734 20.7993Z" fill="#3DAEDF"/>
<path d="M3.62641 13.5242C0.311437 14.2667 2.11956 8.28884 2.11956 8.28884C2.11956 8.28884 5.25913 11.8062 3.62641 13.5242Z" fill="#3DAEDF"/>
<path d="M6.06073 7.91964C3.38275 7.15106 6.9243 2.65623 6.9243 2.65623C6.9243 2.65623 7.88462 7.1057 6.06073 7.91964Z" fill="#3DAEDF"/>
<path d="M8.5871 3.92937C7.2905 2.32403 11.8232 0 11.8232 0C11.8232 0 10.154 3.94353 8.5871 3.92937Z" fill="#3DAEDF"/>
<path d="M6.35523 20.2926C3.63174 19.2071 7.63055 14.9473 7.63055 14.9473C7.07074 15.6019 8.52646 19.1777 6.35523 20.2926Z" fill="#3DAEDF"/>
<path d="M5.41069 14.1755C2.98462 11.7918 8.74305 10.4322 8.74305 10.4322C8.74305 10.4322 7.6818 14.7041 5.41069 14.1755Z" fill="#3DAEDF"/>
<path d="M7.77282 9.31181C5.20376 6.33144 11.8259 6.26212 11.8259 6.26212C11.8259 6.26212 9.69135 10.0349 7.77282 9.31181Z" fill="#3DAEDF"/>
<path d="M11.1344 4.20199C10.823 1.35373 15.6889 3.65172 15.6889 3.65172C15.6889 3.65172 12.4121 5.43509 11.1344 4.20199Z" fill="#3DAEDF"/>
<path d="M13.2935 2.23715C11.9523 -0.869614 17.7711 0.496917 17.7711 0.496917C17.7711 0.496917 15.0475 3.29996 13.2935 2.23715Z" fill="#3DAEDF"/>
<path d="M30.3247 36C28.0754 34.3194 24.591 32.746 21.5971 31.3414C-0.96452 23.9457 1.13511 11.5939 11.8252 2.47836C-4.24009 16.9244 8.64051 26.9844 22.6183 31.1129C28.0673 32.9418 32.2108 34.384 30.9581 36H30.3247Z" fill="#3DAEDF"/>
<path d="M21.117 11.8462C20.0056 11.9415 19.9201 12.0231 19.9201 13.1795V18.4176C19.9201 19.5605 20.0342 19.6421 21.117 19.7373V20.2135H16.771V19.7373C17.9109 19.6421 18.0106 19.5468 18.0106 18.404V15.8734H14.1204V18.404C14.1204 19.5605 14.2344 19.6421 15.289 19.7373V20.2135H11.0426V19.7373C12.0828 19.6421 12.211 19.5605 12.211 18.404V13.1795C12.211 12.0231 12.0828 11.9415 10.9855 11.8462V11.37H15.2604V11.8462C14.2344 11.9415 14.1204 12.0231 14.1204 13.1795V15.1795H18.0106V13.1795C18.0106 12.0231 17.8966 11.9415 16.8421 11.8462V11.37H21.117V11.8462Z" fill="white"/>
<path d="M29.7402 17.9011C29.5634 18.5542 29.2095 19.5881 28.9781 20.0643C28.6245 20.146 27.3726 20.4181 26.4474 20.4181C22.8279 20.4181 21.3174 18.0644 21.3174 15.9011C21.3174 13.112 23.4674 11.1665 26.7193 11.1665C27.8216 11.1665 28.8286 11.4521 29.1959 11.5338C29.3184 12.2821 29.4137 12.9079 29.5089 13.765L29.0054 13.8603C28.5564 12.2412 27.5087 11.765 26.4609 11.765C24.4879 11.765 23.3993 13.629 23.3993 15.629C23.3993 18.1323 24.7464 19.7786 26.5971 19.7786C27.7264 19.7786 28.57 19.0575 29.264 17.6834L29.7402 17.9011Z" fill="white"/>
<path d="M54.519 11.5257C54.519 11.9145 54.5115 12.4923 54.4966 13.2594C54.4815 14.0266 54.474 14.6007 54.474 14.9827C54.474 15.1736 54.4778 15.4651 54.4853 15.8574C54.4928 16.2498 54.4966 16.5481 54.4966 16.753C54.4966 16.9923 54.5077 17.362 54.5302 17.8618C54.5528 18.3616 54.5639 18.7313 54.5639 18.971C54.4515 18.9638 54.2557 18.9517 53.9766 18.9345C53.6974 18.917 53.4867 18.9085 53.3444 18.9085C53.2132 18.9085 53.0127 18.917 52.7429 18.9345C52.4731 18.9517 52.267 18.9638 52.1247 18.971C52.132 18.7487 52.1491 18.4189 52.1751 17.9819C52.2015 17.5443 52.2146 17.2197 52.2146 17.008C52.2783 15.0228 52.3101 13.4522 52.3101 12.2963C52.3101 11.8868 52.2952 11.2967 52.2652 10.526C51.973 10.526 51.5345 10.5399 50.95 10.5677C50.388 10.6162 49.9046 10.6667 49.5 10.7188C49.5449 10.5903 49.5674 10.3978 49.5674 10.1408C49.5674 9.91532 49.5598 9.75221 49.5449 9.6516C49.5374 9.63753 49.5298 9.60915 49.5224 9.56548C49.5148 9.52214 49.5072 9.49358 49.5 9.47952C49.9944 9.50747 50.371 9.52125 50.6296 9.52125C51.7088 9.55264 52.6138 9.56803 53.3444 9.56803H54.8899C55.1485 9.56803 55.5213 9.55336 56.0085 9.52376C56.4955 9.49433 56.8965 9.47952 57.2113 9.47952C57.1663 9.67058 57.1438 9.85612 57.1438 10.0367C57.1438 10.2554 57.1663 10.4827 57.2113 10.7188C56.3232 10.5903 55.4407 10.526 54.5639 10.526L54.519 11.5257Z" fill="white"/>
<path d="M60.462 11.7852L60.4394 13.2742C60.7281 12.9828 61.0765 12.7285 61.485 12.5114C61.8932 12.2947 62.2811 12.1863 62.6484 12.1863C63.3528 12.1863 63.9373 12.3995 64.4021 12.8264C64.8142 13.1978 65.0203 13.7879 65.0203 14.5967V18.9702C64.9002 18.9631 64.7168 18.951 64.4694 18.9336C64.222 18.9163 64.0366 18.9077 63.9129 18.9077C63.7931 18.9077 63.6076 18.9163 63.3565 18.9336C63.1055 18.951 62.9237 18.9631 62.8115 18.9702C62.8189 18.8798 62.8318 18.7325 62.8507 18.5276C62.8694 18.3227 62.8788 18.1718 62.8788 18.0746L62.9237 16.8147C62.9575 16.5438 62.9743 16.1326 62.9743 15.5806C62.9743 15.0322 62.935 14.5689 62.8564 14.1905C62.7852 13.9477 62.6455 13.7489 62.4376 13.5944C62.2296 13.4401 61.9927 13.3629 61.7266 13.3629C61.172 13.3629 60.8189 13.5823 60.6672 14.0214C60.5154 14.4607 60.4394 15.0723 60.4394 15.8566C60.4394 16.089 60.4432 16.4069 60.4508 16.8093C60.4583 17.2122 60.4694 17.6146 60.4845 18.0173C60.4958 18.4199 60.5032 18.7375 60.5069 18.9702C60.387 18.9631 60.2072 18.951 59.9674 18.9336C59.7277 18.9163 59.5477 18.9077 59.4278 18.9077C59.3116 18.9077 59.1356 18.9163 58.8995 18.9336C58.6635 18.951 58.478 18.9631 58.3431 18.9702C58.373 18.5745 58.3881 18.2758 58.3881 18.0746L58.4612 14.6437C58.4612 14.4632 58.4648 14.1942 58.4725 13.8366C58.4797 13.4792 58.4836 13.2066 58.4836 13.0193C58.4836 11.492 58.4366 9.98546 58.3431 8.5C58.6728 8.55547 59.0494 8.58342 59.4728 8.58342C59.9787 8.58342 60.3552 8.55547 60.6026 8.5L60.462 11.7852Z" fill="white"/>
<path d="M70.8922 15.0021C70.8847 14.9676 70.881 14.9136 70.881 14.8408C70.881 14.7713 70.8771 14.7192 70.8697 14.6844C70.8209 13.3897 70.4763 12.7425 69.8355 12.7425C69.3634 12.7425 69.0496 12.962 68.894 13.4011C68.7385 13.8403 68.6364 14.3739 68.5877 15.0021H70.8922ZM68.5877 15.6633C68.5877 15.8855 68.6046 16.1494 68.6384 16.4548C68.6644 16.6698 68.7497 16.918 68.894 17.199C69.0383 17.4804 69.1891 17.6869 69.3465 17.8187C69.6949 18.1032 70.1408 18.2457 70.6842 18.2457C71.3286 18.2457 71.9114 18.0392 72.4321 17.6262L72.6177 17.7562L72.2973 18.5215C71.6529 18.9346 70.939 19.1412 70.1559 19.1412C69.5113 19.1412 68.9653 19.0674 68.5174 18.9198C68.0697 18.7724 67.6492 18.4975 67.2557 18.0947C66.6861 17.4976 66.4014 16.6368 66.4014 15.5122C66.4014 14.8634 66.5363 14.2836 66.806 13.7733C67.0759 13.2629 67.4711 12.8639 67.992 12.5758C68.5127 12.2877 69.1273 12.1438 69.8355 12.1438C70.5287 12.1438 71.1067 12.2738 71.5694 12.5343C72.0322 12.7945 72.3722 13.1547 72.5895 13.6147C72.8069 14.0747 72.9155 14.6082 72.9155 15.2154C72.9155 15.4132 72.908 15.5626 72.8931 15.6633H68.5877Z" fill="white"/>
<path d="M80.8332 9.56803C81.0581 9.56803 81.4645 9.53872 82.0528 9.47952C82.0453 9.6981 82.0265 10.0246 81.9965 10.4582C81.9666 10.8922 81.9479 11.2133 81.9405 11.4214V13.2959C82.2889 13.2959 82.6973 13.3028 83.1656 13.3167C83.6302 13.334 83.9881 13.3427 84.2392 13.3427C84.5051 13.3427 84.8687 13.334 85.3296 13.3167C85.7904 13.3028 86.1875 13.2959 86.5212 13.2959V11.3385C86.5212 10.8801 86.4892 10.2604 86.4255 9.47952C87.0138 9.53872 87.4298 9.56803 87.6734 9.56803C87.8793 9.56803 88.2934 9.53872 88.9155 9.47952C88.9005 9.70183 88.8733 10.0123 88.834 10.4117C88.7947 10.8107 88.775 11.1335 88.775 11.3799C88.7449 12.8308 88.7299 13.9033 88.7299 14.5974C88.7299 16.5446 88.7768 18.0024 88.8705 18.971C88.7206 18.9638 88.5145 18.9517 88.2523 18.9344C87.9899 18.917 87.7969 18.9085 87.6734 18.9085C87.516 18.9085 87.2873 18.917 86.9877 18.9344C86.6878 18.9517 86.4706 18.9638 86.3356 18.971C86.3956 18.117 86.4424 17.4766 86.4762 17.0497C86.5061 16.168 86.5212 15.5069 86.5212 15.066V14.4049C85.5094 14.3771 84.7488 14.363 84.2392 14.363C83.7483 14.363 82.982 14.3771 81.9405 14.4049V16.0708C81.9405 16.9388 81.9779 17.9054 82.0528 18.971C81.9253 18.9638 81.7287 18.9517 81.4627 18.9344C81.1965 18.917 81.0018 18.9085 80.8781 18.9085C80.732 18.9085 80.5128 18.917 80.2206 18.9344C79.9282 18.9517 79.7034 18.9638 79.546 18.971C79.6846 17.4852 79.7539 15.7863 79.7539 13.8738C79.7539 12.173 79.707 10.7084 79.6135 9.47952C80.2018 9.53872 80.6083 9.56803 80.8332 9.56803Z" fill="white"/>
<path d="M92.5285 17.1386C92.5285 17.8502 92.7983 18.2061 93.3379 18.2061C94.0722 18.2061 94.4396 17.7148 94.4396 16.7325C94.4396 16.1495 94.4544 15.7088 94.4843 15.4101C94.1847 15.5352 93.986 15.6131 93.8887 15.6445C93.8062 15.6757 93.6947 15.7133 93.5543 15.7565C93.4138 15.7998 93.3041 15.8381 93.2255 15.871C93.1467 15.9038 93.0682 15.9499 92.9894 16.0087C92.6821 16.2449 92.5285 16.6215 92.5285 17.1386ZM91.1234 13.9576L90.9437 13.1298C91.2844 12.8347 91.7051 12.6082 92.2053 12.4503C92.7055 12.2923 93.2049 12.2134 93.7032 12.2134C94.4339 12.2134 95.0718 12.3653 95.617 12.6691C96.1623 12.9729 96.4461 13.4387 96.4685 14.0669V14.9832C96.4685 15.2887 96.4608 15.6481 96.4461 16.061C96.4272 16.4741 96.4179 16.79 96.4179 17.0085C96.4179 17.3662 96.4272 17.6299 96.4461 17.7998C96.4798 18.109 96.594 18.3068 96.7889 18.3934C96.9575 18.4109 97.1111 18.4194 97.2497 18.4194C97.2948 18.4194 97.3172 18.4889 97.3172 18.6277V18.7579C97.2235 18.8102 96.9781 18.9018 96.5809 19.0339C96.2849 19.0929 96.0787 19.1223 95.9627 19.1223C95.6254 19.1223 95.3247 19.0348 95.0605 18.8594C94.7965 18.6842 94.6044 18.4436 94.4843 18.1383C94.2896 18.4507 94.018 18.6963 93.6694 18.8751C93.321 19.0539 92.9557 19.1431 92.5735 19.1431C91.9365 19.1431 91.4212 18.9853 91.0279 18.6693C90.6344 18.3535 90.4377 17.9075 90.4377 17.3312C90.4377 17.012 90.5165 16.7118 90.6737 16.4307C90.8311 16.1495 91.0503 15.9376 91.3314 15.7956C91.6798 15.608 92.2943 15.4153 93.175 15.2173C93.6845 15.1031 94.0442 14.9816 94.254 14.853C94.3777 14.7558 94.4396 14.579 94.4396 14.3221C94.4396 13.9992 94.2998 13.727 94.0207 13.5045C93.7416 13.2826 93.4203 13.1714 93.0568 13.1714C92.461 13.1714 91.9103 13.385 91.4045 13.8119C91.3706 13.8398 91.3163 13.8883 91.2415 13.9576H91.1234Z" fill="white"/>
<path d="M102.843 14.1917C102.659 14.0669 102.406 14.0044 102.084 14.0044C101.354 14.0044 100.893 14.3099 100.702 14.9207C100.642 15.1915 100.612 15.7312 100.612 16.5398C100.612 17.4389 100.642 18.2495 100.702 18.9715C100.589 18.9643 100.409 18.9522 100.162 18.935C99.9148 18.9175 99.7348 18.909 99.6224 18.909C99.495 18.909 99.3153 18.9175 99.083 18.935C98.8506 18.9522 98.6763 18.9643 98.5601 18.9715C98.6088 18.1902 98.6332 17.0242 98.6332 15.4725C98.6332 14.4939 98.6088 13.449 98.5601 12.3385C98.9949 12.366 99.3171 12.3801 99.5268 12.3801C99.7553 12.3801 100.102 12.366 100.567 12.3385L100.516 14.0461C101.029 12.8244 101.874 12.2134 103.051 12.2134C102.991 12.6369 102.961 12.9701 102.961 13.2131C102.961 13.3 102.965 13.4422 102.972 13.6401C102.98 13.8379 102.984 13.9872 102.984 14.0878L102.843 14.1917Z" fill="white"/>
<path d="M107.56 18.5017C107.729 18.5017 107.897 18.4565 108.066 18.3662C108.235 18.2759 108.366 18.165 108.459 18.033C108.583 17.8631 108.691 17.6287 108.785 17.33C108.92 16.834 108.988 16.2717 108.988 15.6433C108.988 14.9387 108.908 14.3286 108.749 13.8134C108.589 13.2976 108.225 13.04 107.656 13.04C106.719 13.04 106.25 13.9217 106.25 15.6849C106.25 16.4382 106.327 17.0959 106.481 17.6582C106.634 18.2204 106.994 18.5017 107.56 18.5017ZM104.154 18.9908C104.191 18.3384 104.223 17.535 104.249 16.5804V13.7013C104.249 13.4132 104.253 12.9829 104.261 12.41C104.268 11.8374 104.272 11.409 104.272 11.1242C104.272 10.1383 104.24 9.26389 104.176 8.50024C104.641 8.55572 104.995 8.58352 105.239 8.58352C105.501 8.58352 105.876 8.55572 106.363 8.50024L106.34 9.37483C106.34 9.46841 106.337 9.60224 106.329 9.7758C106.321 9.94939 106.318 10.0778 106.318 10.1609C106.303 10.5601 106.295 11.15 106.295 11.9313C106.295 12.0804 106.288 12.3043 106.273 12.6026C106.258 12.9013 106.25 13.1253 106.25 13.2743C106.449 12.9273 106.726 12.6522 107.082 12.4492C107.438 12.246 107.828 12.1447 108.251 12.1447C108.877 12.1447 109.413 12.3016 109.859 12.6157C110.305 12.9298 110.64 13.336 110.865 13.834C111.09 14.3322 111.202 14.8643 111.202 15.4298C111.202 16.5752 110.917 17.4568 110.348 18.0748C109.692 18.7863 108.849 19.142 107.818 19.142C107.414 19.142 107.024 19.0593 106.649 18.8947C106.275 18.7299 105.981 18.4912 105.767 18.179C105.437 18.3662 105.008 18.637 104.48 18.9908H104.154Z" fill="white"/>
<path d="M114.451 14.7255C114.403 15.0522 114.378 15.4075 114.378 15.7931C114.378 17.6393 114.846 18.5626 115.783 18.5626C116.162 18.5626 116.445 18.4351 116.632 18.1799C116.819 17.9247 116.965 17.5909 117.071 17.1778C117.194 16.6641 117.256 16.0375 117.256 15.2984C117.256 15.1422 117.241 14.9079 117.211 14.5954C117.095 13.3739 116.658 12.7628 115.901 12.7628C115.437 12.7628 115.09 12.9642 114.862 13.3667C114.633 13.7694 114.496 14.2224 114.451 14.7255ZM112.147 15.8136C112.147 14.7275 112.484 13.8525 113.158 13.1898C113.466 12.8739 113.862 12.624 114.347 12.4399C114.832 12.2559 115.319 12.1641 115.806 12.1641C116.315 12.1641 116.822 12.2406 117.326 12.3933C117.83 12.5461 118.23 12.7767 118.526 13.0856C119.171 13.7244 119.493 14.5331 119.493 15.5117C119.493 16.2129 119.346 16.8411 119.052 17.3964C118.757 17.9519 118.328 18.3849 117.765 18.6955C117.2 19.0062 116.54 19.1615 115.783 19.1615C115.049 19.1615 114.408 19.0261 113.861 18.7553C113.314 18.4847 112.892 18.0968 112.594 17.5918C112.296 17.0869 112.147 16.4941 112.147 15.8136Z" fill="white"/>
<path d="M125.411 17.9652C125.018 18.3607 124.663 18.649 124.346 18.8294C124.029 19.01 123.632 19.1003 123.152 19.1003C122.26 19.1003 121.593 18.8155 121.151 18.2465C120.889 17.8923 120.757 17.3371 120.757 16.5803V16.091C120.757 15.7473 120.761 15.2422 120.769 14.5761C120.776 13.9094 120.78 13.4044 120.78 13.0607C120.78 12.9742 120.776 12.8508 120.769 12.6913C120.761 12.5315 120.757 12.4135 120.757 12.3371C121.312 12.3648 121.711 12.3788 121.955 12.3788C122.172 12.3788 122.509 12.3648 122.967 12.3371C122.877 13.1633 122.831 14.4074 122.831 16.07C122.831 16.6394 122.884 17.023 122.989 17.2208C123.199 17.7032 123.553 17.9445 124.051 17.9445C124.621 17.9445 124.982 17.7059 125.133 17.2285C125.285 16.7515 125.361 16.1587 125.361 15.4505C125.361 15.0966 125.348 14.5741 125.321 13.8836C125.295 13.1926 125.278 12.6774 125.271 12.3371C125.766 12.3648 126.125 12.3788 126.35 12.3788C126.578 12.3788 126.94 12.3648 127.435 12.3371C127.39 12.8474 127.367 13.3732 127.367 13.9148C127.367 14.1682 127.364 14.5396 127.356 15.0288C127.348 15.5182 127.345 15.8863 127.345 16.1326V16.8352C127.345 17.4532 127.367 18.0728 127.412 18.6941L127.435 18.9702C127.311 18.9631 127.126 18.951 126.878 18.9337C126.631 18.9163 126.44 18.9077 126.305 18.9077C126.208 18.9077 126.054 18.9163 125.844 18.9337C125.634 18.951 125.473 18.9631 125.361 18.9702L125.411 17.9652Z" fill="white"/>
<path d="M133.606 14.1917C133.422 14.0669 133.17 14.0044 132.847 14.0044C132.116 14.0044 131.656 14.3099 131.465 14.9207C131.405 15.1915 131.375 15.7312 131.375 16.5398C131.375 17.4389 131.405 18.2495 131.465 18.9715C131.352 18.9643 131.172 18.9522 130.925 18.935C130.678 18.9175 130.498 18.909 130.385 18.909C130.258 18.909 130.078 18.9175 129.846 18.935C129.613 18.9522 129.439 18.9643 129.323 18.9715C129.372 18.1902 129.396 17.0242 129.396 15.4725C129.396 14.4939 129.372 13.449 129.323 12.3385C129.758 12.366 130.08 12.3801 130.29 12.3801C130.518 12.3801 130.865 12.366 131.33 12.3385L131.279 14.0461C131.792 12.8244 132.637 12.2134 133.814 12.2134C133.754 12.6369 133.724 12.9701 133.724 13.2131C133.724 13.3 133.728 13.4422 133.735 13.6401C133.743 13.8379 133.746 13.9872 133.746 14.0878L133.606 14.1917Z" fill="white"/>
<path d="M148.501 17.3713L148.175 18.5636C147.369 18.949 146.38 19.1416 145.207 19.1416C144.66 19.1416 144.008 19.0775 143.251 18.949C142.791 18.8551 142.245 18.6279 141.616 18.2668C141.211 18.0066 140.851 17.6787 140.537 17.283C139.907 16.5056 139.592 15.5891 139.592 14.5339C139.592 13.6904 139.722 12.9493 139.983 12.3107C140.243 11.6721 140.688 11.0978 141.318 10.5874C142.371 9.75105 143.781 9.33257 145.55 9.33257C146.678 9.33257 147.692 9.55324 148.591 9.99382C148.546 10.15 148.491 10.3646 148.428 10.637C148.364 10.9094 148.304 11.1637 148.248 11.3998H148.04C147.763 11.032 147.398 10.7367 146.947 10.5146C146.495 10.2924 146.03 10.1813 145.55 10.1813C144.767 10.1813 144.112 10.381 143.586 10.7801C143.059 11.1794 142.672 11.6955 142.425 12.3291C142.178 12.9625 142.054 13.6331 142.054 14.3414C142.054 15.4833 142.346 16.422 142.931 17.1578C143.249 17.5326 143.65 17.8218 144.134 18.0246C144.617 18.2278 145.113 18.3293 145.623 18.3293C146.076 18.3293 146.553 18.233 147.054 18.0405C147.554 17.8479 147.974 17.6039 148.315 17.3088L148.501 17.3713Z" fill="white"/>
<path d="M152.368 18.9701C152.248 18.9629 152.061 18.9508 151.806 18.9336C151.551 18.9163 151.364 18.9076 151.244 18.9076C151.121 18.9076 150.929 18.9163 150.671 18.9336C150.412 18.9508 150.227 18.9629 150.114 18.9701C150.174 18.2585 150.204 17.1859 150.204 15.7525V13.0868C150.204 12.8333 150.2 12.4549 150.193 11.9519C150.186 11.4485 150.182 11.0721 150.182 10.8219C150.182 10.4852 150.167 9.94556 150.137 9.20269C150.137 9.12644 150.128 9.01205 150.109 8.85913C150.09 8.70664 150.077 8.58672 150.069 8.5C150.414 8.55547 150.789 8.58328 151.194 8.58328C151.636 8.58328 152.02 8.55547 152.346 8.5C152.346 8.56236 152.338 8.65952 152.323 8.79167C152.308 8.92353 152.301 9.02565 152.301 9.09863C152.301 9.26171 152.297 9.51004 152.29 9.8433C152.282 10.1765 152.278 10.4247 152.278 10.5877C152.278 10.8481 152.275 11.2281 152.267 11.7281C152.26 12.2277 152.256 12.6009 152.256 12.8473C152.256 15.2249 152.293 17.2659 152.368 18.9701Z" fill="white"/>
<path d="M158.769 17.9652C158.376 18.3607 158.02 18.649 157.704 18.8294C157.387 19.01 156.989 19.1003 156.509 19.1003C155.618 19.1003 154.951 18.8155 154.509 18.2465C154.246 17.8923 154.115 17.3371 154.115 16.5803V16.091C154.115 15.7473 154.119 15.2422 154.127 14.5761C154.134 13.9094 154.138 13.4044 154.138 13.0607C154.138 12.9742 154.134 12.8508 154.127 12.6913C154.119 12.5315 154.115 12.4135 154.115 12.3371C154.67 12.3648 155.069 12.3788 155.312 12.3788C155.529 12.3788 155.867 12.3648 156.324 12.3371C156.234 13.1633 156.189 14.4074 156.189 16.07C156.189 16.6394 156.242 17.023 156.347 17.2208C156.556 17.7032 156.91 17.9445 157.409 17.9445C157.978 17.9445 158.339 17.7059 158.491 17.2285C158.643 16.7515 158.719 16.1587 158.719 15.4505C158.719 15.0966 158.705 14.5741 158.679 13.8836C158.653 13.1926 158.636 12.6774 158.628 12.3371C159.123 12.3648 159.483 12.3788 159.708 12.3788C159.936 12.3788 160.298 12.3648 160.792 12.3371C160.748 12.8474 160.725 13.3732 160.725 13.9148C160.725 14.1682 160.721 14.5396 160.714 15.0288C160.706 15.5182 160.702 15.8863 160.702 16.1326V16.8352C160.702 17.4532 160.725 18.0728 160.77 18.6941L160.792 18.9702C160.669 18.9631 160.483 18.951 160.236 18.9337C159.989 18.9163 159.797 18.9077 159.663 18.9077C159.565 18.9077 159.412 18.9163 159.202 18.9337C158.992 18.951 158.831 18.9631 158.719 18.9702L158.769 17.9652Z" fill="white"/>
<path d="M165.858 18.5014C166.026 18.5014 166.195 18.4563 166.364 18.366C166.532 18.2757 166.664 18.1647 166.758 18.0327C166.881 17.8629 166.989 17.6285 167.083 17.3298C167.218 16.8337 167.286 16.2714 167.286 15.6431C167.286 14.9385 167.206 14.3284 167.047 13.8132C166.887 13.2974 166.523 13.0398 165.954 13.0398C165.017 13.0398 164.549 13.9214 164.549 15.6847C164.549 16.438 164.625 17.0957 164.779 17.6579C164.932 18.2202 165.292 18.5014 165.858 18.5014ZM162.452 18.9906C162.49 18.3382 162.521 17.5347 162.547 16.5802V13.701C162.547 13.4129 162.551 12.9827 162.559 12.4098C162.566 11.8372 162.57 11.4087 162.57 11.1239C162.57 10.1381 162.538 9.26365 162.474 8.5C162.939 8.55547 163.293 8.58328 163.537 8.58328C163.799 8.58328 164.174 8.55547 164.661 8.5L164.638 9.37459C164.638 9.46817 164.635 9.602 164.627 9.77556C164.62 9.94915 164.616 10.0776 164.616 10.1607C164.601 10.5598 164.593 11.1498 164.593 11.9311C164.593 12.0801 164.586 12.3041 164.571 12.6023C164.556 12.901 164.549 13.125 164.549 13.2741C164.747 12.9271 165.024 12.652 165.38 12.4489C165.736 12.2458 166.126 12.1444 166.549 12.1444C167.175 12.1444 167.711 12.3014 168.157 12.6155C168.603 12.9296 168.938 13.3358 169.163 13.8338C169.388 14.332 169.5 14.864 169.5 15.4296C169.5 16.5749 169.215 17.4565 168.646 18.0746C167.99 18.7861 167.147 19.1417 166.117 19.1417C165.712 19.1417 165.322 19.059 164.948 18.8945C164.573 18.7297 164.279 18.4909 164.065 18.1788C163.735 18.366 163.306 18.6367 162.778 18.9906H162.452Z" fill="white"/>
<path d="M111.934 27.3545L111.972 27.1094C112.184 27.0843 112.334 27.0371 112.42 26.968C112.506 26.8988 112.585 26.7373 112.656 26.4834L113.568 23.191C113.598 23.0803 113.621 22.9886 113.638 22.9157C113.654 22.8428 113.663 22.7849 113.663 22.7422C113.663 22.6517 113.62 22.5876 113.535 22.5498C113.45 22.5121 113.27 22.4895 112.994 22.482L113.047 22.2029C114.354 22.1979 115.268 22.1922 115.789 22.1859C116.309 22.1796 116.689 22.1702 116.927 22.1576L117.014 23.4776H116.725C116.675 23.1155 116.549 22.8629 116.349 22.7196C116.149 22.5763 115.813 22.5046 115.342 22.5046C115.119 22.5046 114.977 22.5247 114.917 22.5649C114.856 22.6052 114.8 22.7208 114.749 22.9119L114.339 24.4053L114.67 24.3978C115.001 24.3827 115.234 24.3217 115.367 24.2149C115.5 24.108 115.608 23.9163 115.692 23.6398H115.988L115.49 25.6876H115.186C115.194 25.6272 115.2 25.5663 115.203 25.5047C115.207 25.4431 115.209 25.3821 115.209 25.3218C115.209 25.1232 115.159 24.9824 115.059 24.8994C114.959 24.8164 114.786 24.7749 114.54 24.7749H114.229L113.879 26.0647C113.851 26.1678 113.83 26.2665 113.815 26.3608C113.799 26.455 113.792 26.5286 113.792 26.5814C113.792 26.7348 113.851 26.8441 113.97 26.9095C114.089 26.9749 114.295 27.0076 114.586 27.0076C115.055 27.0076 115.431 26.917 115.715 26.736C115.998 26.555 116.214 26.2697 116.361 25.8799H116.649L116.266 27.347C115.802 27.3394 115.364 27.3338 114.951 27.33C114.538 27.3262 114.149 27.3244 113.784 27.3244C113.384 27.3244 113.034 27.3269 112.734 27.3319C112.433 27.3369 112.167 27.3445 111.934 27.3545Z" fill="white"/>
<path d="M118.183 25.8353C118.016 25.6266 117.9 25.4544 117.836 25.3186C117.771 25.1829 117.739 25.0509 117.739 24.9226C117.739 24.6184 117.855 24.3657 118.086 24.1646C118.318 23.9635 118.613 23.8629 118.97 23.8629C119.228 23.8629 119.443 23.9226 119.614 24.042C119.785 24.1615 119.87 24.3079 119.87 24.4814C119.87 24.5945 119.839 24.6863 119.777 24.7567C119.715 24.8271 119.635 24.8623 119.536 24.8623C119.419 24.8623 119.33 24.834 119.266 24.7774C119.203 24.7209 119.171 24.641 119.171 24.538C119.171 24.5229 119.174 24.499 119.179 24.4663C119.184 24.4336 119.186 24.4085 119.186 24.3909C119.186 24.3054 119.157 24.2375 119.099 24.1872C119.041 24.137 118.961 24.1118 118.86 24.1118C118.743 24.1118 118.646 24.1539 118.567 24.2381C118.488 24.3224 118.449 24.4273 118.449 24.5531C118.449 24.6109 118.461 24.6655 118.485 24.7171C118.509 24.7686 118.559 24.8372 118.635 24.9226L119 25.3299C119.19 25.5386 119.319 25.7171 119.388 25.8655C119.456 26.0138 119.49 26.1735 119.49 26.3444C119.49 26.6763 119.369 26.9447 119.126 27.1496C118.882 27.3545 118.563 27.457 118.168 27.457C117.869 27.457 117.631 27.391 117.454 27.259C117.276 27.127 117.188 26.9504 117.188 26.7291C117.188 26.5984 117.22 26.4965 117.285 26.4236C117.349 26.3507 117.438 26.3143 117.552 26.3143C117.674 26.3143 117.768 26.3469 117.834 26.4123C117.9 26.4777 117.932 26.5707 117.932 26.6914L117.917 26.9064C117.917 26.9994 117.945 27.0729 118.001 27.127C118.057 27.181 118.133 27.208 118.229 27.208C118.376 27.208 118.493 27.1634 118.58 27.0742C118.668 26.9849 118.711 26.8649 118.711 26.714C118.711 26.6336 118.698 26.56 118.671 26.4934C118.645 26.4268 118.591 26.3432 118.51 26.2426L118.183 25.8353Z" fill="white"/>
<path d="M120.525 25.9874L120.985 24.4109H120.354L120.423 24.1017H121.069L121.468 22.8798H122.3L121.965 24.1017H122.68L122.634 24.4109H121.863L121.327 26.4399C121.312 26.4952 121.3 26.5455 121.293 26.5908C121.285 26.636 121.281 26.6762 121.281 26.7114C121.281 26.7818 121.296 26.8397 121.325 26.8849C121.354 26.9302 121.392 26.9528 121.437 26.9528C121.536 26.9528 121.64 26.8931 121.749 26.7737C121.858 26.6542 121.987 26.4587 122.136 26.1872L122.338 26.2928C122.145 26.68 121.94 26.9679 121.722 27.1564C121.504 27.345 121.269 27.4393 121.015 27.4393C120.815 27.4393 120.659 27.3808 120.546 27.2639C120.433 27.147 120.377 26.983 120.377 26.7718C120.377 26.6812 120.39 26.5694 120.415 26.4361C120.44 26.3029 120.477 26.1533 120.525 25.9874Z" fill="white"/>
<path d="M123.814 26.5035C123.814 26.6493 123.85 26.7669 123.922 26.8561C123.995 26.9454 124.089 26.99 124.205 26.99C124.347 26.99 124.48 26.936 124.603 26.8278C124.725 26.7197 124.846 26.55 124.965 26.3187C125.09 26.0824 125.191 25.8196 125.269 25.5305C125.348 25.2414 125.387 24.9962 125.387 24.7951C125.387 24.6442 125.354 24.5254 125.287 24.4387C125.219 24.3519 125.126 24.3086 125.007 24.3086C124.87 24.3086 124.734 24.3739 124.599 24.5047C124.463 24.6354 124.33 24.8303 124.198 25.0893C124.076 25.3231 123.982 25.5638 123.915 25.8115C123.848 26.0591 123.814 26.2898 123.814 26.5035ZM125.038 26.7223C124.853 26.9712 124.658 27.1553 124.454 27.2747C124.25 27.3942 124.022 27.4539 123.768 27.4539C123.502 27.4539 123.284 27.3502 123.113 27.1427C122.942 26.9353 122.856 26.6682 122.856 26.3413C122.856 26.0547 122.905 25.7675 123.003 25.4796C123.1 25.1917 123.236 24.9334 123.411 24.7046C123.616 24.428 123.837 24.2168 124.074 24.071C124.311 23.9252 124.551 23.8523 124.794 23.8523C125.002 23.8523 125.176 23.9032 125.317 24.005C125.458 24.1068 125.551 24.2495 125.596 24.433L125.737 23.9541H126.577L125.995 25.968C125.945 26.144 125.905 26.3005 125.875 26.4375C125.846 26.5745 125.832 26.6732 125.832 26.7336C125.832 26.7939 125.846 26.8411 125.875 26.875C125.905 26.9089 125.945 26.9259 125.995 26.9259C126.064 26.9259 126.136 26.8825 126.212 26.7958C126.288 26.709 126.402 26.5261 126.554 26.2471L126.74 26.3413C126.563 26.726 126.376 27.0101 126.179 27.1937C125.983 27.3772 125.768 27.469 125.535 27.469C125.358 27.469 125.227 27.4281 125.142 27.3464C125.057 27.2647 125.015 27.1384 125.015 26.9674C125.015 26.9271 125.017 26.8876 125.02 26.8486C125.024 26.8096 125.03 26.7675 125.038 26.7223Z" fill="white"/>
<path d="M128.068 26.7578C128.068 26.8961 128.099 27.0017 128.161 27.0746C128.223 27.1475 128.314 27.184 128.433 27.184C128.567 27.184 128.695 27.1236 128.816 27.0029C128.938 26.8822 129.065 26.6899 129.196 26.4259C129.323 26.1619 129.422 25.896 129.493 25.6283C129.564 25.3605 129.599 25.1198 129.599 24.9061C129.599 24.7376 129.565 24.6106 129.497 24.5252C129.428 24.4397 129.328 24.3969 129.196 24.3969C129.07 24.3969 128.958 24.4447 128.86 24.5402C128.763 24.6358 128.659 24.8043 128.55 25.0456C128.391 25.3926 128.271 25.7112 128.189 26.0016C128.108 26.292 128.068 26.5441 128.068 26.7578ZM127.422 25.5246L128.174 22.8695L128.178 22.8545C128.224 22.6961 128.246 22.5917 128.246 22.5414C128.246 22.4233 128.214 22.3435 128.148 22.302C128.082 22.2605 127.951 22.2397 127.756 22.2397H127.661L127.711 21.9795C128.002 21.967 128.288 21.95 128.568 21.9286C128.847 21.9072 129.122 21.8827 129.39 21.855L128.683 24.3253C128.808 24.1719 128.946 24.055 129.098 23.9746C129.25 23.8941 129.409 23.8539 129.576 23.8539C129.883 23.8539 130.123 23.9538 130.297 24.1537C130.47 24.3536 130.557 24.6295 130.557 24.9815C130.557 25.2731 130.505 25.5717 130.401 25.8772C130.297 26.1827 130.158 26.446 129.983 26.6673C129.775 26.9262 129.532 27.1224 129.253 27.2556C128.975 27.3889 128.667 27.4555 128.33 27.4555C127.98 27.4555 127.711 27.37 127.521 27.199C127.331 27.0281 127.236 26.7867 127.236 26.4749C127.236 26.3693 127.248 26.2518 127.272 26.1223C127.296 25.9928 127.346 25.7936 127.422 25.5246Z" fill="white"/>
<path d="M131.344 25.5623L132.013 23.1826C132.063 23.0166 132.098 22.884 132.117 22.7847C132.136 22.6854 132.146 22.5968 132.146 22.5188C132.146 22.4107 132.111 22.3359 132.041 22.2944C131.972 22.2529 131.838 22.2322 131.64 22.2322H131.564L131.618 21.972C131.919 21.9619 132.205 21.9475 132.476 21.9286C132.747 21.9098 133.006 21.8852 133.251 21.855L132.036 26.3354C132.015 26.4134 131.999 26.4863 131.986 26.5541C131.973 26.622 131.967 26.6773 131.967 26.7201C131.967 26.7679 131.982 26.8081 132.011 26.8408C132.04 26.8735 132.077 26.8898 132.123 26.8898C132.234 26.8898 132.408 26.651 132.644 26.1732L132.666 26.1242L132.864 26.2185C132.692 26.6409 132.509 26.9526 132.315 27.1538C132.121 27.3549 131.906 27.4555 131.671 27.4555C131.476 27.4555 131.326 27.4027 131.22 27.2971C131.115 27.1915 131.063 27.0407 131.063 26.8445C131.063 26.7515 131.082 26.6158 131.12 26.4372C131.158 26.2587 131.232 25.9671 131.344 25.5623Z" fill="white"/>
<path d="M133.594 26.1665L133.989 25.0313C134.022 24.9433 134.047 24.8578 134.065 24.7749C134.083 24.6919 134.092 24.6253 134.092 24.575C134.092 24.5197 134.078 24.475 134.052 24.4411C134.025 24.4072 133.992 24.3902 133.951 24.3902C133.873 24.3902 133.785 24.4455 133.687 24.5561C133.589 24.6667 133.467 24.8528 133.32 25.1143L133.119 25.0238C133.314 24.629 133.52 24.3355 133.738 24.1431C133.956 23.9508 134.188 23.8547 134.434 23.8547C134.619 23.8547 134.762 23.9068 134.865 24.0112C134.968 24.1155 135.019 24.2619 135.019 24.4505C135.019 24.5335 135.005 24.6403 134.977 24.7711C134.949 24.9018 134.909 25.0502 134.855 25.2161L134.434 26.4908C134.413 26.5512 134.398 26.6046 134.388 26.6511C134.378 26.6976 134.373 26.7309 134.373 26.751C134.373 26.7963 134.388 26.8346 134.418 26.8661C134.449 26.8975 134.486 26.9132 134.529 26.9132C134.62 26.9132 134.722 26.8497 134.836 26.7227C134.95 26.5958 135.063 26.4204 135.175 26.1967L135.361 26.2947C135.176 26.6844 134.975 26.9754 134.757 27.1678C134.539 27.3601 134.302 27.4563 134.046 27.4563C133.854 27.4563 133.704 27.4066 133.598 27.3073C133.491 27.208 133.438 27.0691 133.438 26.8906C133.438 26.8101 133.452 26.7045 133.48 26.5738C133.508 26.4431 133.546 26.3073 133.594 26.1665ZM134.335 22.595C134.335 22.4542 134.386 22.3329 134.487 22.2311C134.588 22.1293 134.711 22.0784 134.855 22.0784C135 22.0784 135.123 22.1293 135.224 22.2311C135.325 22.3329 135.376 22.4542 135.376 22.595C135.376 22.7409 135.325 22.8653 135.224 22.9684C135.123 23.0715 135 23.123 134.855 23.123C134.709 23.123 134.585 23.0721 134.485 22.9703C134.385 22.8685 134.335 22.7434 134.335 22.595Z" fill="white"/>
<path d="M136.63 25.8353C136.463 25.6266 136.347 25.4544 136.283 25.3186C136.218 25.1829 136.186 25.0509 136.186 24.9226C136.186 24.6184 136.302 24.3657 136.534 24.1646C136.765 23.9635 137.06 23.8629 137.417 23.8629C137.675 23.8629 137.89 23.9226 138.061 24.042C138.232 24.1615 138.318 24.3079 138.318 24.4814C138.318 24.5945 138.287 24.6863 138.224 24.7567C138.162 24.8271 138.082 24.8623 137.983 24.8623C137.867 24.8623 137.777 24.834 137.713 24.7774C137.65 24.7209 137.618 24.641 137.618 24.538C137.618 24.5229 137.621 24.499 137.626 24.4663C137.631 24.4336 137.634 24.4085 137.634 24.3909C137.634 24.3054 137.604 24.2375 137.546 24.1872C137.488 24.137 137.408 24.1118 137.307 24.1118C137.19 24.1118 137.093 24.1539 137.014 24.2381C136.936 24.3224 136.896 24.4273 136.896 24.5531C136.896 24.6109 136.908 24.6655 136.932 24.7171C136.957 24.7686 137.007 24.8372 137.083 24.9226L137.447 25.3299C137.637 25.5386 137.767 25.7171 137.835 25.8655C137.903 26.0138 137.938 26.1735 137.938 26.3444C137.938 26.6763 137.816 26.9447 137.573 27.1496C137.33 27.3545 137.01 27.457 136.615 27.457C136.316 27.457 136.078 27.391 135.901 27.259C135.723 27.127 135.635 26.9504 135.635 26.7291C135.635 26.5984 135.667 26.4965 135.732 26.4236C135.796 26.3507 135.886 26.3143 136 26.3143C136.121 26.3143 136.215 26.3469 136.281 26.4123C136.347 26.4777 136.38 26.5707 136.38 26.6914L136.364 26.9064C136.364 26.9994 136.392 27.0729 136.448 27.127C136.504 27.181 136.58 27.208 136.676 27.208C136.823 27.208 136.94 27.1634 137.027 27.0742C137.115 26.9849 137.159 26.8649 137.159 26.714C137.159 26.6336 137.145 26.56 137.119 26.4934C137.092 26.4268 137.038 26.3432 136.957 26.2426L136.63 25.8353Z" fill="white"/>
<path d="M140.255 24.842C140.463 24.5076 140.673 24.2606 140.886 24.1009C141.099 23.9413 141.327 23.8614 141.57 23.8614C141.788 23.8614 141.959 23.9268 142.083 24.0575C142.207 24.1883 142.269 24.368 142.269 24.5968C142.269 24.7024 142.252 24.8325 142.218 24.9871C142.183 25.1418 142.128 25.341 142.052 25.5849L141.764 26.49C141.736 26.578 141.717 26.639 141.708 26.6729C141.7 26.7069 141.695 26.7301 141.695 26.7427C141.695 26.8005 141.711 26.8489 141.743 26.8879C141.774 26.9269 141.813 26.9464 141.859 26.9464C141.935 26.9464 142.024 26.8797 142.128 26.7465C142.232 26.6132 142.344 26.4221 142.463 26.1732L142.66 26.2788C142.468 26.6836 142.268 26.9809 142.062 27.1708C141.855 27.3606 141.629 27.4555 141.384 27.4555C141.186 27.4555 141.033 27.4077 140.924 27.3122C140.815 27.2166 140.76 27.0809 140.76 26.9049C140.76 26.832 140.77 26.749 140.789 26.656C140.808 26.5629 140.843 26.4372 140.893 26.2788L141.289 24.9966C141.316 24.9061 141.337 24.8325 141.349 24.7759C141.362 24.7194 141.368 24.6748 141.368 24.6421C141.368 24.5667 141.348 24.5082 141.308 24.4667C141.267 24.4252 141.209 24.4045 141.133 24.4045C140.933 24.4045 140.707 24.588 140.456 24.9551C140.206 25.3222 139.988 25.8024 139.803 26.3957L139.506 27.3461H138.613C138.773 26.8935 138.964 26.2499 139.187 25.4152L139.218 25.2908L139.864 22.862C139.874 22.8268 139.885 22.7828 139.898 22.73C139.933 22.5968 139.951 22.5138 139.951 22.4811C139.951 22.3956 139.91 22.334 139.829 22.2963C139.748 22.2586 139.613 22.2397 139.423 22.2397H139.351L139.408 21.9795C139.643 21.9745 139.897 21.9619 140.168 21.9418C140.439 21.9217 140.738 21.8928 141.064 21.855L140.255 24.842Z" fill="white"/>
<path d="M145.514 26.2728L145.715 26.4425C145.492 26.7894 145.253 27.0465 144.997 27.2137C144.741 27.3809 144.46 27.4645 144.153 27.4645C143.791 27.4645 143.507 27.3552 143.3 27.1364C143.094 26.9177 142.991 26.6172 142.991 26.2351C142.991 25.9384 143.052 25.6455 143.173 25.3563C143.295 25.0672 143.471 24.7995 143.701 24.5531C143.906 24.3293 144.129 24.1583 144.37 24.0401C144.611 23.922 144.856 23.8629 145.107 23.8629C145.394 23.8629 145.621 23.9283 145.789 24.059C145.958 24.1897 146.042 24.3645 146.042 24.5832C146.042 24.8849 145.864 25.1596 145.508 25.4072C145.152 25.6549 144.651 25.8517 144.005 25.9975C143.99 26.0955 143.979 26.1703 143.973 26.2219C143.967 26.2734 143.964 26.3168 143.964 26.352C143.964 26.5757 144.007 26.7436 144.093 26.8554C144.179 26.9673 144.308 27.0233 144.48 27.0233C144.647 27.0233 144.817 26.9617 144.988 26.8385C145.159 26.7153 145.334 26.5267 145.514 26.2728ZM144.051 25.7486C144.466 25.5826 144.787 25.3897 145.012 25.1697C145.238 24.9497 145.35 24.7202 145.35 24.4814C145.35 24.3808 145.321 24.2991 145.261 24.2362C145.202 24.1734 145.125 24.142 145.031 24.142C144.826 24.142 144.64 24.2784 144.473 24.5512C144.306 24.824 144.165 25.2231 144.051 25.7486Z" fill="white"/>
<path d="M148.565 26.7918C148.421 27.008 148.245 27.1752 148.039 27.2933C147.832 27.4115 147.607 27.4706 147.364 27.4706C147.073 27.4706 146.834 27.3643 146.648 27.1519C146.462 26.9394 146.369 26.6648 146.369 26.3279C146.369 26.0538 146.419 25.7791 146.519 25.5038C146.619 25.2285 146.766 24.9564 146.961 24.6873C147.164 24.4158 147.375 24.209 147.594 24.0669C147.813 23.9249 148.033 23.8539 148.253 23.8539C148.418 23.8539 148.569 23.8979 148.706 23.9859C148.842 24.0739 148.961 24.2034 149.063 24.3743L149.485 22.8092C149.502 22.7489 149.516 22.6929 149.524 22.6414C149.533 22.5898 149.538 22.544 149.538 22.5037C149.538 22.4032 149.502 22.334 149.431 22.2963C149.36 22.2586 149.196 22.2347 148.937 22.2247L148.998 21.9569C149.3 21.9468 149.587 21.9336 149.859 21.9173C150.131 21.9009 150.393 21.8802 150.644 21.855L149.644 25.5623C149.573 25.8263 149.516 26.0746 149.471 26.3071C149.427 26.5397 149.405 26.6874 149.405 26.7502C149.405 26.8005 149.418 26.8427 149.445 26.8766C149.471 26.9105 149.505 26.9275 149.545 26.9275C149.619 26.9275 149.697 26.876 149.781 26.7729C149.865 26.6698 149.965 26.5001 150.081 26.2637L150.267 26.3807C150.113 26.7226 149.93 26.9872 149.72 27.1745C149.51 27.3618 149.291 27.4555 149.063 27.4555C148.891 27.4555 148.763 27.4121 148.681 27.3254C148.599 27.2386 148.557 27.106 148.557 26.9275C148.557 26.8898 148.558 26.8615 148.559 26.8427C148.561 26.8238 148.562 26.8068 148.565 26.7918ZM147.341 26.4674C147.341 26.651 147.375 26.7854 147.442 26.8709C147.509 26.9564 147.614 26.9991 147.756 26.9991C147.9 26.9991 148.036 26.9432 148.162 26.8313C148.289 26.7195 148.404 26.5542 148.508 26.3354C148.619 26.0941 148.709 25.8382 148.776 25.5679C148.843 25.2976 148.877 25.0557 148.877 24.842C148.877 24.6635 148.845 24.5302 148.782 24.4422C148.718 24.3542 148.622 24.3102 148.493 24.3102C148.366 24.3102 148.237 24.3668 148.105 24.4799C147.974 24.5931 147.852 24.7527 147.74 24.9589C147.624 25.1726 147.528 25.4209 147.454 25.7037C147.379 25.9866 147.341 26.2411 147.341 26.4674Z" fill="white"/>
<path d="M152.502 27.3454V27.236L154.835 24.9355C155.068 24.7042 155.243 24.4766 155.36 24.2529C155.476 24.0291 155.535 23.8091 155.535 23.5929C155.535 23.3289 155.459 23.1196 155.307 22.965C155.155 22.8103 154.948 22.733 154.687 22.733C154.436 22.733 154.236 22.8116 154.087 22.9687C153.937 23.1259 153.863 23.3364 153.863 23.6004C153.863 23.6557 153.866 23.7186 153.874 23.789C153.882 23.8594 153.885 23.9021 153.885 23.9172C153.885 23.96 153.874 23.9939 153.851 24.019C153.828 24.0442 153.795 24.0567 153.752 24.0567C153.681 24.0567 153.62 23.9895 153.568 23.855C153.516 23.7205 153.49 23.5527 153.49 23.3515C153.49 22.9568 153.628 22.6419 153.904 22.4068C154.18 22.1717 154.55 22.0542 155.014 22.0542C155.457 22.0542 155.813 22.1761 156.082 22.42C156.35 22.6639 156.484 22.9819 156.484 23.3742C156.484 23.6407 156.428 23.8877 156.315 24.1152C156.203 24.3428 156.029 24.5621 155.793 24.7733C155.659 24.8915 155.448 25.0618 155.162 25.2843C154.876 25.5068 154.663 25.6784 154.524 25.7991L153.676 26.5647H154.759C155.172 26.5647 155.44 26.5188 155.561 26.4271C155.683 26.3353 155.775 26.1498 155.839 25.8708H156.165C156.064 26.1498 155.973 26.4107 155.892 26.6533C155.811 26.8959 155.738 27.1266 155.675 27.3454H152.502Z" fill="white"/>
<path d="M158.119 26.6047C158.119 26.8008 158.159 26.9504 158.239 27.0535C158.319 27.1566 158.435 27.2081 158.587 27.2081C158.736 27.2081 158.873 27.1271 158.997 26.9649C159.121 26.8027 159.262 26.5104 159.419 26.088C159.634 25.5123 159.799 24.9479 159.915 24.3947C160.03 23.8416 160.087 23.345 160.087 22.905C160.087 22.714 160.049 22.57 159.972 22.4732C159.894 22.3764 159.78 22.328 159.628 22.328C159.466 22.328 159.319 22.4173 159.189 22.5958C159.058 22.7743 158.907 23.1049 158.735 23.5877C158.542 24.1156 158.391 24.6556 158.283 25.2074C158.174 25.7593 158.119 26.2251 158.119 26.6047ZM158.602 27.4872C158.158 27.4872 157.825 27.3276 157.6 27.0083C157.376 26.689 157.264 26.215 157.264 25.5865C157.264 25.1188 157.344 24.6537 157.504 24.1911C157.663 23.7284 157.894 23.2948 158.195 22.89C158.403 22.6184 158.636 22.4079 158.894 22.2582C159.153 22.1087 159.414 22.0339 159.677 22.0339C160.082 22.0339 160.4 22.1967 160.631 22.5223C160.861 22.8478 160.977 23.2998 160.977 23.878C160.977 24.2175 160.936 24.5537 160.853 24.8869C160.771 25.22 160.649 25.5563 160.486 25.8957C160.226 26.4212 159.937 26.8178 159.62 27.0855C159.303 27.3533 158.964 27.4872 158.602 27.4872Z" fill="white"/>
<path d="M162.389 26.6047C162.389 26.8008 162.429 26.9504 162.509 27.0535C162.589 27.1566 162.705 27.2081 162.857 27.2081C163.006 27.2081 163.143 27.1271 163.267 26.9649C163.391 26.8027 163.532 26.5104 163.689 26.088C163.904 25.5123 164.07 24.9479 164.185 24.3947C164.3 23.8416 164.358 23.345 164.358 22.905C164.358 22.714 164.319 22.57 164.242 22.4732C164.165 22.3764 164.05 22.328 163.898 22.328C163.736 22.328 163.59 22.4173 163.459 22.5958C163.329 22.7743 163.177 23.1049 163.005 23.5877C162.812 24.1156 162.662 24.6556 162.553 25.2074C162.444 25.7593 162.389 26.2251 162.389 26.6047ZM162.872 27.4872C162.429 27.4872 162.095 27.3276 161.871 27.0083C161.647 26.689 161.534 26.215 161.534 25.5865C161.534 25.1188 161.614 24.6537 161.774 24.1911C161.933 23.7284 162.164 23.2948 162.465 22.89C162.673 22.6184 162.906 22.4079 163.165 22.2582C163.423 22.1087 163.684 22.0339 163.947 22.0339C164.353 22.0339 164.671 22.1967 164.901 22.5223C165.132 22.8478 165.247 23.2998 165.247 23.878C165.247 24.2175 165.206 24.5537 165.123 24.8869C165.041 25.22 164.919 25.5563 164.757 25.8957C164.496 26.4212 164.207 26.8178 163.89 27.0855C163.574 27.3533 163.234 27.4872 162.872 27.4872Z" fill="white"/>
<path d="M165.732 27.5L165.663 27.2435C166.162 27.0851 166.589 26.8733 166.944 26.6081C167.299 26.3428 167.6 26.009 167.848 25.6068C168.066 25.2598 168.243 24.8519 168.378 24.383C168.514 23.9141 168.582 23.481 168.582 23.0838C168.582 22.8575 168.538 22.6821 168.451 22.5577C168.363 22.4332 168.243 22.371 168.091 22.371C167.967 22.371 167.853 22.4081 167.749 22.4822C167.646 22.5564 167.552 22.6664 167.468 22.8122C167.342 23.036 167.24 23.2943 167.162 23.5872C167.085 23.8801 167.046 24.1523 167.046 24.4037C167.046 24.532 167.076 24.6319 167.136 24.7035C167.195 24.7752 167.277 24.811 167.381 24.811C167.447 24.811 167.509 24.7871 167.567 24.7394C167.625 24.6916 167.686 24.6124 167.749 24.5018C167.752 24.4968 167.758 24.4855 167.768 24.4678C167.817 24.3824 167.875 24.3396 167.943 24.3396C167.974 24.3396 167.998 24.3497 168.015 24.3698C168.033 24.3899 168.042 24.4163 168.042 24.449C168.042 24.6225 167.941 24.801 167.738 24.9845C167.535 25.168 167.31 25.2598 167.062 25.2598C166.76 25.2598 166.518 25.1605 166.334 24.9619C166.15 24.7633 166.058 24.4968 166.058 24.1623C166.058 23.8808 166.124 23.5948 166.254 23.3044C166.385 23.014 166.561 22.7619 166.784 22.5482C166.949 22.3924 167.137 22.271 167.349 22.1843C167.56 22.0976 167.776 22.0542 167.996 22.0542C168.44 22.0542 168.8 22.2044 169.076 22.5049C169.352 22.8053 169.49 23.1931 169.49 23.6683C169.49 24.5483 169.148 25.3403 168.464 26.0442C167.78 26.7482 166.869 27.2335 165.732 27.5Z" fill="white"/>
</svg>
