<svg width="86" height="18" viewBox="0 0 86 18" fill="none" xmlns="http://www.w3.org/2000/svg">
<g clip-path="url(#clip0_1_265)">
<mask id="mask0_1_265" style="mask-type:luminance" maskUnits="userSpaceOnUse" x="0" y="0" width="86" height="18">
<path d="M85.9546 0.513611H0.0454102V17.4529H85.9546V0.513611Z" fill="white"/>
</mask>
<g mask="url(#mask0_1_265)">
<path d="M14.9044 13.2849V4.68166H11.7067V5.2463H12.918V10.0093C12.9388 10.8202 12.7162 11.6187 12.279 12.3013C12.0723 12.6155 11.79 12.8724 11.4582 13.0486C11.1264 13.2247 10.7557 13.3143 10.3803 13.3092C10.2047 13.3224 10.0282 13.3003 9.8612 13.244C9.69422 13.1876 9.54024 13.0983 9.40831 12.9813C9.01464 12.5867 8.96316 11.8945 8.96316 11.339V4.68166H5.98345V5.2463H6.97971V11.4149C6.97971 12.3256 7.19169 12.9692 7.62471 13.4063C8.05774 13.8434 8.76936 14.0772 9.74443 14.0772C11.204 14.0772 12.3275 13.4063 12.927 12.192V13.8526H16.2217V13.2849H14.9044ZM20.8518 13.2909V0.516647H17.7418V1.07825H18.8683V13.2909H17.7418V13.8526H22.163V13.2909H20.8518ZM26.8748 13.2909V4.68166H23.7649V5.24327H24.8913V13.2909H23.7649V13.8526H28.186V13.2909H26.8748ZM38.397 13.2849V4.68166H35.1932V5.2463H36.4045V10.0093C36.4254 10.8202 36.2028 11.6187 35.7655 12.3013C35.5596 12.6156 35.278 12.8728 34.9467 13.049C34.6151 13.2251 34.2448 13.3146 33.8699 13.3092C33.6942 13.3224 33.5177 13.3003 33.3506 13.244C33.1837 13.1876 33.0299 13.0983 32.8978 12.9813C32.5012 12.5867 32.4527 11.8945 32.4527 11.339V4.68166H29.4699V5.2463H30.4693V11.4149C30.4693 12.3256 30.6782 12.9692 31.1143 13.4063C31.5503 13.8434 32.2589 14.0772 33.234 14.0772C34.6935 14.0772 35.817 13.4063 36.4135 12.192V13.8526H39.7082V13.2849H38.397ZM65.7777 10.2492C65.7777 11.4027 65.493 12.2497 64.9056 12.8417C64.2152 13.5308 63.1281 13.8526 61.4807 13.8526H55.4244V13.2849H56.6962V1.07825H55.4244V0.516647H61.3263C62.583 0.516647 63.4702 0.792896 64.0516 1.36057C64.5483 1.86147 64.7905 2.57486 64.7905 3.58577C64.7905 5.14916 63.8821 6.15398 62.0652 6.57594C63.9366 6.82487 65.7777 7.48969 65.7777 10.2492ZM62.692 7.51702C62.4549 7.30181 62.1766 7.13703 61.8744 7.0327C61.5719 6.92833 61.2515 6.88656 60.9326 6.90987H58.9159V13.2849H60.6298C63.125 13.2849 63.4612 11.6729 63.4612 10.0943C63.4733 8.89219 63.2189 8.0513 62.7011 7.53219L62.692 7.51702ZM61.8532 1.5154C61.6821 1.35688 61.4804 1.23501 61.2606 1.15724C61.041 1.07947 60.8079 1.04743 60.5753 1.06307H58.9098V6.2238H60.4239C61.9198 6.2238 62.477 5.56505 62.477 3.79523C62.474 3.09397 62.4104 2.08307 61.8623 1.53057L61.8532 1.5154ZM85.4608 6.39987C84.916 6.27914 84.3543 6.25552 83.8014 6.33005C82.145 6.53952 81.3304 8.33666 81.3304 10.0883V13.2849H82.5416V13.8465H78.1387V13.2849H79.35V5.23112H78.0388V4.66952H81.3334V7.7963C82.2994 5.72594 83.3956 4.61184 84.516 4.63005C84.9848 4.63451 85.4502 4.70919 85.8969 4.85166L85.4608 6.39987ZM73.4269 8.44594V10.1581C73.4269 11.4118 72.8485 13.4033 71.3071 13.4033C71.179 13.4095 71.0513 13.3893 70.9313 13.3439C70.8117 13.2985 70.7024 13.2288 70.6107 13.1392C70.3078 12.8356 70.1564 12.2527 70.1564 11.3177C70.1564 9.69666 70.5107 9.31719 71.5797 8.99541L73.4269 8.44594ZM75.5859 13.0693C75.4012 12.8842 75.3195 12.5259 75.3195 11.9158V7.21344C75.3195 6.30273 75.1166 5.69559 74.6866 5.26148C74.1476 4.72112 73.233 4.46005 71.8885 4.46005C70.8923 4.46005 68.5576 4.68166 68.5576 6.74898C68.5509 6.84382 68.5636 6.93899 68.5948 7.02875C68.626 7.11852 68.6754 7.20097 68.7393 7.27112C68.8389 7.35245 68.9536 7.41313 69.0769 7.44962C69.1998 7.48608 69.3291 7.49765 69.4569 7.48362C69.5887 7.49786 69.7222 7.48529 69.8491 7.44671C69.976 7.40812 70.0941 7.34425 70.1958 7.25898C70.2848 7.15003 70.3514 7.02438 70.3914 6.88938C70.4314 6.75438 70.4441 6.61274 70.429 6.47273C70.3923 6.07253 70.5153 5.67406 70.7712 5.36469C71.0073 5.12791 71.3768 5.02166 71.9309 5.02166C72.1051 5.00745 72.2801 5.02891 72.4457 5.08477C72.6114 5.1406 72.7637 5.22964 72.8939 5.34648C73.2724 5.72291 73.3239 6.4363 73.3239 7.08291V7.82059C72.6683 8.04608 72.0024 8.23958 71.3283 8.40041L70.22 8.66148C68.5515 9.05916 67.8369 9.87576 67.8369 11.339C67.8369 12.3317 68.0428 13.0026 68.4879 13.4458C68.9331 13.889 69.5387 14.0742 70.4169 14.0742C71.7614 14.0742 72.585 13.6734 73.2421 12.7081C73.5661 13.7645 74.3081 13.8495 75.3104 13.8495H76.7639V13.2849C76.131 13.2849 75.7979 13.2849 75.5859 13.0693ZM47.1878 7.12541V5.04594C46.0673 4.68469 45.3951 4.46005 44.4624 4.46005C42.9665 4.46005 41.4585 5.32827 41.4585 7.26809C41.4585 9.00755 42.9271 9.55398 44.2262 10.0367C45.3466 10.4556 46.4065 10.8502 46.4065 11.934C46.4065 12.9601 45.3951 13.5126 44.4443 13.5126C43.0543 13.5126 42.1065 12.6383 41.9006 11.0597H41.2011V13.4883C42.2264 13.8745 43.3126 14.0739 44.4079 14.0772C45.4393 14.1022 46.4407 13.727 47.2029 13.0299C47.444 12.793 47.6344 12.5093 47.7625 12.1961C47.8906 11.8829 47.9536 11.5469 47.9478 11.2084C47.9478 9.03791 46.3369 8.4763 44.9197 8.01184C43.8326 7.64452 42.8938 7.32577 42.8938 6.35737C42.8857 6.20632 42.9084 6.05523 42.9604 5.91328C43.0125 5.7713 43.0928 5.64146 43.1966 5.53166C43.5188 5.25 43.9385 5.10614 44.3655 5.13094C44.8594 5.10848 45.3457 5.25987 45.7403 5.55898C46.1697 5.98234 46.4586 6.52831 46.567 7.12237L47.1878 7.12541ZM25.8846 3.012C26.115 3.0114 26.3401 2.94235 26.5314 2.81356C26.7228 2.68477 26.8718 2.50203 26.9595 2.28842C27.0473 2.0748 27.0699 1.8399 27.0246 1.61339C26.9793 1.38687 26.868 1.17891 26.7049 1.01575C26.5417 0.852606 26.334 0.741595 26.1079 0.696744C25.8818 0.651893 25.6476 0.675214 25.4347 0.763763C25.2219 0.852311 25.04 1.00211 24.912 1.19425C24.784 1.38638 24.7157 1.61223 24.7157 1.84325C24.7157 1.99699 24.746 2.14922 24.8047 2.29122C24.8635 2.43321 24.9497 2.56219 25.0582 2.67076C25.1668 2.77933 25.2957 2.86535 25.4375 2.92391C25.5793 2.98247 25.7312 3.0124 25.8846 3.012ZM70.217 3.012C70.4474 3.012 70.673 2.94346 70.8647 2.81503C71.0564 2.68661 71.2057 2.50408 71.2941 2.29051C71.3822 2.07695 71.4053 1.84196 71.3604 1.61524C71.3153 1.38853 71.2045 1.18027 71.0413 1.01682C70.8783 0.853371 70.6706 0.742057 70.4444 0.696961C70.2182 0.651864 69.9838 0.67501 69.771 0.763469C69.5578 0.851929 69.3758 1.00173 69.2477 1.19393C69.1196 1.38613 69.0511 1.6121 69.0511 1.84325C69.0511 2.15323 69.1741 2.4505 69.3927 2.66968C69.6114 2.88887 69.9078 3.012 70.217 3.012ZM73.9114 3.012C74.1418 3.0114 74.3668 2.94235 74.5582 2.81356C74.7496 2.68477 74.8985 2.50203 74.9864 2.28842C75.0742 2.0748 75.0966 1.8399 75.0515 1.61339C75.006 1.38687 74.8949 1.17891 74.7317 1.01575C74.5685 0.852606 74.3607 0.741595 74.1345 0.696744C73.9086 0.651893 73.6743 0.675214 73.4614 0.763763C73.2485 0.852311 73.0668 1.00211 72.9387 1.19425C72.8106 1.38638 72.7425 1.61223 72.7425 1.84325C72.7425 1.99699 72.7728 2.14922 72.8315 2.29122C72.8903 2.43321 72.9766 2.56219 73.085 2.67076C73.1937 2.77933 73.3224 2.86535 73.4644 2.92391C73.6061 2.98247 73.7578 3.0124 73.9114 3.012ZM0.251129 0.513611V1.07825H1.4624V13.8647C1.40486 15.5495 1.19592 16.5756 0.299579 16.8336L0.0512695 16.8974V17.4317C0.417671 17.4439 0.784298 17.4154 1.14444 17.3467C2.73725 17.0188 3.63056 15.8015 3.6669 13.9102V0.513611H0.251129Z" fill="black"/>
</g>
</g>
<defs>
<clipPath id="clip0_1_265">
<rect width="86" height="17" fill="white" transform="translate(0 0.509644)"/>
</clipPath>
</defs>
</svg>
