<svg width="97" height="26" viewBox="0 0 97 26" fill="none" xmlns="http://www.w3.org/2000/svg">
<path d="M87.8054 2.85559L87.7743 2.86186L83.9056 3.15663L83.8745 3.1629V3.18799V4.18518V4.21654H83.9056H84.397C84.5523 4.21654 84.6631 4.25191 84.7391 4.34824C84.8151 4.44457 84.8572 4.61139 84.8572 4.88133V21.0873C84.8572 21.3086 84.8352 21.4435 84.7702 21.52C84.7051 21.5966 84.591 21.6266 84.397 21.6266H84.2477H84.2166V21.658V22.6552H84.2477V22.6865H84.285H88.4149H88.446V22.6552V21.658V21.6266H88.4149H88.1474C87.9897 21.6266 87.9033 21.6087 87.8613 21.5639C87.8194 21.5191 87.8054 21.4354 87.8054 21.288V11.7676C87.8054 11.1602 87.8577 10.6236 88.0355 10.2436C88.2133 9.86361 88.5097 9.63524 89.0306 9.63524C89.2183 9.63524 89.364 9.66614 89.4722 9.72304C89.5804 9.77995 89.6539 9.86252 89.7086 9.98018C89.818 10.2155 89.8392 10.5874 89.8392 11.0965V21.2127C89.8392 21.3941 89.7952 21.4939 89.7272 21.5514C89.6592 21.6088 89.5614 21.6266 89.4287 21.6266H89.155H89.1239V21.658V22.6552V22.6865H89.155H93.4217H93.4528V22.6552V21.658V21.6266H93.4217H93.1978C93.0283 21.6266 92.9267 21.6032 92.8682 21.5388C92.8097 21.4745 92.7873 21.3589 92.7873 21.1625V10.5509C92.7873 9.65226 92.6259 8.94962 92.24 8.47499C91.854 8.00035 91.2423 7.76002 90.3616 7.76002C89.2462 7.76002 88.4416 8.40648 87.8054 9.38438V2.89322V2.85559ZM87.7432 2.92458V9.47845V9.59134L87.8054 9.49726C88.4431 8.48333 89.24 7.82274 90.3616 7.82274C91.2307 7.82274 91.8182 8.06136 92.1902 8.51889C92.5622 8.97642 92.7251 9.65997 92.7251 10.5509V21.1625C92.7251 21.3642 92.7476 21.4979 92.8246 21.5827C92.9017 21.6675 93.0222 21.6893 93.1978 21.6893H93.3906V22.6238H89.1861V21.6893H89.4287C89.5672 21.6893 89.6844 21.6746 89.7708 21.6015C89.8572 21.5285 89.9014 21.4041 89.9014 21.2127V11.0965C89.9014 10.5858 89.8834 10.2106 89.7645 9.95509C89.7052 9.82736 89.6239 9.73 89.5033 9.6666C89.3828 9.6032 89.2248 9.57252 89.0306 9.57252C88.491 9.57252 88.1651 9.81554 87.9795 10.2122C87.7939 10.6089 87.7432 11.1568 87.7432 11.7676V21.288C87.7432 21.4389 87.7551 21.5408 87.8178 21.6078C87.8805 21.6748 87.9848 21.6893 88.1474 21.6893H88.3838V22.6238H84.285V21.6893H84.397C84.5976 21.6893 84.737 21.6614 84.8199 21.5639C84.9028 21.4664 84.9257 21.3133 84.9257 21.0873V4.88133C84.9257 4.60459 84.8793 4.42531 84.7888 4.31061C84.6983 4.19591 84.5621 4.15382 84.397 4.15382H83.9367V3.22562L87.7432 2.92458ZM67.4409 21.1885C66.6512 21.1885 66.5781 20.6657 66.5781 18.8011C66.5781 15.5203 66.7999 15.0728 68.5257 14.1026V19.3728C68.5257 20.418 68.3531 21.1885 67.4409 21.1885ZM20.6677 13.9052C20.741 9.47989 20.8896 9.00745 21.7771 9.00745C22.7633 9.00745 22.664 9.57923 22.664 13.9052H20.6677ZM21.7771 22.9038C24.1933 22.9038 25.4259 21.859 25.1294 18.081H24.0946C24.1678 21.2626 23.6502 21.5614 22.492 21.5614C20.7909 21.5614 20.6675 20.6657 20.6675 15.3961C20.6675 15.2968 20.6675 15.1476 20.6675 14.9488H25.3757C25.3757 9.6292 24.3649 7.79025 21.7769 7.79025C19.3848 7.79025 17.5364 10.3501 17.5364 15.4459C17.5366 21.0386 19.2379 22.9038 21.7771 22.9038ZM39.346 22.9038C41.4655 22.9038 42.6489 21.4612 42.6489 19.2735C42.6489 16.987 41.8607 15.9934 40.2329 14.1779C38.6805 12.4626 38.0887 11.8166 38.0887 10.3999C38.0887 9.57923 38.3598 9.05743 39.2966 9.05743C40.2329 9.05743 40.7758 9.43032 40.9478 10.8715L41.1203 12.2643H42.2052V8.03871H41.3178C41.2692 8.56031 41.2692 8.85834 41.1205 8.78328C40.8994 8.5852 40.0366 7.79005 38.8038 7.79005C37.1027 7.79005 35.5742 8.88323 35.5742 11.2946C35.5742 13.5566 36.3385 14.4512 37.9902 16.3414C39.4202 17.9814 40.1344 18.7023 40.1344 20.0439C40.1344 21.113 39.8392 21.7097 38.7298 21.7097C37.7924 21.7097 37.176 21.2624 36.8808 19.3726L36.6836 18.0806H35.5989V22.655H36.511C36.6095 22.1819 36.8561 21.7344 37.0781 21.8835C37.3981 22.2568 38.1379 22.9038 39.346 22.9038ZM59.5932 22.9038C62.0094 22.9038 63.242 21.859 62.9455 18.081H61.9107C61.9848 21.2626 61.4671 21.5614 60.3081 21.5614C58.607 21.5614 58.4838 20.6657 58.4838 15.3961C58.4838 15.2968 58.4838 15.1476 58.4838 14.9488H63.1919C63.1919 9.6292 62.182 7.79025 59.5932 7.79025C57.2017 7.79025 55.3527 10.3501 55.3527 15.4459C55.3527 21.0386 57.0546 22.9038 59.5932 22.9038ZM66.2084 22.9038C67.6631 22.9038 68.3778 21.859 68.7724 21.1132C69.0188 22.2566 69.3387 22.9038 70.8431 22.9038C72.5683 22.9038 72.9626 21.859 72.9626 19.8212H72.0759C72.0759 21.288 72.0258 21.4372 71.7061 21.4372C71.4096 21.4372 71.4096 21.3129 71.4096 20.4917V11.4439C71.4096 8.53482 69.8572 7.79025 67.8109 7.79025C65.1975 7.79025 63.7183 9.6292 64.7047 11.4687C65.1236 12.239 65.9373 12.4628 66.6269 11.9412C67.3426 11.3947 67.4658 10.2503 65.6415 9.33137C65.8879 9.1072 66.6028 8.90811 67.096 8.90811C68.526 8.90811 68.5261 9.43092 68.5261 10.7733C68.5261 10.9718 68.5261 12.9358 68.5261 13.3083C64.976 14.5271 63.7434 15.1976 63.7434 19.0515C63.743 22.0336 64.8769 22.9038 66.2084 22.9038ZM25.36 22.6554H29.8469V21.6609H29.5751C29.2546 21.6609 29.2053 21.5857 29.2053 21.288V11.7674C29.2053 10.5492 29.4025 9.60431 30.4625 9.60431C31.2268 9.60431 31.3014 10.0767 31.3014 11.0959V21.2128C31.3014 21.5857 31.1281 21.6609 30.857 21.6609H30.5859V22.6554H34.8503V21.6609H34.6292C34.2841 21.6609 34.1856 21.5614 34.1856 21.1636V10.5492C34.1856 8.759 33.5445 7.79005 31.7948 7.79005C30.66 7.79005 29.7972 8.46097 29.1561 9.47968V7.86391L25.3355 8.13725V9.13168H25.8287C26.1492 9.13168 26.3219 9.2812 26.3219 9.82768V21.0884C26.3219 21.5365 26.2224 21.6609 25.8287 21.6609H25.3602V22.6554H25.36ZM78.6658 19.6466C78.6658 22.0089 78.9862 22.9038 81.3037 22.9038C82.807 22.9038 83.8179 22.2566 83.8179 20.0947V17.9816H82.7584V20.3185C82.7584 21.1887 82.6352 21.5367 82.142 21.5367C81.6488 21.5367 81.5503 21.1887 81.5503 20.418V9.13188H83.7685V8.03871H81.575V4.18521H80.5643C79.4303 7.64034 78.9124 8.03891 77.9756 8.03891H77.6798V9.1072H78.666L78.6658 19.6466ZM3.35716 22.6554H7.204V21.6609H6.61228C6.06913 21.6609 5.82333 21.0137 5.82333 20.1188V7.66522L8.92898 22.6297H10.4082L13.5144 7.61565V20.3673C13.5144 21.2624 13.3665 21.6607 12.8733 21.6607H12.1831V22.6552H17.7295V21.6607H17.3103C16.8173 21.6607 16.67 21.2624 16.67 20.3673V5.47787C16.67 4.58318 16.8173 4.18521 17.3103 4.18521H17.7295V3.19078H13.0955L10.6792 15.4716L8.11535 3.19078H3.35716V4.18521H3.75243C4.24563 4.18521 4.54138 4.78187 4.54138 5.70205V20.119C4.54138 21.0139 4.24563 21.6611 3.75243 21.6611H3.35716V22.6554ZM43.0933 22.6554H48.689V21.6609H48.122C47.6035 21.6609 47.4564 21.4861 47.4564 20.6161V13.4082H51.2037V20.6161C51.2037 21.4861 51.0304 21.6609 50.5374 21.6609H49.971V22.6554H55.542V21.6609H55.0488C54.5309 21.6609 54.3838 21.4861 54.3838 20.6161V5.22961C54.3838 4.33392 54.5309 4.18521 55.0488 4.18521H55.542V3.19078H49.971V4.18521H50.5374C51.0304 4.18521 51.2037 4.33392 51.2037 5.22961V12.239H47.4564V5.22961C47.4564 4.33392 47.6035 4.18521 48.122 4.18521H48.689V3.19078H43.0933V4.18521H43.6104C44.1281 4.18521 44.2759 4.33392 44.2759 5.22961V21.1134C44.2759 21.5367 44.1281 21.6611 43.6104 21.6611H43.0933V22.6554ZM73.292 22.6554H77.8522V21.6609H77.2604C76.94 21.6609 76.8168 21.5367 76.8168 21.1381V2.89275L72.9469 3.19058V4.18501H73.4886C73.8099 4.18501 73.9331 4.28435 73.9331 4.68192V21.1885C73.9331 21.5612 73.8829 21.6609 73.5386 21.6609H73.2922L73.292 22.6554ZM84.2497 22.6554H88.4162V21.6609H88.1443C87.8247 21.6609 87.7747 21.5857 87.7747 21.288V11.7674C87.7747 10.5492 87.972 9.60431 89.0326 9.60431C89.7963 9.60431 89.8701 10.0767 89.8701 11.0959V21.2128C89.8701 21.5857 89.6978 21.6609 89.4265 21.6609H89.1562V22.6554H93.4198V21.6609H93.1981C92.8536 21.6609 92.7549 21.5614 92.7549 21.1636V10.5492C92.7549 8.759 92.1138 7.79005 90.3633 7.79005C89.2295 7.79005 88.4164 8.46097 87.7747 9.47968V2.89275L83.904 3.19058V4.18501H84.3978C84.7175 4.18501 84.891 4.33372 84.891 4.88101V21.0884C84.891 21.5365 84.7925 21.6609 84.3978 21.6609H84.2499V22.6554H84.2497ZM34.925 8.53482C37.3895 6.67139 37.8827 5.27899 37.0697 4.01101C36.6261 3.31501 35.6152 2.86786 34.8756 3.48921C33.9873 4.23498 34.21 5.55193 35.8618 6.27281C35.5652 6.62122 34.8756 7.31722 34.3086 7.86391L34.925 8.53482ZM58.4836 13.9052C58.5583 9.47989 58.7056 9.00745 59.593 9.00745C60.5792 9.00745 60.4805 9.57923 60.4805 13.9052H58.4836ZM31.7973 7.76002C30.6837 7.76002 29.8299 8.40351 29.1913 9.3781V7.86664V7.82901L29.154 7.83528L25.3351 8.10496H25.304V8.13632V9.13351V9.16487H25.3351H25.8265C25.9815 9.16487 26.0925 9.20025 26.1685 9.29657C26.2446 9.39289 26.2929 9.55983 26.2929 9.82966V21.0873C26.2929 21.3086 26.2648 21.4434 26.1996 21.52C26.1345 21.5966 26.0201 21.6266 25.8265 21.6266H25.36H25.3289V21.658V22.6552V22.6865H25.36H29.8506H29.8817V22.6552V21.658V21.6266H29.8506H29.5769C29.4191 21.6266 29.3328 21.6087 29.2908 21.5639C29.2488 21.5191 29.2348 21.4354 29.2348 21.288V11.7676C29.2348 11.1602 29.2871 10.6236 29.465 10.2436C29.6429 9.8636 29.9394 9.63524 30.4601 9.63524C30.6479 9.63524 30.7935 9.66614 30.9017 9.72304C31.0099 9.77995 31.0834 9.86252 31.138 9.98018C31.2474 10.2155 31.2687 10.5874 31.2687 11.0965V21.2127C31.2687 21.3942 31.2307 21.4939 31.1629 21.5514C31.0951 21.6088 30.9908 21.6266 30.8582 21.6266H30.5845H30.5534V21.658V22.6552V22.6865H30.5845H34.8512H34.8823V22.6552V21.658V21.6266H34.8512H34.6273C34.4577 21.6266 34.3623 21.6032 34.3039 21.5388C34.2454 21.4745 34.2168 21.3589 34.2168 21.1625V10.5509C34.2168 9.65226 34.0554 8.94962 33.6694 8.47499C33.2835 8.00035 32.678 7.76002 31.7973 7.76002ZM31.7973 7.82274C32.6663 7.82274 33.2477 8.06136 33.6197 8.51889C33.9917 8.97642 34.1546 9.65997 34.1546 10.5509V21.1625C34.1546 21.3642 34.177 21.4979 34.2541 21.5827C34.3311 21.6675 34.4517 21.6893 34.6273 21.6893H34.8201V22.6238H30.6156V21.6893H30.8582C30.9966 21.6893 31.114 21.6746 31.2002 21.6015C31.2865 21.5285 31.3309 21.4041 31.3309 21.2127V11.0965C31.3309 10.5858 31.3189 10.2106 31.2002 9.95509C31.1409 9.82736 31.0534 9.73 30.9328 9.6666C30.8122 9.6032 30.6544 9.57252 30.4601 9.57252C29.9207 9.57252 29.5947 9.81554 29.409 10.2122C29.2233 10.6089 29.1726 11.1568 29.1726 11.7676V21.288C29.1726 21.439 29.1845 21.5408 29.2473 21.6078C29.3101 21.6748 29.4143 21.6893 29.5769 21.6893H29.8133V22.6238H25.3911V21.6893H25.8265C26.0267 21.6893 26.1664 21.6614 26.2494 21.5639C26.3324 21.4664 26.3551 21.3133 26.3551 21.0873V9.82966C26.3551 9.55301 26.3089 9.36733 26.2183 9.25267C26.1277 9.13801 25.9913 9.10215 25.8265 9.10215H25.3662V8.16768L29.1229 7.89799V9.47845V9.59134L29.1851 9.49726C29.8224 8.48395 30.6749 7.82274 31.7973 7.82274ZM21.7775 7.76002C20.5702 7.76002 19.5014 8.40735 18.736 9.69169C17.9706 10.976 17.5046 12.891 17.5046 15.4428C17.5046 18.2425 17.932 20.1143 18.6801 21.288C19.4281 22.4616 20.5 22.9374 21.7775 22.9374C22.99 22.9374 23.9145 22.6711 24.4954 21.9277C25.0764 21.1843 25.3095 19.9699 25.161 18.0769V18.0455H25.1299H24.0974H24.0601L24.0663 18.0831C24.1033 19.6724 23.9892 20.5384 23.7304 20.9995C23.6011 21.23 23.4371 21.3568 23.2329 21.4322C23.0286 21.5077 22.7809 21.5263 22.4927 21.5263C22.0702 21.5263 21.753 21.4741 21.51 21.313C21.2671 21.152 21.0957 20.8845 20.9751 20.4476C20.734 19.5736 20.7015 18.0275 20.7015 15.3926C20.7015 15.3008 20.7015 15.1567 20.7015 14.9787H25.3786H25.4097V14.9473C25.4097 12.2855 25.1571 10.4931 24.5763 9.35929C23.9955 8.2255 23.0789 7.76002 21.7775 7.76002ZM21.7775 7.82274C23.064 7.82274 23.9487 8.27467 24.5203 9.39065C25.0895 10.5018 25.3454 12.277 25.3475 14.916H20.6704H20.6393V14.9473C20.6393 15.1456 20.6393 15.2939 20.6393 15.3926C20.6393 18.028 20.6671 19.569 20.9129 20.4601C21.0359 20.9057 21.2141 21.1918 21.4727 21.3632C21.7313 21.5347 22.0647 21.5953 22.4927 21.5953C22.7836 21.5953 23.0352 21.5749 23.2515 21.4949C23.4679 21.415 23.6507 21.2727 23.7864 21.0308C24.0552 20.5519 24.1623 19.6774 24.1285 18.1145H25.0988C25.2412 19.9803 25.0075 21.1712 24.4457 21.89C23.8804 22.6133 22.9809 22.8684 21.7775 22.8684C20.5155 22.8684 19.4672 22.4134 18.7298 21.2566C17.9925 20.0998 17.5668 18.236 17.5667 15.4428C17.5667 12.8988 18.029 10.993 18.7858 9.72304C19.5426 8.45311 20.5926 7.82274 21.7775 7.82274ZM21.7775 8.97672C21.5528 8.97672 21.3655 9.00733 21.2177 9.12724C21.0698 9.24715 20.9674 9.44677 20.888 9.78576C20.7293 10.4637 20.6763 11.6936 20.6393 13.9062V13.9376H20.6704H22.6669H22.698V13.9062C22.698 11.7439 22.7227 10.5194 22.6233 9.82966C22.5737 9.4848 22.4937 9.26883 22.3559 9.13978C22.2181 9.01073 22.0271 8.97672 21.7775 8.97672ZM21.7775 9.03943C22.021 9.03943 22.1914 9.07664 22.3123 9.18995C22.4333 9.30327 22.5124 9.49721 22.5611 9.83593C22.6581 10.5093 22.6361 11.7364 22.6358 13.8749H20.7015C20.7385 11.6877 20.7956 10.4649 20.9502 9.80458C21.028 9.47242 21.1294 9.28431 21.2612 9.17741C21.393 9.07051 21.5584 9.03943 21.7775 9.03943ZM59.593 8.97672C59.3683 8.97672 59.181 9.00729 59.0332 9.12724C58.8854 9.24718 58.7829 9.45298 58.7036 9.79203C58.5449 10.4701 58.4921 11.6933 58.4548 13.9062L58.4486 13.9376H58.4859H60.4824H60.5135V13.9062C60.5135 11.7435 60.5383 10.5195 60.4389 9.82966C60.3891 9.48475 60.3092 9.26884 60.1714 9.13978C60.0336 9.01072 59.8426 8.97672 59.593 8.97672ZM59.593 9.03943C59.8365 9.03943 60.0068 9.07662 60.1279 9.18995C60.2489 9.30329 60.3278 9.49716 60.3767 9.83593C60.4738 10.5094 60.4516 11.736 60.4513 13.8749H58.517C58.5543 11.6874 58.6112 10.4651 58.7658 9.80458C58.8435 9.47236 58.945 9.28434 59.0768 9.17741C59.2085 9.07049 59.3739 9.03943 59.593 9.03943ZM35.4607 3.18172C35.2497 3.21721 35.0465 3.30505 34.8574 3.46394C34.4052 3.8436 34.2301 4.37563 34.3847 4.90015C34.5367 5.41597 35.0025 5.92411 35.809 6.28618C35.5053 6.63854 34.8405 7.30553 34.2852 7.84155L34.2665 7.86036L34.2852 7.88545L34.9009 8.55652L34.9196 8.57533L34.9445 8.56279C36.179 7.62909 36.9247 6.80824 37.2582 6.0604C37.5916 5.31256 37.5075 4.63201 37.0965 3.99076C36.8704 3.63649 36.5038 3.34926 36.0951 3.22562C35.8908 3.1638 35.6717 3.14622 35.4607 3.18172ZM35.4731 3.24443C35.6735 3.21083 35.8802 3.22896 36.0765 3.28833C36.469 3.40708 36.8229 3.68746 37.0405 4.02839C37.4426 4.65572 37.522 5.3041 37.196 6.03532C36.8721 6.76166 36.1411 7.56497 34.9258 8.48753L34.3536 7.86036C34.9157 7.3169 35.5896 6.63792 35.8836 6.29245L35.9147 6.2611L35.8774 6.24228C35.0575 5.88435 34.5945 5.38231 34.4469 4.88133C34.2993 4.38036 34.4587 3.88023 34.8947 3.51411C35.0754 3.36223 35.2727 3.27803 35.4731 3.24443ZM76.8463 2.85559L76.8152 2.86186L72.9466 3.15663L72.9155 3.1629V3.18799V4.18518V4.21654H72.9466H73.4877C73.645 4.21654 73.7494 4.23931 73.8111 4.30434C73.8729 4.36937 73.9044 4.48517 73.9044 4.68064V21.1876C73.9044 21.3726 73.8887 21.4853 73.8422 21.5451C73.819 21.575 73.785 21.594 73.7365 21.6078C73.6879 21.6217 73.6222 21.6266 73.5375 21.6266H73.2949H73.2576V21.658V22.6552H73.2949V22.6865H73.326H77.8539H77.885V22.6552V21.658V21.6266H77.8539H77.263C77.1069 21.6266 77.0085 21.5977 76.9458 21.5263C76.8832 21.4548 76.8463 21.3331 76.8463 21.1374V2.89322V2.85559ZM76.7841 2.92458V21.1374C76.7841 21.3398 76.817 21.48 76.8961 21.5702C76.9751 21.6604 77.0987 21.6893 77.263 21.6893H77.8228V22.6238H73.326V21.6893H73.5375C73.6253 21.6893 73.6974 21.687 73.7551 21.6705C73.8129 21.6541 73.8597 21.6243 73.892 21.5827C73.9565 21.4996 73.9666 21.3755 73.9666 21.1876V4.68064C73.9666 4.47854 73.9345 4.34447 73.8547 4.26044C73.7749 4.17641 73.6515 4.15382 73.4877 4.15382H72.9777V3.22562L76.7841 2.92458ZM43.0611 3.15663V3.18799V4.18518V4.21654H43.0922H43.6085C43.7364 4.21654 43.8441 4.22793 43.9257 4.25417C44.0072 4.28041 44.0652 4.32332 44.1123 4.39214C44.2064 4.52978 44.2429 4.78072 44.2429 5.22627V21.1124C44.2429 21.3198 44.2102 21.4445 44.1185 21.52C44.0268 21.5956 43.8648 21.6266 43.6085 21.6266H43.0922H43.0611V21.658V22.6552V22.6865H43.0922H48.6899H48.721V22.6552V21.658V21.6266H48.6899H48.1239C47.9964 21.6266 47.8942 21.6171 47.813 21.589C47.7317 21.5609 47.6673 21.5153 47.6201 21.4448C47.5259 21.3036 47.4895 21.0501 47.4895 20.6169V13.4359H51.1716V20.6169C51.1716 21.0498 51.1259 21.3032 51.0285 21.4448C50.9798 21.5155 50.9222 21.5609 50.8419 21.589C50.7616 21.6171 50.6586 21.6266 50.5372 21.6266H49.9712H49.9401V21.658V22.6552V22.6865H49.9712H55.544H55.5751V22.6552V21.658V21.6266H55.544H55.0464C54.9187 21.6266 54.8167 21.6171 54.7354 21.589C54.6541 21.5609 54.5959 21.5153 54.5488 21.4448C54.4547 21.3036 54.4182 21.0501 54.4182 20.6169V5.22627C54.4182 4.7807 54.4551 4.52976 54.5488 4.39214C54.5957 4.32333 54.654 4.2804 54.7354 4.25417C54.8168 4.22793 54.9185 4.21654 55.0464 4.21654H55.544H55.5751V4.18518V3.18799V3.15663H55.544H49.9712H49.9401V3.18799V4.18518V4.21654H49.9712H50.5372C50.6589 4.21654 50.7616 4.22793 50.8419 4.25417C50.9223 4.2804 50.98 4.32314 51.0285 4.39214C51.1256 4.53016 51.1716 4.781 51.1716 5.22627V12.2066H47.4895V5.22627C47.4895 4.78071 47.5263 4.52978 47.6201 4.39214C47.6671 4.32333 47.7254 4.2804 47.8067 4.25417C47.8881 4.22793 47.9962 4.21654 48.1239 4.21654H48.6899H48.721V4.18518V3.18799V3.15663H48.6899H43.0922H43.0611ZM43.1233 3.22562H48.6588V4.15382H48.1239C47.9932 4.15382 47.8799 4.16185 47.7881 4.19145C47.6963 4.22106 47.6251 4.27432 47.5704 4.35451C47.461 4.51491 47.4273 4.77715 47.4273 5.22627V12.238V12.2693H47.4584H51.2027H51.2338V12.238V5.22627C51.2338 4.77685 51.197 4.51452 51.0845 4.35451C51.0282 4.27451 50.9513 4.22106 50.8606 4.19145C50.7699 4.16185 50.662 4.15382 50.5372 4.15382H50.0023V3.22562H55.5129V4.15382H55.0464C54.9154 4.15382 54.8086 4.16185 54.7168 4.19145C54.6249 4.22106 54.5475 4.27431 54.4929 4.35451C54.3836 4.51493 54.3498 4.77716 54.3498 5.22627V20.6169C54.3498 21.0537 54.384 21.319 54.4929 21.4824C54.5473 21.5641 54.6249 21.62 54.7168 21.6517C54.8087 21.6835 54.9152 21.6893 55.0464 21.6893H55.5129V22.6238H50.0023V21.6893H50.5372C50.6623 21.6893 50.7698 21.6834 50.8606 21.6517C50.9513 21.62 51.0284 21.5639 51.0845 21.4824C51.1966 21.3194 51.2338 21.054 51.2338 20.6169V13.4045V13.3731H51.2027H47.4584H47.4273V13.4045V20.6169C47.4273 21.0537 47.4614 21.3191 47.5704 21.4824C47.6249 21.564 47.6962 21.62 47.7881 21.6517C47.8799 21.6835 47.9929 21.6893 48.1239 21.6893H48.6588V22.6238H43.1233V21.6893H43.6085C43.8698 21.6893 44.0438 21.6625 44.1558 21.5702C44.2678 21.4779 44.3113 21.3274 44.3113 21.1124V5.22627C44.3113 4.77714 44.2717 4.51491 44.162 4.35451C44.1072 4.27432 44.0363 4.22105 43.9443 4.19145C43.8524 4.16185 43.7394 4.15382 43.6085 4.15382H43.1233V3.22562ZM3.32373 3.15663V3.18799V4.18518V4.21654H3.36105H3.75289C3.98681 4.21654 4.17424 4.35455 4.30644 4.61165C4.43863 4.86875 4.51169 5.2463 4.51169 5.70292V20.1214C4.51168 20.5653 4.43893 20.9458 4.30644 21.2127C4.17395 21.4796 3.98562 21.6266 3.75289 21.6266H3.36105H3.32373V21.658V22.6552V22.6865H3.36105H7.2048H7.2359V22.6552V21.658V21.6266H7.2048H6.61393C6.35485 21.6266 6.16791 21.4792 6.04172 21.2127C5.91554 20.9462 5.85513 20.5659 5.85513 20.1214V7.97325L8.89654 22.6364L8.90276 22.6615H8.92764H10.4079H10.4328L10.439 22.6364L13.4804 7.95444V20.366C13.4804 20.8118 13.4444 21.1354 13.3498 21.3381C13.2552 21.5408 13.1153 21.6266 12.8771 21.6266H12.1867H12.1494V21.658V22.6552V22.6865H12.1867H17.7285H17.7596V22.6552V21.658V21.6266H17.7285H17.3117C17.0736 21.6266 16.9272 21.5408 16.8328 21.3381C16.7384 21.1354 16.7022 20.8118 16.7022 20.366V5.47714C16.7022 5.03157 16.7384 4.71389 16.8328 4.51131C16.9273 4.30872 17.0737 4.21654 17.3117 4.21654H17.7285H17.7596V4.18518V3.18799V3.15663H17.7285H13.0948H13.0699L13.0637 3.18172L10.6816 15.3111L8.14397 3.18172V3.15663H8.11287H3.36105H3.32373ZM3.39215 3.22562H8.09421L10.6505 15.4616V15.4741H10.7127V15.4616L13.1197 3.22562H17.6974V4.15382H17.3117C17.0568 4.15382 16.8793 4.26018 16.7769 4.47995C16.6744 4.69972 16.64 5.02803 16.64 5.47714V20.366C16.64 20.8153 16.6744 21.1434 16.7769 21.3632C16.8793 21.5831 17.0567 21.6893 17.3117 21.6893H17.6974V22.6238H12.2178V21.6893H12.8771C13.1322 21.6893 13.3032 21.5831 13.4058 21.3632C13.5084 21.1434 13.5489 20.8153 13.5489 20.366V7.62204V7.61577H13.5178L13.4867 7.6095V7.61577H13.4804V7.64086L10.383 22.5987H8.95252L5.85513 7.66594V7.65967L5.82403 7.66594H5.79294V7.67222V20.1214C5.79294 20.5718 5.85294 20.9573 5.98574 21.2378C6.11855 21.5182 6.32987 21.6893 6.61393 21.6893H7.1737V22.6238H3.39215V21.6893H3.75289C4.01315 21.6893 4.22338 21.5178 4.36241 21.2378C4.50145 20.9577 4.57388 20.5724 4.57388 20.1214V5.70292C4.57388 5.23936 4.50169 4.85117 4.36241 4.58029C4.22313 4.30942 4.01216 4.15382 3.75289 4.15382H3.39215V3.22562ZM80.5408 4.15382L80.5346 4.17264C79.9675 5.89917 79.5563 6.8648 79.1725 7.38999C78.7886 7.91518 78.4419 8.00461 77.9783 8.00461H77.6798H77.6487V8.03597V9.10842V9.13978H77.6798H78.6376V19.6448C78.6376 20.8267 78.714 21.6486 79.0916 22.1785C79.4692 22.7085 80.1434 22.9374 81.3058 22.9374C82.0624 22.9374 82.6982 22.7687 83.1468 22.3291C83.5955 21.8894 83.8497 21.1824 83.8497 20.0963V17.9828V17.9514H83.8186H82.7612H82.7239V17.9828V20.3159C82.7239 20.7493 82.6938 21.0514 82.6057 21.2378C82.5176 21.4242 82.3785 21.5012 82.1393 21.5012C81.9 21.5012 81.7733 21.4243 81.6914 21.2503C81.6095 21.0764 81.5795 20.8006 81.5795 20.4162V9.16487H83.7688H83.7999V9.13351V8.03597V8.00461H83.7688H81.6044V4.18518V4.15382H81.5733H80.5657H80.5408ZM80.5906 4.21654H81.5422V8.03597V8.06733H81.5733H83.7377V9.10215H81.5484H81.5173V9.13351V20.4162C81.5173 20.8033 81.5448 21.0892 81.6355 21.2817C81.7261 21.4742 81.8853 21.5639 82.1393 21.5639C82.3932 21.5639 82.5649 21.4738 82.6617 21.2691C82.7585 21.0644 82.7923 20.7524 82.7923 20.3159V18.0142H83.7875V20.0963C83.7875 21.1723 83.536 21.8612 83.1033 22.2852C82.6706 22.7091 82.0533 22.8684 81.3058 22.8684C80.1515 22.8684 79.5032 22.6486 79.1414 22.1409C78.7796 21.6332 78.6998 20.8238 78.6998 19.6448V9.10842V9.07706H78.6687H77.7109V8.06733H77.9783C78.4508 8.06733 78.8294 7.9651 79.2222 7.42762C79.6128 6.89329 80.0279 5.92616 80.5906 4.21654ZM67.8092 7.76002C66.4951 7.76002 65.4666 8.22139 64.8859 8.92027C64.3053 9.61916 64.1761 10.5558 64.6744 11.4854C64.8876 11.877 65.2062 12.1297 65.5576 12.2192C65.9091 12.3086 66.2947 12.234 66.6461 11.9683C67.0117 11.6887 67.2296 11.2527 67.1188 10.7704C67.0103 10.2983 66.5845 9.78943 65.7069 9.3342C65.83 9.23688 66.0353 9.13617 66.2853 9.06452C66.5539 8.98755 66.8515 8.93909 67.0939 8.93909C67.4495 8.93909 67.7191 8.97138 67.9149 9.03943C68.1106 9.10749 68.2336 9.21018 68.3192 9.35302C68.4903 9.63869 68.4933 10.0992 68.4933 10.7704C68.4933 10.9687 68.4933 12.905 68.4933 13.2916C66.7344 13.8958 65.535 14.3619 64.7802 15.1668C64.021 15.9764 63.7104 17.1193 63.7104 19.049C63.7102 20.5447 63.9944 21.5172 64.4505 22.1158C64.9067 22.7144 65.5381 22.9374 66.2107 22.9374C66.9455 22.9374 67.4942 22.6685 67.9087 22.3102C68.3031 21.9694 68.5647 21.5506 68.7608 21.1876C68.8808 21.7251 69.0216 22.1626 69.3143 22.4608C69.6207 22.7728 70.088 22.9374 70.8443 22.9374C71.7133 22.9374 72.2596 22.6663 72.5796 22.1409C72.8997 21.6155 72.9964 20.8417 72.9964 19.8204V19.789H72.9653H72.0758H72.0447V19.8204C72.0447 20.5534 72.0332 20.9557 71.9825 21.1688C71.9572 21.2754 71.9244 21.3325 71.883 21.3632C71.8417 21.394 71.7863 21.4071 71.7089 21.4071C71.6369 21.4071 71.587 21.3955 71.5534 21.3758C71.5198 21.356 71.496 21.325 71.4788 21.2629C71.4443 21.1387 71.4414 20.9017 71.4414 20.4915V11.4415C71.4414 9.98161 71.0489 9.05719 70.3965 8.50007C69.7442 7.94295 68.8361 7.76002 67.8092 7.76002ZM67.8092 7.82274C68.8284 7.82274 69.7237 8.00752 70.3592 8.55025C70.9947 9.09297 71.3792 9.9931 71.3792 11.4415V20.4915C71.3792 20.9017 71.3769 21.1387 71.4166 21.2817C71.4364 21.3532 71.4725 21.403 71.5223 21.4322C71.5721 21.4614 71.6325 21.4698 71.7089 21.4698C71.7912 21.4698 71.8624 21.4564 71.9203 21.4134C71.9783 21.3703 72.0176 21.3017 72.0447 21.1876C72.0977 20.9647 72.1064 20.554 72.1069 19.8518H72.9342C72.9318 20.8512 72.8284 21.6092 72.5237 22.1095C72.2153 22.6158 71.7006 22.8684 70.8443 22.8684C70.097 22.8684 69.6494 22.7138 69.3578 22.4169C69.0663 22.1199 68.9273 21.6762 68.8043 21.1061L68.7856 21.0183L68.7421 21.0998C68.5457 21.4711 68.2703 21.9161 67.8651 22.2663C67.4599 22.6165 66.9304 22.8684 66.2107 22.8684C65.5518 22.8684 64.944 22.6604 64.5003 22.0782C64.0566 21.496 63.7786 20.5365 63.7788 19.049C63.7788 17.1262 64.0852 16.0048 64.8299 15.2107C65.5746 14.4166 66.7624 13.9443 68.5369 13.3355L68.5555 13.3292V13.3042C68.5555 12.9313 68.5555 10.9697 68.5555 10.7704C68.5555 10.0992 68.5615 9.6326 68.3751 9.32166C68.282 9.16619 68.14 9.05476 67.9335 8.98299C67.7271 8.91122 67.4533 8.87637 67.0939 8.87637C66.8431 8.87637 66.5403 8.92339 66.2667 9.0018C65.993 9.08022 65.7513 9.19058 65.6198 9.30912L65.5887 9.34047L65.6261 9.35929C66.5329 9.81687 66.9517 10.3266 67.0566 10.783C67.1614 11.2393 66.9588 11.6504 66.6088 11.9181C66.2705 12.174 65.9025 12.241 65.5701 12.1564C65.2376 12.0718 64.9365 11.8326 64.7304 11.454C64.2426 10.5441 64.37 9.63878 64.9357 8.9579C65.5014 8.27703 66.5099 7.82274 67.8092 7.82274ZM59.593 7.76002C58.3864 7.76002 57.3172 8.40735 56.5516 9.69169C55.786 10.976 55.3201 12.891 55.3201 15.4428C55.3202 18.2425 55.7474 20.1144 56.4956 21.288C57.2437 22.4616 58.3161 22.9374 59.593 22.9374C60.8055 22.9374 61.73 22.6711 62.311 21.9277C62.892 21.1843 63.125 19.9699 62.9765 18.0769V18.0455H62.9454H61.9129H61.8818V18.0831C61.9187 19.6724 61.8046 20.5384 61.546 20.9995C61.4166 21.23 61.2526 21.3568 61.0484 21.4322C60.8441 21.5077 60.5966 21.5263 60.3082 21.5263C59.8857 21.5263 59.5685 21.4741 59.3255 21.313C59.0826 21.152 58.9112 20.8845 58.7906 20.4476C58.5496 19.5736 58.517 18.0275 58.517 15.3926C58.517 15.3008 58.517 15.1567 58.517 14.9787H63.1942H63.2253V14.9473C63.2253 12.2855 62.9725 10.4931 62.3918 9.35929C61.8112 8.22549 60.8947 7.76002 59.593 7.76002ZM59.593 7.82274C60.8798 7.82274 61.7643 8.27467 62.3359 9.39065C62.9049 10.5018 63.1609 12.277 63.1631 14.916H58.4859H58.4548V14.9473C58.4548 15.1456 58.4548 15.2939 58.4548 15.3926C58.4548 18.028 58.4826 19.569 58.7285 20.4601C58.8514 20.9057 59.0296 21.1918 59.2882 21.3632C59.5468 21.5347 59.8802 21.5953 60.3082 21.5953C60.5993 21.5953 60.8506 21.5749 61.067 21.4949C61.2835 21.415 61.4663 21.2727 61.6019 21.0308C61.8706 20.5519 61.9777 19.6774 61.944 18.1145H62.9143C63.0567 19.9803 62.823 21.1712 62.2612 21.89C61.696 22.6133 60.7965 22.8684 59.593 22.8684C58.3315 22.8684 57.2828 22.4134 56.5454 21.2566C55.8079 20.0998 55.3824 18.236 55.3823 15.4428C55.3823 12.8988 55.8443 10.993 56.6013 9.72304C57.3583 8.45311 58.4089 7.82274 59.593 7.82274ZM38.8069 7.76002C37.9496 7.76002 37.132 8.03165 36.5305 8.61296C35.929 9.19427 35.5416 10.0789 35.5416 11.291C35.5416 12.4259 35.7324 13.228 36.1324 13.9752C36.5324 14.7224 37.1413 15.414 37.9672 16.3584C38.6825 17.179 39.2169 17.7719 39.5719 18.3215C39.9269 18.8711 40.1006 19.3808 40.1006 20.0462C40.1006 20.5778 40.0262 20.983 39.8207 21.2566C39.6152 21.5302 39.2814 21.6768 38.7323 21.6768C38.2684 21.6768 37.8895 21.5721 37.5878 21.2315C37.2862 20.8909 37.057 20.3107 36.9099 19.3688L36.7171 18.0769L36.7109 18.0455H36.686H35.5975H35.5664V18.0831V22.6552V22.6865H35.5975H36.5118H36.5367L36.5429 22.6615C36.5916 22.4285 36.6751 22.1999 36.7731 22.0531C36.822 21.9797 36.8743 21.927 36.9223 21.9026C36.9703 21.8782 37.0122 21.8772 37.0592 21.9089C37.387 22.2873 38.1346 22.9374 39.348 22.9374C40.4149 22.9374 41.2501 22.5688 41.8172 21.9277C42.3843 21.2866 42.6817 20.3744 42.6817 19.2748C42.6817 18.1275 42.4815 17.2999 42.0784 16.5341C41.6754 15.7682 41.0698 15.0644 40.2561 14.1571C39.4798 13.2994 38.9473 12.7118 38.6079 12.1627C38.2684 11.6136 38.1227 11.1041 38.1227 10.4004C38.1227 9.99352 38.1873 9.6651 38.3653 9.44082C38.5433 9.21654 38.8357 9.08961 39.2982 9.08961C39.7621 9.08961 40.12 9.18121 40.3867 9.44709C40.6534 9.71298 40.8299 10.1598 40.9153 10.877L41.0895 12.2693L41.0957 12.2944H41.1206H42.2028H42.2401V12.2631V8.03597V8.00461H42.2028H41.3196H41.2885V8.03597C41.2642 8.29744 41.2502 8.49916 41.2263 8.62551C41.2144 8.68868 41.1969 8.73422 41.1828 8.75094C41.1757 8.7593 41.1702 8.76264 41.1641 8.76348C41.1593 8.76416 41.1497 8.76143 41.1393 8.75721C41.1387 8.75669 41.1336 8.75774 41.133 8.75721C40.9099 8.55637 40.0498 7.76002 38.8069 7.76002ZM38.8069 7.82274C40.0259 7.82274 40.8801 8.60782 41.1019 8.80738L41.1082 8.81366C41.1305 8.82494 41.154 8.82936 41.1766 8.8262C41.1992 8.82304 41.218 8.81208 41.2326 8.79484C41.2617 8.76037 41.2758 8.70538 41.2885 8.63805C41.3129 8.509 41.3284 8.31235 41.3507 8.06733H42.1717V12.2317H41.1455L40.9775 10.8645C40.8912 10.14 40.7121 9.68419 40.4302 9.40319C40.1484 9.12219 39.7704 9.02689 39.2982 9.02689C38.824 9.02689 38.5074 9.16146 38.3155 9.40319C38.1237 9.64492 38.0605 9.98641 38.0605 10.4004C38.0605 11.1131 38.2074 11.6368 38.5519 12.1941C38.8964 12.7513 39.4363 13.3434 40.2125 14.201C41.0258 15.1078 41.6242 15.8087 42.0224 16.5654C42.4207 17.3221 42.6195 18.1349 42.6195 19.2748C42.6195 20.3627 42.3219 21.2633 41.7674 21.89C41.213 22.5168 40.4006 22.8684 39.348 22.8684C38.1511 22.8684 37.4202 22.2335 37.1027 21.865L37.0965 21.8587C37.0328 21.8158 36.9609 21.8138 36.8974 21.8461C36.834 21.8784 36.7759 21.9366 36.7233 22.0155C36.6224 22.1667 36.544 22.3948 36.4932 22.6238H35.6286V18.1145H36.6611L36.8477 19.3751C36.9957 20.323 37.2233 20.9137 37.5381 21.2691C37.8528 21.6246 38.2584 21.7395 38.7323 21.7395C39.2927 21.7395 39.6573 21.5862 39.8767 21.2942C40.096 21.0022 40.169 20.5837 40.169 20.0462C40.169 19.3693 39.9874 18.8405 39.6279 18.2838C39.2683 17.7272 38.7318 17.1409 38.017 16.3208C37.1912 15.3765 36.5835 14.6819 36.1884 13.9439C35.7933 13.2058 35.6038 12.4186 35.6038 11.291C35.6038 10.0925 35.986 9.23144 36.574 8.66314C37.1621 8.09483 37.9631 7.82274 38.8069 7.82274ZM68.5555 14.0505L68.512 14.0756C67.6478 14.5614 67.1511 14.9225 66.8762 15.5745C66.6013 16.2264 66.5466 17.1566 66.5466 18.7981C66.5466 19.7308 66.5634 20.3323 66.6834 20.7047C66.7434 20.8909 66.8321 21.0233 66.9571 21.1061C67.0821 21.1889 67.2415 21.219 67.4422 21.219C67.9071 21.219 68.1952 21.0176 68.3565 20.6859C68.5178 20.3542 68.5555 19.8991 68.5555 19.3751V14.1007V14.0505ZM68.4933 14.1634V19.3751C68.4933 19.8955 68.4535 20.3462 68.3005 20.6608C68.1475 20.9754 67.8894 21.1563 67.4422 21.1563C67.2484 21.1563 67.1052 21.123 66.9944 21.0496C66.8836 20.9763 66.8027 20.8633 66.7456 20.6859C66.6313 20.3311 66.6088 19.7299 66.6088 18.7981C66.6088 17.1581 66.6647 16.2339 66.9322 15.5996C67.1933 14.9804 67.6701 14.63 68.4933 14.1634Z" fill="black"/>
</svg>
