<svg width="72" height="20" viewBox="0 0 72 20" fill="none" xmlns="http://www.w3.org/2000/svg">
<g clip-path="url(#clip0_1_255)">
<mask id="mask0_1_255" style="mask-type:luminance" maskUnits="userSpaceOnUse" x="0" y="0" width="72" height="20">
<path d="M71.9665 0.010498H0.0332031V19.9441H71.9665V0.010498Z" fill="white"/>
</mask>
<g mask="url(#mask0_1_255)">
<path d="M47.1798 14.1966V6.72149C47.1798 4.78129 45.6398 3.35272 43.4865 3.35272C41.9198 3.35272 40.5398 4.09691 39.3132 5.59192H39.1532L38.9932 3.84442C38.9665 3.5587 38.6998 3.36601 38.4198 3.42581L33.6598 4.48893C33.4932 4.5288 33.4198 4.72814 33.5265 4.86103L34.5065 6.11684V14.1966L33.7198 15.2996C33.6065 15.459 33.7198 15.6717 33.9132 15.6717H39.9065C40.0998 15.6717 40.2132 15.4524 40.0998 15.2996L39.3132 14.2231V6.49558C39.8132 6.17664 40.3798 5.99724 40.8998 5.99724C41.8332 5.99724 42.3732 6.56202 42.3732 7.53212V14.1035L41.5665 15.2996C41.4598 15.459 41.5732 15.665 41.7665 15.665H47.7798C47.9732 15.665 48.0865 15.4457 47.9732 15.2929L47.1798 14.1966Z" fill="black"/>
<path d="M26.42 3.35931C22.9133 3.35931 19.3467 5.47227 19.3467 9.68489C19.3467 13.9042 22.9133 16.0105 26.42 16.0105C29.9267 16.0105 33.4933 13.8975 33.4933 9.68489C33.4933 5.46563 29.9267 3.35931 26.42 3.35931ZM26.42 14.9673C25.1133 14.9673 24.2533 12.6018 24.2533 9.68489C24.2533 6.76795 25.1067 4.4025 26.42 4.4025C27.7267 4.4025 28.5867 6.76795 28.5867 9.68489C28.5867 12.6018 27.7267 14.9673 26.42 14.9673Z" fill="black"/>
<path d="M60.5467 11.3527C60.6 11.1534 60.3467 11.0271 60.22 11.1866C59.34 12.2231 57.92 12.7414 56.6534 12.7879C55.2734 12.8344 54.24 12.376 53.5 11.665L59.8934 8.72813C60.14 8.61517 60.2667 8.34274 60.2 8.08361C60.06 7.56534 59.8667 7.04706 59.6134 6.54873C58.7067 4.768 57.0534 3.27963 54.5534 3.36601C50.4467 3.50554 48.0334 6.0969 48.16 9.98394C48.2867 13.7314 50.9734 16.1567 54.84 16.0305C58.2667 15.8976 59.88 13.9972 60.5467 11.3527ZM53.32 4.79458C54.7534 4.22979 56.3134 5.27298 56.7067 8.30288L52.7667 10.6949C51.5134 8.5155 51.96 5.33278 53.32 4.79458Z" fill="black"/>
<path d="M18.3532 13.8909V1.67163L19.3065 0.389235C19.4198 0.236412 19.3132 0.010498 19.1198 0.010498H14.3665C14.1932 0.010498 14.0398 0.103521 13.9532 0.249701L9.8265 7.61847L5.93985 0.26299C5.85318 0.110166 5.69318 0.010498 5.51985 0.010498H0.266515C0.0931812 0.010498 -0.0201521 0.196544 0.059848 0.349368L1.09318 2.38259V13.5321L0.0731812 15.3195C-0.0134854 15.4789 0.0998479 15.6716 0.279848 15.6716H4.02652C4.22652 15.6716 4.33985 15.4324 4.20652 15.2796L2.66652 13.5321V4.64173L7.49984 14.2763C7.5865 14.449 7.8265 14.449 7.91984 14.2829L13.1465 4.66166V13.8909L12.1665 15.3062C12.0598 15.4656 12.1665 15.6783 12.3598 15.6783H19.1332C19.3265 15.6783 19.4332 15.4656 19.3265 15.3062L18.3532 13.8909Z" fill="black"/>
<path d="M71.7266 3.69158H68.7933C68.5866 3.69158 68.48 3.94407 68.6266 4.09025L69.7933 5.28627L67.52 11.366L65.24 5.04706L66.1333 4.08361C66.2733 3.93078 66.1666 3.68494 65.96 3.68494H59.62C59.4333 3.68494 59.32 3.88427 59.42 4.04374L60.04 5.04042L64.7466 16.2962C64.9866 16.8677 64.7066 17.5188 64.1333 17.7647C63 18.263 62.2666 16.5354 61.46 16.1434C60.5466 15.6916 59.4533 15.9042 58.9266 16.7746C58.4 17.6451 58.6866 18.7746 59.56 19.2995C61.6666 20.562 65.08 20.2962 67.18 15.3992L67.7133 14.1833L71.16 5.38593L71.9333 4.04374C72.02 3.88427 71.9066 3.69158 71.7266 3.69158Z" fill="black"/>
</g>
</g>
<defs>
<clipPath id="clip0_1_255">
<rect width="72" height="20" fill="white" transform="translate(0 0.00964355)"/>
</clipPath>
</defs>
</svg>
