<svg width="137" height="30" viewBox="0 0 137 30" fill="none" xmlns="http://www.w3.org/2000/svg">
<g clip-path="url(#clip0_1_94)">
<path d="M27.8518 5.76118C27.8518 5.86601 27.8439 5.96303 27.8355 6.05949C27.1449 4.845 26.185 3.80379 25.0291 3.01535C23.8731 2.22691 22.5517 1.71206 21.1657 1.51012C21.2326 1.3591 21.3111 1.2135 21.4007 1.07464C22.6951 1.28309 23.9325 1.75531 25.0355 2.4618C26.1385 3.16829 27.0835 4.09388 27.8115 5.18073C27.8421 5.37283 27.8556 5.56671 27.8518 5.76118ZM27.8193 6.26357C27.7918 6.4724 27.743 6.67791 27.6738 6.87692C26.9445 5.67926 25.9467 4.6663 24.7586 3.91751C23.5705 3.16872 22.2244 2.70446 20.8261 2.56117C20.8664 2.40783 20.8988 2.2545 20.9475 2.10116C22.3293 2.24978 23.6613 2.69975 24.8489 3.41912C26.0365 4.1385 27.0507 5.10963 27.8193 6.26357ZM24.9692 1.84969C24.0364 1.20384 22.9817 0.75367 21.869 0.52653C22.0318 0.38307 22.218 0.268411 22.4195 0.187515C23.4889 0.474421 24.496 0.955701 25.3899 1.60714C25.2299 1.64728 25.0842 1.73164 24.9692 1.84969ZM24.3537 5.83423C23.1814 5.15067 21.8582 4.76554 20.501 4.71291C20.5172 4.55957 20.5251 4.40624 20.5413 4.2451C21.7534 4.29582 22.9415 4.59797 24.0298 5.13222C24.1662 5.35212 24.275 5.58789 24.3537 5.83423ZM27.6078 7.05256C27.5408 7.2099 27.4568 7.35948 27.3572 7.49863C26.6016 6.39009 25.6039 5.4665 24.4389 4.79717C23.274 4.12784 21.972 3.73016 20.6308 3.63398C20.6471 3.4795 20.6714 3.32596 20.7035 3.17397C22.0693 3.27739 23.3956 3.67853 24.5886 4.34903C25.7817 5.01953 26.8123 5.94303 27.6078 7.05423M20.3796 6.41691C21.8424 6.44196 23.2745 6.83907 24.5401 7.57056C24.5166 7.73418 24.4815 7.89593 24.4349 8.05455C23.1981 7.30895 21.7846 6.90481 20.3393 6.88361C20.3555 6.74644 20.3718 6.57693 20.3796 6.41579M24.5076 6.47155C24.5372 6.66106 24.5535 6.85241 24.5563 7.04419C23.3107 6.27472 21.8845 5.84372 20.4199 5.79408C20.4277 5.63294 20.4439 5.48741 20.4523 5.32626C21.8774 5.37404 23.2693 5.76714 24.5076 6.47155ZM12.6741 6.05949C12.6663 5.96247 12.6579 5.86601 12.6579 5.76118C12.6561 5.56702 12.667 5.37294 12.6903 5.18017C13.4183 4.09342 14.3633 3.16795 15.4664 2.46155C16.5694 1.75516 17.8068 1.28303 19.1011 1.07464C19.1907 1.2135 19.2692 1.3591 19.3361 1.51012C17.9515 1.71326 16.6317 2.22866 15.4772 3.01704C14.3227 3.80542 13.364 4.84599 12.6741 6.05949ZM12.8358 6.87413C12.7675 6.67485 12.7188 6.46944 12.6903 6.26078C13.4581 5.10674 14.4721 4.13598 15.6601 3.41787C16.848 2.69976 18.1804 2.25205 19.5622 2.10674C19.6108 2.25171 19.6433 2.40505 19.6836 2.56675C18.2852 2.70651 16.9386 3.16842 15.7502 3.91597C14.5617 4.66353 13.564 5.67625 12.8358 6.87413ZM15.5393 1.84969C15.4239 1.73624 15.282 1.65309 15.1264 1.60769C16.0195 0.954757 17.0268 0.473338 18.0968 0.188072C18.2968 0.272037 18.4825 0.386402 18.6474 0.527088C17.5313 0.750982 16.4734 1.20117 15.5393 1.84969ZM16.4782 5.13278C17.5637 4.59853 18.7493 4.29635 19.9588 4.24565C19.9751 4.39899 19.9913 4.56013 19.9991 4.71347C18.6419 4.7661 17.3187 5.15123 16.1464 5.83478C16.231 5.58944 16.3423 5.35404 16.4782 5.13278ZM19.8861 3.63398C18.5449 3.73014 17.243 4.12775 16.0781 4.79698C14.9132 5.4662 13.9154 6.38967 13.1598 7.49807C13.0602 7.35892 12.9761 7.20934 12.9091 7.052C13.7051 5.94134 14.7359 5.01825 15.9289 4.34781C17.1218 3.67737 18.4478 3.2759 19.8134 3.17173L19.8861 3.63175M20.2582 9.66543C21.224 9.66335 22.1827 9.82979 23.0909 10.1572C22.9695 10.286 22.8403 10.407 22.7105 10.5202C21.1165 10.0039 19.3993 10.0039 17.8053 10.5202C17.6761 10.3992 17.5547 10.2782 17.4248 10.1572C18.3339 9.83296 19.2926 9.66662 20.2582 9.66543ZM20.2576 11.8356C20.5004 11.8356 20.7354 11.8517 20.962 11.8679C20.6543 12.0776 20.4025 12.2309 20.2576 12.3279C20.1121 12.2309 19.8609 12.0781 19.5532 11.8679C19.7798 11.8517 20.0148 11.8356 20.2576 11.8356ZM20.1687 6.88249C18.7234 6.90367 17.3098 7.30781 16.0731 8.05343C16.0265 7.89482 15.9913 7.73307 15.9679 7.56944C17.233 6.83687 18.6654 6.43968 20.1284 6.41579C20.1362 6.57693 20.1524 6.74644 20.1687 6.88361M20.2576 8.58593C21.4727 8.58756 22.6734 8.84881 23.7786 9.35206C23.6812 9.48086 23.5844 9.61022 23.4792 9.73122C22.4655 9.28085 21.3675 9.04995 20.2576 9.05375C19.1482 9.05474 18.0512 9.28544 17.036 9.73122C16.9308 9.61022 16.8335 9.48142 16.7367 9.35206C17.84 8.84338 19.0419 8.58187 20.2576 8.58593ZM20.2576 7.49696C21.6588 7.49863 23.0379 7.84491 24.2726 8.50508C24.2077 8.64225 24.135 8.78722 24.0622 8.91658C22.8957 8.28937 21.5915 7.95951 20.266 7.95641C18.94 7.95561 17.6349 8.2857 16.4698 8.91658C16.3901 8.78448 16.3198 8.64698 16.2594 8.50508C17.4872 7.84218 18.8612 7.49564 20.2576 7.49696ZM20.2582 10.7561C20.9069 10.7571 21.5533 10.8329 22.1845 10.9819C22.0228 11.1107 21.8606 11.2401 21.7067 11.3527C21.2316 11.2648 20.7492 11.2216 20.266 11.2239C19.7829 11.2253 19.3009 11.2684 18.8253 11.3527C18.6714 11.2412 18.5097 11.1107 18.3475 10.9819C18.9729 10.831 19.6147 10.7552 20.2582 10.7561ZM20.0797 5.79352C18.6138 5.8356 17.1857 6.26718 15.9433 7.04364C15.9511 6.83398 15.9673 6.64831 15.992 6.47099C17.2268 5.76652 18.6166 5.37586 20.0388 5.33351C20.0629 5.49465 20.0719 5.64018 20.0797 5.79352ZM25.2031 2.01808C25.8764 2.16148 26.4871 2.51324 26.9479 3.02313C27.4087 3.53303 27.6961 4.17498 27.7689 4.85733C27.1096 3.75176 26.2376 2.78687 25.2031 2.01808ZM25.4297 6.56746C25.3134 6.22769 25.138 5.91097 24.9116 5.63182C25.782 6.18887 26.5627 6.87433 27.2268 7.66479C27.1265 7.78246 27.0154 7.89054 26.895 7.98764C26.4559 7.46638 25.9649 6.9902 25.4297 6.56746ZM25.527 7.14902C25.9354 7.44938 26.3173 7.78404 26.6684 8.14934C26.5308 8.23799 26.3853 8.31661 26.2477 8.39133C26.017 8.16076 25.7743 7.94262 25.5203 7.73784C25.5281 7.56052 25.5281 7.37485 25.5281 7.14902M25.9002 0.913498C26.0216 1.01052 26.143 1.11534 26.2566 1.22017C26.4646 1.41724 26.6568 1.63034 26.8312 1.8575C26.5563 1.71181 26.2575 1.61626 25.9489 1.57535C25.2494 0.935736 24.4548 0.407778 23.5934 0.0102008C24.4382 0.0634862 25.245 0.379403 25.9002 0.913498ZM25.908 8.52014C25.7356 8.58459 25.5601 8.64042 25.3821 8.68741C25.3672 8.67866 25.3536 8.66776 25.3418 8.65507C25.4007 8.49835 25.444 8.33624 25.4711 8.17108C25.6249 8.2826 25.7704 8.40527 25.908 8.51791M26.2561 1.22575C26.1441 1.12092 26.0211 1.01609 25.8996 0.919071C26.0255 1.01286 26.1446 1.11533 26.2561 1.22575ZM25.3256 8.71362C25.3356 8.69669 25.3412 8.67751 25.3418 8.65786C25.3568 8.66661 25.3703 8.6775 25.3821 8.6902C25.367 8.70463 25.3471 8.71314 25.3262 8.71418M12.7306 4.84952C12.8048 4.16764 13.0926 3.52637 13.5532 3.01672C14.0138 2.50707 14.6237 2.15493 15.2965 2.01027C14.2697 2.78751 13.3992 3.75076 12.7306 4.84952ZM13.6208 7.98764C13.5004 7.89048 13.3893 7.7824 13.289 7.66479C13.9509 6.87221 14.7319 6.18644 15.6042 5.63182C15.3778 5.91097 15.2024 6.22769 15.0861 6.56746C14.5472 6.98596 14.0558 7.46256 13.6208 7.98764ZM14.9888 7.72111C14.7381 7.92296 14.4953 8.14878 14.2614 8.3746C14.1144 8.30619 13.9736 8.22523 13.8407 8.13261C14.1957 7.77143 14.5772 7.43707 14.9821 7.1323V7.1401C14.9821 7.37429 14.9821 7.55941 14.9899 7.72111M16.9247 0.00964355C16.061 0.403313 15.2659 0.93166 14.5691 1.5748C14.2605 1.6157 13.9617 1.71126 13.6868 1.85694C13.8634 1.63154 14.0553 1.41858 14.2614 1.21961C14.3733 1.11479 14.4964 1.00996 14.6178 0.91294C15.2714 0.376094 16.0791 0.0598132 16.9247 0.00964355ZM15.0391 8.18112C15.07 8.34544 15.1132 8.50722 15.1684 8.66511C15.1521 8.67292 15.1359 8.68909 15.1197 8.69745C14.9658 8.64894 14.7879 8.60043 14.5938 8.53017C14.7392 8.40917 14.8853 8.28818 15.0414 8.18335M14.6083 0.91294C14.4869 1.00996 14.3733 1.11479 14.2519 1.21961C14.3571 1.12259 14.4785 1.01777 14.6083 0.91294ZM15.1829 8.71362C15.1765 8.69535 15.171 8.67674 15.1667 8.65786C15.1505 8.66567 15.1342 8.68184 15.118 8.6902C15.1371 8.70393 15.1595 8.71166 15.1829 8.71362ZM17.1742 23.1212C15.5677 23.5232 14.0591 24.2438 12.7384 25.24C12.6573 25.0789 12.5767 24.9094 12.4878 24.7482C13.8545 23.745 15.4058 23.0192 17.0533 22.6121C17.1032 22.779 17.1438 22.9486 17.1748 23.1201M20.275 22.2168C21.0098 22.218 21.7433 22.2773 22.4688 22.3941C22.4525 22.5714 22.4363 22.7409 22.4201 22.9182C21.7115 22.7978 20.9938 22.7385 20.275 22.7409C19.5563 22.7422 18.8389 22.8015 18.1298 22.9182C18.1136 22.7509 18.0974 22.5714 18.0811 22.3941C18.8065 22.277 19.5401 22.2177 20.275 22.2168ZM23.4882 22.6037C25.1357 23.0114 26.6867 23.7378 28.0532 24.7415C27.9642 24.9027 27.8853 25.0722 27.8104 25.2333C26.4897 24.2371 24.9811 23.5165 23.3746 23.1145C23.4071 22.9472 23.4473 22.7755 23.4865 22.6065M23.7618 21.5337C25.4912 22.001 27.1039 22.8226 28.4969 23.9459C28.4079 24.107 28.3105 24.2603 28.2216 24.422C26.8782 23.3092 25.3102 22.4976 23.6241 22.0422C23.6728 21.875 23.7131 21.7027 23.7618 21.5337ZM16.9219 22.0422C15.2365 22.4993 13.6688 23.3108 12.3244 24.422C12.2355 24.2609 12.1465 24.0992 12.0575 23.9459C13.4485 22.8195 15.0619 21.9977 16.7926 21.5337C16.8329 21.701 16.8737 21.8733 16.9219 22.0422ZM20.2727 21.0737C21.0514 21.0751 21.8286 21.1426 22.5958 21.2756C22.5717 21.4529 22.5555 21.6224 22.5398 21.7997C21.0412 21.5309 19.5065 21.5309 18.0079 21.7997C17.9916 21.6324 17.9676 21.4529 17.9429 21.2756C18.7128 21.143 19.4926 21.0754 20.2738 21.0737M16.6315 20.9767C14.8641 21.502 13.2395 22.4204 11.8802 23.6626C11.7828 23.5015 11.686 23.3481 11.5808 23.1948C12.9958 21.9389 14.6703 21.0081 16.486 20.4682C16.5427 20.6377 16.5912 20.8076 16.6315 20.9767ZM20.2738 19.9273C21.1018 19.9279 21.9281 20.0034 22.7424 20.1531C22.7183 20.3304 22.6937 20.5 22.6696 20.6695C21.0839 20.3683 19.4554 20.3683 17.8697 20.6695C17.8456 20.5022 17.821 20.3226 17.7969 20.1531C18.6135 19.9998 19.4429 19.9242 20.2738 19.9273ZM24.0538 20.4676C25.8709 21.0043 27.5461 21.9355 28.959 23.1942C28.8538 23.3476 28.7565 23.5009 28.6597 23.662C27.3004 22.4198 25.6758 21.5014 23.9084 20.9761L24.0538 20.4676ZM11.427 22.9528C11.3218 22.7995 11.2082 22.6461 11.103 22.5011C12.5275 21.094 14.2627 20.0388 16.1699 19.4199C16.2258 19.5872 16.2751 19.7505 16.3316 19.9217C14.4787 20.5317 12.7976 21.5713 11.4264 22.955M20.2733 18.7848C21.1592 18.784 22.043 18.8705 22.9119 19.043C22.8878 19.2203 22.8559 19.3898 22.8308 19.5593C21.1431 19.2151 19.4029 19.2151 17.7152 19.5593C17.6912 19.392 17.6593 19.2125 17.6341 19.043C18.503 18.8705 19.3874 18.784 20.2733 18.7848ZM24.3767 19.4299C26.2852 20.0457 28.0212 21.1013 29.4435 22.5112C29.3316 22.6562 29.2248 22.8095 29.1196 22.9628C27.7501 21.579 26.0682 20.5418 24.2144 19.9379C24.2704 19.7606 24.3269 19.5911 24.3767 19.4299ZM20.2722 17.639C21.2243 17.6386 22.1739 17.7386 23.1049 17.9373C23.0725 18.1146 23.04 18.2841 23.0076 18.4536C21.2 18.0556 19.327 18.0556 17.5194 18.4536C17.487 18.2863 17.4545 18.1068 17.4304 17.9373C18.3644 17.739 19.3172 17.639 20.2722 17.639ZM10.9497 22.3132C10.8283 22.1683 10.7069 22.0227 10.5855 21.8856C12.007 20.3065 13.8014 19.106 15.8062 18.3928C15.8622 18.554 15.9181 18.7235 15.9841 18.8947C14.0417 19.5906 12.3088 20.7676 10.9486 22.3149M29.9538 21.8956C29.8324 22.0328 29.711 22.1699 29.5896 22.3233C28.2294 20.7759 26.4965 19.5989 24.554 18.903C24.61 18.7357 24.6659 18.5724 24.732 18.4012C26.7403 19.1073 28.5364 20.3089 29.9527 21.8939M10.4641 21.7556L10.4562 21.7478C10.6753 21.2816 10.8566 20.7987 10.9984 20.3037C12.2519 19.033 13.7606 18.0405 15.4257 17.3914C15.4906 17.5525 15.555 17.722 15.6199 17.8832C13.5816 18.6855 11.7998 20.0242 10.4641 21.7556ZM29.5431 20.3054C29.6872 20.7996 29.8684 21.2824 30.0853 21.7495L30.0775 21.7573C28.7417 20.0259 26.9599 18.6877 24.9216 17.8854C24.9865 17.7181 25.0509 17.5548 25.1158 17.3936C26.7809 18.0427 28.2897 19.0346 29.5431 20.3054ZM20.275 16.4903C21.3021 16.49 22.3258 16.6063 23.3265 16.8371C23.294 17.0044 23.2538 17.184 23.2213 17.3535C21.2845 16.891 19.2654 16.891 17.3286 17.3535C17.2962 17.1862 17.2637 17.0067 17.2234 16.8371C18.224 16.6059 19.2478 16.4895 20.275 16.4903ZM25.5203 16.4178C26.8757 17.0009 28.1192 17.8142 29.1951 18.8216C29.2511 19.1606 29.3244 19.4907 29.4055 19.8136C28.2601 18.5676 26.8647 17.5754 25.3099 16.9013C25.3827 16.7401 25.4554 16.579 25.5203 16.4178ZM20.2744 15.3434C21.3854 15.3435 22.4921 15.4817 23.5688 15.7549C23.5285 15.9221 23.4876 16.0939 23.4569 16.2712C21.3746 15.7442 19.1932 15.7442 17.111 16.2712C17.0707 16.1039 17.0382 15.9322 16.9896 15.7549C18.0622 15.4774 19.1662 15.3391 20.2744 15.3434ZM11.136 19.8124C11.2172 19.4896 11.2899 19.1589 11.3464 18.8205C12.4217 17.8122 13.6653 16.9988 15.0212 16.4167C15.094 16.5779 15.1589 16.7396 15.2316 16.9007C13.6768 17.5749 12.2815 18.5665 11.136 19.8124ZM25.9567 15.4638C27.0777 15.9961 28.1145 16.6891 29.034 17.5207C29.0582 17.8033 29.0907 18.0856 29.1313 18.3677C28.147 17.3692 26.9969 16.5477 25.7318 15.9394C25.8045 15.7861 25.8857 15.6249 25.9584 15.4632M20.2761 14.197C21.4798 14.1955 22.678 14.3584 23.8373 14.6809C23.8295 14.7133 23.8211 14.7456 23.8133 14.7858C23.7808 14.9229 23.7405 15.0601 23.7081 15.1973C21.4629 14.5734 19.0893 14.5734 16.8441 15.1973C16.8116 15.0601 16.7792 14.9229 16.7389 14.7858C16.7311 14.7534 16.7227 14.7211 16.7148 14.6809C17.8734 14.3544 19.0721 14.1915 20.2761 14.197ZM11.4191 18.3772C11.4598 18.0947 11.4922 17.8124 11.5165 17.5302C12.436 16.6985 13.4727 16.0055 14.5938 15.4733C14.6665 15.6344 14.7476 15.7878 14.8204 15.9573C13.5499 16.5528 12.3981 17.3727 11.4208 18.3772M16.4004 13.6338C17.0078 13.4496 17.6272 13.3067 18.254 13.2061C18.5131 13.3511 18.7884 13.4966 19.0636 13.6338C18.2118 13.7129 17.3708 13.8811 16.5543 14.1356C16.5056 13.9683 16.4491 13.7966 16.4004 13.6338ZM11.5439 17.1104C11.5599 16.8524 11.568 16.5942 11.568 16.3359C12.3446 15.6442 13.2024 15.0488 14.1227 14.5627C14.2038 14.7161 14.2844 14.8772 14.3733 15.0389C13.3326 15.5885 12.3783 16.287 11.5406 17.112M26.4177 14.5627C27.3393 15.0491 28.1982 15.6451 28.9758 16.3375C28.9758 16.5955 28.9838 16.8537 28.9999 17.112C28.1621 16.287 27.2078 15.5885 26.1671 15.0389C26.2561 14.8778 26.3349 14.7161 26.4177 14.5627ZM21.4801 13.6349C21.7632 13.4977 22.0307 13.3606 22.2897 13.2072C22.9175 13.303 23.5372 13.446 24.1434 13.6349C24.0947 13.8022 24.0382 13.9656 23.9895 14.1367C23.173 13.8822 22.3319 13.714 21.4801 13.6349ZM24.3051 13.0862C23.8959 12.9489 23.4798 12.8331 23.0585 12.7394C23.261 12.6106 23.4468 12.4734 23.6253 12.3363C23.8922 12.4088 24.1596 12.4813 24.4265 12.5705C24.416 12.6302 24.4026 12.6894 24.3862 12.7478C24.3621 12.8593 24.3375 12.973 24.3051 13.0862ZM26.9196 13.6918C27.6646 14.1298 28.364 14.6404 29.0077 15.2162C28.9916 15.4582 28.9836 15.6998 28.9836 15.9411C28.2818 15.2512 27.4959 14.6517 26.6443 14.1568C26.7417 13.9957 26.8307 13.8423 26.9196 13.689M27.4539 12.8744C28.0383 13.2565 28.5905 13.6854 29.105 14.1568C29.0726 14.3826 29.0564 14.6168 29.0323 14.8504C28.4557 14.2814 27.8239 13.7708 27.1462 13.326C27.2514 13.1649 27.3566 13.0193 27.4539 12.8744ZM24.5317 12.019C24.4102 11.9789 24.2888 11.9304 24.1596 11.898C24.3078 11.7664 24.4483 11.6264 24.5803 11.4787C24.5865 11.4795 24.5921 11.4822 24.5966 11.4865C24.5803 11.68 24.5641 11.8333 24.5317 12.019ZM28.0286 12.1238C28.4609 12.444 28.8743 12.7888 29.2667 13.1565C29.2265 13.3745 29.1856 13.592 29.1548 13.8178C28.7026 13.3568 28.2122 12.9345 27.6889 12.5554C27.8008 12.4021 27.9155 12.2649 28.0291 12.1277M29.4838 12.2248C29.4279 12.4266 29.3786 12.6441 29.33 12.8537C28.9977 12.4958 28.6406 12.1615 28.2613 11.8534C28.3906 11.7162 28.512 11.5791 28.6418 11.4581C28.9249 11.7001 29.2085 11.9599 29.481 12.2242M29.8374 11.1274C29.7322 10.9986 29.6187 10.8776 29.5056 10.7566C29.6675 10.6571 29.8357 10.5682 30.0092 10.4907L30.0819 10.5631C30.0008 10.7488 29.9202 10.9339 29.8391 11.128M29.7502 11.3622C29.6756 11.5558 29.6108 11.7575 29.556 11.9672C29.3392 11.7161 29.1095 11.4764 28.8678 11.249C29.0048 11.1261 29.1481 11.0104 29.297 10.9022C29.4508 11.0471 29.6047 11.2005 29.7502 11.3622ZM23.0238 24.8001C24.5223 25.1136 25.953 25.69 27.2492 26.5024C27.1764 26.6797 27.1115 26.8492 27.055 27.0187C25.7972 26.2058 24.4008 25.6289 22.9348 25.3164C22.9589 25.1391 22.9908 24.9696 23.0238 24.8001ZM17.5194 24.8001C17.5519 24.9674 17.5843 25.1469 17.6084 25.3164C16.1424 25.6289 14.746 26.2058 13.4882 27.0187C13.4322 26.8515 13.3668 26.6797 13.294 26.5024C14.5888 25.6873 16.02 25.1107 17.5194 24.8001ZM22.2791 24.6629C22.2629 24.8402 22.255 25.0181 22.2466 25.187C21.5931 25.0866 20.9329 25.0354 20.2716 25.0337C19.6102 25.0314 18.9496 25.0827 18.2966 25.187C18.2887 25.0198 18.2725 24.8402 18.2641 24.6629C19.5946 24.4585 20.9486 24.4585 22.2791 24.6629ZM23.2426 23.6949C24.8109 24.0523 26.2987 24.6979 27.6296 25.5985C27.5485 25.7658 27.4758 25.9376 27.4109 26.1004C26.1205 25.2044 24.6696 24.5637 23.1368 24.2129C23.1693 24.0457 23.2096 23.8661 23.242 23.6966M17.4058 24.2129C15.8751 24.5633 14.4259 25.2029 13.1368 26.097C13.0641 25.9359 12.9913 25.7664 12.918 25.5952C14.249 24.6946 15.7368 24.049 17.3051 23.6916C17.3376 23.8589 17.3778 24.0384 17.4103 24.2079M20.2755 23.3609C20.9774 23.3612 21.6783 23.4151 22.372 23.5221C22.3558 23.6994 22.3395 23.8773 22.3317 24.0462C21.6545 23.9372 20.9698 23.8812 20.2839 23.8789C19.5978 23.8772 18.9128 23.9332 18.2361 24.0462C18.2199 23.8789 18.2121 23.6994 18.1958 23.5221C18.884 23.4145 19.579 23.3606 20.2755 23.3609ZM13.8977 14.1568C13.048 14.6544 12.2624 15.2536 11.5585 15.9411C11.5585 15.6991 11.5422 15.4571 11.5344 15.2162C12.1781 14.6404 12.8775 14.1298 13.6225 13.6918C13.7198 13.8451 13.8088 13.9985 13.8977 14.1596M16.1234 12.5705C16.3825 12.4818 16.6494 12.4032 16.9247 12.3363C17.1026 12.4734 17.2889 12.6106 17.4914 12.7394C17.0703 12.8341 16.6543 12.9499 16.2449 13.0862C16.2124 12.9747 16.1889 12.8604 16.1637 12.7394C16.1466 12.6846 16.1331 12.6287 16.1234 12.5721M16.0183 12.0235C15.9858 11.8378 15.9696 11.6845 15.9455 11.491C15.9534 11.491 15.9617 11.491 15.9617 11.4832C16.0832 11.6203 16.2286 11.7575 16.3825 11.9025C16.2588 11.9355 16.1371 11.9759 16.0183 12.0235ZM13.3942 13.3277C12.7165 13.7724 12.0847 14.2831 11.5081 14.8521C11.4919 14.6179 11.4678 14.3921 11.4354 14.1585C11.9499 13.6871 12.5021 13.2582 13.0865 12.876C13.1916 13.021 13.289 13.1665 13.3942 13.3277ZM11.3951 13.8195C11.3626 13.5936 11.3223 13.3734 11.2832 13.1582C11.6715 12.7859 12.0852 12.4408 12.5214 12.1255C12.6333 12.2627 12.748 12.3998 12.8531 12.5532C12.3334 12.9337 11.8467 13.3573 11.3984 13.8195M11.2205 12.8593C11.1718 12.6413 11.1232 12.4316 11.0667 12.2303C11.3335 11.9644 11.6172 11.7062 11.9059 11.4642C12.038 11.5882 12.1623 11.7202 12.278 11.8595C11.9023 12.1697 11.5472 12.5038 11.2149 12.8599M11.037 10.7544C10.9251 10.8754 10.8104 10.9964 10.7052 11.1252C10.6341 10.9352 10.5531 10.7491 10.4624 10.5676L10.5351 10.4951C10.7101 10.5666 10.8786 10.653 11.0387 10.7533M10.99 11.9633C10.934 11.7536 10.8608 11.5517 10.7959 11.3583C10.9415 11.197 11.0956 11.0434 11.2574 10.8983C11.4063 11.0065 11.5496 11.1222 11.6866 11.2451C11.4403 11.4703 11.2074 11.7102 10.99 11.9633ZM24.605 11.4553L24.5809 11.4793C24.587 11.4801 24.5927 11.4828 24.5971 11.4871C24.6027 11.4772 24.6054 11.4666 24.605 11.4553ZM15.9601 11.4787C15.954 11.4795 15.9483 11.4822 15.9438 11.4865V11.4542C15.9438 11.462 15.9517 11.4709 15.9601 11.4787ZM31.6547 15.8831C32.7896 16.0624 33.8564 16.5384 34.7465 17.2626C34.6738 17.3914 34.601 17.5207 34.5277 17.6579C33.6589 16.9338 32.6051 16.4646 31.4841 16.303C31.5316 16.16 31.5877 16.02 31.6519 15.8837M32.3479 15.0768C33.3785 15.2913 34.342 15.7504 35.1566 16.415C35.0999 16.5522 35.0352 16.6894 34.9625 16.8266C34.0994 16.0998 33.0525 15.6234 31.9361 15.4493C32.0622 15.3135 32.2004 15.1894 32.349 15.0785M34.8668 13.9895C35.1882 14.1592 35.4943 14.3562 35.7816 14.5783C35.7491 14.7395 35.7089 14.8928 35.6602 15.0545C35.3462 14.7985 35.0073 14.5744 34.6486 14.3854C33.3301 13.6994 31.8109 13.4994 30.3589 13.8206C30.3426 13.6706 30.3346 13.5198 30.3348 13.3689C31.872 13.0457 33.4742 13.2647 34.8668 13.9895ZM31.3296 14.9503C31.1194 15.0484 30.9423 15.2053 30.8199 15.4019C30.7424 15.256 30.6747 15.1051 30.6174 14.9503C30.8602 14.9425 31.0952 14.9425 31.3296 14.9503ZM34.4701 14.8454C34.8406 15.0421 35.1912 15.274 35.517 15.538C35.4683 15.6829 35.4118 15.8285 35.3553 15.984C35.0179 15.6994 34.6517 15.4507 34.2625 15.2419C33.1093 14.6399 31.7963 14.4115 30.5066 14.5884C30.4684 14.4451 30.4387 14.2997 30.4176 14.1529C31.809 13.9521 33.2284 14.1949 34.4729 14.8465M30.5374 11.7949C32.2373 11.2857 34.0694 11.4565 35.6451 12.271C35.757 12.3268 35.8717 12.392 35.9769 12.4567C35.9916 12.6338 35.9942 12.8117 35.9847 12.9892C35.8068 12.8682 35.6205 12.7634 35.4341 12.6586C34.6646 12.2624 33.8227 12.0253 32.9589 11.9616C32.0951 11.8978 31.2272 12.0088 30.4076 12.2878C30.4562 12.1344 30.4887 11.9649 30.5368 11.796M30.3751 12.5944C32.0126 12.1589 33.7545 12.3517 35.2562 13.1347C35.4941 13.2602 35.7239 13.4002 35.9444 13.5541C35.9282 13.7213 35.9041 13.8931 35.8795 14.0559C35.6167 13.8599 35.3408 13.6819 35.0537 13.5234C33.6015 12.7706 31.9138 12.6058 30.3427 13.0634C30.3454 12.907 30.3562 12.7508 30.3751 12.5956M34.657 17.7745C34.7622 17.6858 34.8674 17.581 34.981 17.4678C35.7694 18.1821 36.4029 19.0497 36.8424 20.0171C36.7423 20.1398 36.6313 20.2533 36.5106 20.3561C36.0892 19.3712 35.4565 18.4897 34.657 17.7745ZM35.8549 16.4518C35.9439 16.3403 36.0328 16.2177 36.1218 16.0967C36.6741 16.6683 37.1305 17.3248 37.4735 18.041C37.4831 18.3217 37.4587 18.6025 37.4008 18.8774C37.0432 17.9783 36.5187 17.1545 35.8549 16.4491M35.2881 17.1349C35.3851 17.0301 35.4823 16.9171 35.5796 16.7959C36.2995 17.5013 36.879 18.336 37.2878 19.256C37.2211 19.4346 37.1342 19.605 37.0287 19.7639C36.6416 18.7748 36.0485 17.8786 35.2887 17.1343M31.719 20.2886C31.6541 20.0706 31.6217 19.9418 31.5652 19.74C32.4983 20.1305 33.3291 20.7293 33.9934 21.4902C33.8256 21.5304 33.6454 21.5549 33.4753 21.5789C32.9698 21.05 32.3754 20.6131 31.719 20.2881M32.894 18.2713C34.0327 18.8951 34.9802 19.815 35.6356 20.9332C35.5063 20.9979 35.3687 21.062 35.231 21.1189C34.6176 20.0878 33.7369 19.2403 32.6814 18.6655C32.2431 18.4354 31.7782 18.2594 31.2972 18.1413C31.2893 17.988 31.281 17.8347 31.281 17.6813C31.8434 17.7999 32.3858 17.9982 32.8918 18.2701M32.5035 19.1255C33.4544 19.6364 34.2722 20.3621 34.8914 21.2443C34.746 21.2928 34.5921 21.3414 34.4382 21.3815C33.8695 20.6106 33.137 19.9743 32.2931 19.518C32.0169 19.3732 31.7302 19.2493 31.4354 19.1472C31.4029 18.9861 31.3794 18.8166 31.3542 18.6554C31.7522 18.7722 32.1373 18.9289 32.5035 19.1233M31.3621 16.7518C32.0349 16.8709 32.6848 17.094 33.2884 17.4131C34.5835 18.1245 35.6288 19.2142 36.2835 20.5356C36.1621 20.6243 36.0406 20.7029 35.9114 20.7854C35.2938 19.5287 34.3053 18.4901 33.0786 17.809C32.5244 17.5134 31.9258 17.3091 31.3061 17.204C31.3224 17.0429 31.3386 16.8968 31.3621 16.7518ZM33.2319 9.8472C33.8507 9.87883 34.4469 10.089 34.9479 10.4522C33.7067 10.1316 32.3986 10.1793 31.1842 10.5893C31.4433 10.3144 31.7636 10.104 32.1193 9.97513C32.475 9.84622 32.8561 9.8024 33.2319 9.8472ZM39.9667 14.5259C40.3856 15.3363 40.5706 16.2466 40.501 17.1555C40.4848 17.2364 40.4769 17.3167 40.4607 17.3975C40.0885 15.3737 39.1289 13.5031 37.7007 12.0173C38.5103 12.1947 39.4245 13.3483 39.9672 14.5265M35.6126 11.2111C35.7217 11.408 35.8086 11.6163 35.8717 11.8322C35.0713 11.4172 34.1926 11.1733 33.2922 11.1164C32.3917 11.0595 31.4892 11.1906 30.6426 11.5016C30.7146 11.3067 30.8068 11.1198 30.9178 10.944C32.4653 10.4786 34.128 10.5728 35.6126 11.2099M37.3611 13.5652C38.6583 15.0356 39.5483 16.8178 39.9432 18.7357C39.8403 18.8785 39.7238 19.0109 39.5952 19.1311C39.2426 17.2673 38.4242 15.5221 37.2156 14.057C37.2716 13.8897 37.3208 13.7263 37.3611 13.5652ZM37.0371 14.5008C38.209 15.8735 39.0311 17.5078 39.4335 19.2649C39.3126 19.3584 39.1825 19.4395 39.0452 19.5069C38.6752 17.8328 37.9155 16.2689 36.8273 14.9413C36.9 14.7964 36.9728 14.6508 37.0377 14.5059M37.4668 12.4088C38.851 13.6672 39.7658 15.5313 40.3807 17.7811C40.3128 18.0199 40.2235 18.252 40.1138 18.4748C39.5795 16.216 38.7458 14.3285 37.4668 13.0138C37.479 12.8123 37.479 12.6102 37.4668 12.4088ZM36.6169 15.3289C37.7103 16.5418 38.4738 18.0136 38.8348 19.6039C38.7056 19.6597 38.5679 19.7009 38.4219 19.7489C38.0864 18.2581 37.3825 16.8745 36.3741 15.7236C36.4552 15.5948 36.5358 15.466 36.6169 15.3289ZM32.9018 21.6447C32.6083 21.392 32.2911 21.1679 31.9546 20.9756C32.0415 21.2198 32.147 21.4571 32.2702 21.6854C32.4643 21.6776 32.6831 21.6692 32.9013 21.6452M9.05524 16.3052C7.93172 16.4581 6.87557 16.9283 6.01154 17.6601C5.93041 17.523 5.86607 17.3942 5.79277 17.2648C6.68476 16.5436 7.75074 16.0678 8.88459 15.8848C8.94884 16.0211 9.00488 16.1611 9.05244 16.3041M8.5942 15.4549C7.47772 15.631 6.43082 16.1081 5.56673 16.8344C5.494 16.6972 5.4291 16.5522 5.37259 16.4229C6.18526 15.7551 7.14953 15.2957 8.18129 15.0846C8.33706 15.1866 8.4763 15.3111 8.5942 15.4549ZM10.1966 13.3661C10.1967 13.517 10.1886 13.6678 10.1726 13.8178C8.72054 13.4966 7.20136 13.6967 5.88285 14.3826C5.52245 14.5687 5.18329 14.793 4.87127 15.0517C4.83098 14.8906 4.79014 14.7373 4.74986 14.5756C5.51386 13.9893 6.39758 13.5771 7.33876 13.368C8.27993 13.159 9.25566 13.1581 10.1972 13.3656M9.91407 14.9469C9.85676 15.1018 9.78909 15.2527 9.71153 15.3986C9.58911 15.202 9.41204 15.0451 9.20183 14.9469C9.44465 14.9391 9.67964 14.9391 9.91407 14.9469ZM10.1244 14.1484C10.1004 14.2934 10.0685 14.4468 10.0355 14.5839C8.74576 14.4063 7.43257 14.6348 6.27954 15.2374C5.88808 15.4424 5.52146 15.6914 5.18683 15.9796C5.13088 15.8262 5.07493 15.6813 5.02513 15.5335C5.35 15.2699 5.69963 15.0382 6.06916 14.8415C7.3137 14.1899 8.73311 13.9477 10.1244 14.1484ZM10.1155 12.3034C9.29712 12.0245 8.43059 11.9137 7.56808 11.9774C6.70557 12.0411 5.86492 12.2781 5.09675 12.6742C4.90762 12.7748 4.72386 12.8852 4.5462 13.0048C4.53653 12.8274 4.53915 12.6494 4.55403 12.4723C4.66593 12.4076 4.7728 12.3435 4.88582 12.2867C6.4604 11.4684 8.29398 11.2975 9.99353 11.8105C10.0435 11.9719 10.084 12.1361 10.1149 12.3023M10.1961 13.0606C8.62455 12.6071 6.93834 12.7717 5.48504 13.5206C5.19445 13.6733 4.91809 13.8515 4.65922 14.0531C4.63516 13.892 4.61054 13.7224 4.59432 13.5513C4.81478 13.3974 5.04462 13.2574 5.2825 13.132C6.7854 12.3529 8.52579 12.1602 10.1636 12.5917C10.1798 12.745 10.1877 12.9061 10.1961 13.0595M4.02138 20.3455C3.90273 20.2406 3.79185 20.1273 3.6896 20.0065C4.13403 19.0419 4.76684 18.1753 5.55107 17.4572C5.66297 17.5687 5.76983 17.6752 5.87502 17.7639C5.08153 18.4844 4.44984 19.3646 4.02138 20.3455ZM3.13121 18.869C3.07178 18.5944 3.04995 18.3131 3.06631 18.0326C3.41137 17.3176 3.86758 16.6614 4.41807 16.0883C4.50703 16.2093 4.58592 16.3303 4.68495 16.4435C4.022 17.1512 3.49515 17.9743 3.13065 18.8718M3.51112 19.7673C3.40569 19.6083 3.31878 19.4379 3.25207 19.2593C3.66193 18.34 4.24136 17.5055 4.96023 16.7992C5.05759 16.9202 5.15438 17.0251 5.25173 17.1382C4.49187 17.8825 3.89883 18.7787 3.51167 19.7678M7.05725 21.5828C6.8894 21.5588 6.70924 21.527 6.53915 21.4941C7.20513 20.735 8.03543 20.1365 8.96739 19.7439C8.91144 19.9457 8.87844 20.0745 8.81353 20.2925C8.15967 20.6217 7.56598 21.0575 7.05725 21.5828ZM9.25106 17.6802C9.25106 17.8336 9.24323 17.9869 9.23484 18.1402C8.75421 18.2596 8.28954 18.4356 7.85063 18.6644C6.79512 19.2392 5.91441 20.0867 5.30097 21.1178C5.16333 21.062 5.02569 20.9968 4.89645 20.9321C5.55182 19.8139 6.49933 18.8939 7.63801 18.2701C8.14764 18.0064 8.68895 17.8085 9.24883 17.6813M9.17609 18.6655C9.15203 18.8328 9.12741 18.9961 9.09496 19.1573C8.79997 19.2589 8.51323 19.3828 8.23724 19.5281C7.3916 19.9819 6.65863 20.6186 6.0921 21.3915C5.93824 21.3514 5.79277 21.3029 5.6445 21.2544C6.26598 20.3741 7.08324 19.6489 8.03246 19.1355C8.39594 18.9412 8.77839 18.7845 9.17385 18.6677M9.2298 17.2074C8.61201 17.3199 8.01456 17.5238 7.45729 17.8124C6.22886 18.4912 5.23983 19.5304 4.62453 20.7888C4.49529 20.7079 4.37387 20.6276 4.25246 20.539C4.90953 19.2192 5.95418 18.1301 7.24748 17.4165C7.85109 17.0973 8.50107 16.8742 9.17385 16.7552C9.19791 16.9085 9.21413 17.054 9.2298 17.2074ZM9.35121 10.6005C8.13681 10.1904 6.82865 10.1427 5.58744 10.4633C6.0885 10.1002 6.68468 9.88999 7.30343 9.85835C7.67924 9.81355 8.06035 9.85737 8.41605 9.98628C8.77174 10.1152 9.09207 10.3256 9.35121 10.6005ZM2.8274 12.0201C1.40079 13.507 0.441437 15.3771 0.0673727 17.4003C0.0511471 17.3195 0.0349223 17.2392 0.0270893 17.1583C-0.0384886 16.2496 0.146272 15.3404 0.561416 14.5287C1.11197 13.3578 2.02675 12.2058 2.82796 12.0196M9.61921 10.9546C9.73021 11.1304 9.82247 11.3172 9.89449 11.5122C9.04824 11.1993 8.14549 11.0671 7.24469 11.124C6.3439 11.181 5.46515 11.4259 4.66537 11.8428C4.72993 11.6274 4.81674 11.4192 4.92442 11.2217C6.40897 10.5843 8.07175 10.4901 9.61921 10.9557M3.322 14.0615C2.11345 15.5266 1.29504 17.2717 0.942438 19.1355C0.809484 19.0196 0.692469 18.8867 0.594426 18.7402C0.989625 16.819 1.87989 15.0334 3.17765 13.5591C3.21382 13.7264 3.26245 13.8908 3.32312 14.0509M3.70359 14.938C2.62002 16.2685 1.86084 17.8313 1.48572 19.5035C1.35055 19.4324 1.22077 19.3515 1.09742 19.2615C1.50158 17.5077 2.32396 15.8768 3.49489 14.507C3.56763 14.6519 3.63253 14.7975 3.70526 14.9425M3.08198 13.0227C1.80295 14.3297 0.969291 16.2249 0.434965 18.4837C0.318388 18.264 0.228784 18.0311 0.168084 17.7901C0.783537 15.5396 1.68993 13.6762 3.08198 12.4177C3.05769 12.6186 3.05769 12.8217 3.08198 13.0227ZM4.16686 15.7248C3.16146 16.8776 2.45796 18.2604 2.11907 19.75C1.97817 19.7114 1.84019 19.663 1.70616 19.605C2.06712 18.0147 2.83065 16.5429 3.92403 15.33C3.99721 15.4663 4.07829 15.5978 4.16686 15.7248ZM8.26914 21.6848C8.39232 21.4566 8.49781 21.2193 8.58469 20.975C8.25434 21.1768 7.93789 21.4003 7.63745 21.6441C7.85622 21.6681 8.0666 21.6765 8.26858 21.6843M20.2419 27.815C17.6292 27.7571 15.0651 28.5248 12.9169 30.008C15.2039 28.9228 17.7097 28.3736 20.2425 28.4027C22.8422 28.3804 25.415 28.9285 27.7785 30.008C25.5414 28.5458 22.9176 27.7818 20.2425 27.8139M27.7863 29.161C26.491 28.5159 23.7232 27.0477 20.2503 27.0555C16.7775 27.0633 14.22 28.5159 12.9248 29.1688C14.9547 27.4097 17.5603 26.4513 20.2503 26.4745C22.9975 26.4799 25.6588 27.429 27.7863 29.161Z" fill="black"/>
<path d="M92.4429 9.45239H94.0257L93.027 12.644H91.5952L92.4429 9.45239Z" fill="black"/>
<path d="M65.3693 9.41449H63.73V11.1045H65.3693V9.41449Z" fill="black"/>
<path d="M51.1832 14.5783H53.1051C53.3435 14.5914 53.582 14.5533 53.8044 14.4666C54.0268 14.3798 54.2279 14.2465 54.3941 14.0755C54.5603 13.9046 54.6876 13.7001 54.7676 13.4758C54.8475 13.2515 54.8782 13.0127 54.8574 12.7756C54.8574 11.3487 54.0663 10.9545 53.1431 10.9545H51.1832V14.5783ZM49.4487 9.45239H53.1605C56.0056 9.45239 56.5897 11.4424 56.5897 12.7946C56.5897 14.1278 55.836 16.1178 53.0088 16.0994H51.1832V20.3427H49.4487V9.45239Z" fill="black"/>
<path d="M57.9644 12.3251H59.5091V13.7899H59.5466C59.6951 13.3346 59.985 12.9382 60.3744 12.658C60.7639 12.3779 61.2327 12.2285 61.713 12.2314C61.8766 12.2222 62.0408 12.2285 62.2032 12.2504V13.8841C62.0171 13.847 61.8278 13.8283 61.6381 13.8284C60.5263 13.8284 59.6238 14.4668 59.6238 16.2316V20.3622H57.9845V12.3251H57.9644Z" fill="black"/>
<path d="M111.302 12.3251H112.847V13.7899H112.884C113.032 13.3346 113.322 12.9383 113.712 12.6581C114.101 12.3779 114.57 12.2285 115.05 12.2314C115.214 12.2222 115.378 12.2286 115.54 12.2504V13.8841C115.354 13.847 115.165 13.8284 114.975 13.8284C113.863 13.8284 112.961 14.4668 112.961 16.2316V20.3622H111.321V12.3251H111.302Z" fill="black"/>
<path d="M65.3693 12.2872H63.73V20.3421H65.3693V12.2872Z" fill="black"/>
<path d="M67.6489 12.3251H69.1937V13.3951L69.2312 13.4325C69.461 13.0292 69.8005 12.699 70.2105 12.4798C70.6206 12.2605 71.0845 12.1613 71.5487 12.1935C73.15 12.1935 74.1677 13.1325 74.1677 14.9346V20.3795H72.5284V15.3478C72.4909 14.0899 72.0388 13.5451 71.0776 13.5451C69.9849 13.5451 69.2872 14.3714 69.2872 15.5524V20.3778H67.6489V12.3251Z" fill="black"/>
<path d="M123.68 20.38H122.117V19.31L122.098 19.2727C121.868 19.6759 121.528 20.0061 121.118 20.2254C120.708 20.4446 120.244 20.5438 119.78 20.5116C118.179 20.5116 117.143 19.5726 117.143 17.7705V12.3251H118.782V17.3573C118.819 18.6153 119.272 19.1784 120.233 19.1784C121.325 19.1784 122.023 18.352 122.023 17.1711V12.3457H123.662V20.3817L123.68 20.38Z" fill="black"/>
<path d="M81.1402 15.0478C81.1354 14.8316 81.0876 14.6185 80.9996 14.4208C80.9115 14.2232 80.7849 14.045 80.6271 13.8965C80.4693 13.748 80.2835 13.6323 80.0805 13.556C79.8774 13.4797 79.6612 13.4443 79.4444 13.452C78.5967 13.452 77.4094 13.8462 77.4094 16.4373C77.4094 17.9205 77.9561 19.2537 79.3677 19.2537C79.7887 19.276 80.2018 19.1334 80.5187 18.8562C80.8356 18.5791 81.0311 18.1894 81.0636 17.7705H82.7029C82.5709 19.4606 81.2896 20.6058 79.3683 20.6058C77.0508 20.6058 75.7695 18.9537 75.7695 16.4563C75.7695 13.8841 76.9943 12.1188 79.4248 12.1188C81.1391 12.1188 82.6089 13.0198 82.7594 15.0667H81.1368L81.1402 15.0478Z" fill="black"/>
<path d="M89.5413 15.6483C89.4657 14.3714 88.7876 13.4514 87.6759 13.4514C86.5457 13.4514 85.7736 14.2961 85.7176 15.6483H89.5413ZM85.7165 16.8126C85.7165 18.221 86.3571 19.2347 87.7134 19.2347C88.118 19.2678 88.5211 19.1552 88.8495 18.9175C89.178 18.6797 89.4101 18.3325 89.5038 17.9389H91.0486C90.9015 18.7042 90.4844 19.3919 89.8728 19.8775C89.2611 20.363 88.4954 20.6145 87.7139 20.5863C85.3774 20.5863 84.0771 18.9693 84.0771 16.343C84.0771 13.9019 85.4524 12.0998 87.658 12.0998C89.9945 12.0998 91.4447 14.2588 91.1622 16.8126H85.7165Z" fill="black"/>
<path d="M95.2506 17.8078C95.2696 18.8779 95.9668 19.2347 96.7954 19.2347C97.3795 19.2347 98.4179 19.0468 98.4347 18.1268C98.4347 17.451 97.8696 17.1688 96.1928 16.7373C95.0626 16.4557 93.9699 15.9299 94.0074 14.3714C94.0449 12.6067 95.8537 12.0998 96.9839 12.0998C98.4157 12.0998 99.8475 12.7756 99.829 14.5783H98.3217C98.2824 14.228 98.106 13.9073 97.8308 13.6858C97.5555 13.4644 97.2038 13.3601 96.8519 13.3957C96.1922 13.3957 95.5331 13.6962 95.5331 14.3346C95.5331 14.9357 95.9097 15.1794 97.4354 15.5736C99.1498 16.0241 99.9599 16.6436 99.9599 18.0147C99.9409 19.8548 98.2076 20.5869 96.7568 20.5869C95.0044 20.5869 93.6482 19.7985 93.7237 17.8084L95.2506 17.8078Z" fill="black"/>
<path d="M126.883 17.7872C126.869 17.9889 126.9 18.1911 126.974 18.3792C127.048 18.5674 127.164 18.7368 127.311 18.8752C127.459 19.0135 127.636 19.1174 127.829 19.1793C128.022 19.2412 128.227 19.2596 128.428 19.2331C129.012 19.2331 130.05 19.0452 130.067 18.1251C130.067 17.4493 129.502 17.1672 127.825 16.7356C126.695 16.454 125.602 15.9282 125.64 14.3698C125.696 12.605 127.486 12.0981 128.616 12.0981C130.048 12.0981 131.48 12.7739 131.461 14.5766H129.973C129.934 14.2263 129.757 13.9056 129.482 13.6842C129.207 13.4627 128.855 13.3584 128.503 13.394C127.844 13.394 127.184 13.6945 127.184 14.333C127.184 14.934 127.561 15.1777 129.087 15.5719C130.801 16.0224 131.611 16.642 131.611 18.0131C131.611 19.8531 129.859 20.5852 128.408 20.5852C126.656 20.5852 125.3 19.7778 125.375 17.7878L126.883 17.7872Z" fill="black"/>
<path d="M103.483 9.45239H111.001V11.0861H108.099V20.3421H106.365V11.0861H103.483V9.45239Z" fill="black"/>
<path d="M132.629 12.2878H133.872V9.8656H135.511V12.2878H137V13.5646H135.511V17.9769C135.511 18.709 135.567 19.0848 136.303 19.0848C136.536 19.0935 136.77 19.0748 137 19.029V20.3432C136.644 20.3939 136.285 20.4252 135.926 20.4369C134.212 20.4369 133.912 19.7232 133.873 18.3906V13.5841H132.629V12.2878Z" fill="black"/>
</g>
<defs>
<clipPath id="clip0_1_94">
<rect width="137" height="30" fill="white" transform="translate(0 0.00964355)"/>
</clipPath>
</defs>
</svg>
