<svg width="123" height="20" viewBox="0 0 123 20" fill="none" xmlns="http://www.w3.org/2000/svg">
<g clip-path="url(#clip0_1_92)">
<path d="M19.8029 17.4753C20.6381 16.9411 21.4448 16.2982 21.4448 15.0353V7.16106L20.1805 5.83535L19.6885 6.32677L20.7812 7.48106V15.0353C20.7812 16.0839 20.395 16.8553 19.7514 17.3896L19.8029 17.4753ZM14.9744 0.783918L14.9544 0.869632C15.3177 1.02106 15.7696 1.38392 15.7696 2.11249V13.7096L15.3205 14.1582L17.0769 15.6353L17.5918 15.2068L16.1787 14.0525L16.4361 13.8182V2.2182C16.4304 1.2982 15.5951 0.849632 14.9744 0.783918ZM16.0242 18.2668C18.2525 18.0953 20.4608 17.3468 20.4608 14.9925V7.56677L19.4511 6.54106L18.3355 7.63249V13.2153L19.2565 14.0496L17.1369 15.9325H16.9453L14.8657 14.1553L15.4235 13.6011V2.24106C15.4235 1.38392 14.6941 0.935346 14.245 0.829632V0.635346C14.4395 0.526775 14.7599 0.463918 15.1689 0.463918C15.8755 0.463918 16.5391 0.892489 16.7308 1.36106H16.7937C17.2228 0.718203 17.9093 0.463918 18.5729 0.441061C18.7674 0.441061 19.002 0.463918 19.2365 0.526775V0.761061C18.8732 0.866775 18.3355 1.3182 18.3355 2.45249V7.18106L21.0787 4.54963H21.2732C21.4648 4.74106 22.6634 5.83249 22.9008 5.98392C23.0095 6.04963 23.1582 6.08963 23.2869 6.08963C23.5244 6.08963 23.6731 6.00392 23.8648 5.9182V6.2182C23.6502 6.40963 23.3728 6.77535 23.3728 7.24677V13.6868C23.3728 16.5325 20.2463 18.2668 16.0242 18.5668V18.2668ZM28.6846 5.8782L28.1268 6.26392C28.7676 7.01249 29.5828 7.9782 30.3981 8.87535L30.9759 8.48963C30.1606 7.58963 29.3483 6.60392 28.6846 5.8782ZM28.041 10.4353L30.0977 9.04392C29.3912 8.22963 28.6389 7.37535 28.041 6.68963V10.4353ZM29.3683 15.1868C28.1268 14.6296 27.0141 14.1811 26.0273 13.6468C26.0902 13.2839 26.1131 12.8553 26.1131 11.6553V6.96963L25.4494 7.31249V11.6553C25.4494 12.8525 25.4266 13.6239 25.3207 13.9639C26.2847 14.5011 27.6577 15.0782 28.9221 15.6353L29.3683 15.1868ZM25.1291 7.1182C26.3505 6.5182 28.1898 5.42677 29.4112 4.54963H29.6257C30.4181 5.38392 31.5966 6.70963 32.6035 7.60963V7.84392L28.041 10.8211V12.6611C28.513 12.9611 29.8403 13.6239 30.6326 13.9011L32.4748 12.1268L32.6893 12.3611L28.985 15.9353H28.7705C27.529 15.4011 25.9214 14.7153 24.8945 14.1382C25.0232 13.7525 25.1291 12.8096 25.1291 11.6353V7.1182ZM118.804 17.4496C119.639 16.9153 120.443 16.2696 120.443 15.0096V7.13535L119.178 5.80678L118.686 6.30106L119.779 7.45535V15.0096C119.779 16.0582 119.393 16.8296 118.749 17.3639L118.804 17.4496ZM113.975 0.758203L113.955 0.843918C114.318 0.992489 114.77 1.35535 114.77 2.08677V13.6839L114.321 14.1325L116.078 15.6096L116.592 15.1811L115.179 14.0268L115.437 13.7925V2.19249C115.431 1.27249 114.596 0.823918 113.975 0.758203ZM115.025 18.2411C117.253 18.0696 119.462 17.3211 119.462 14.9668V7.54106L118.455 6.51249L117.339 7.60392V13.1868L118.26 14.0211L116.141 15.9039H115.949L113.869 14.1268L114.427 13.5725V2.21249C114.427 1.35535 113.698 0.906775 113.249 0.801061V0.609632C113.443 0.503918 113.763 0.438203 114.173 0.438203C114.879 0.438203 115.543 0.866775 115.734 1.33535H115.8C116.229 0.695346 116.916 0.438203 117.579 0.415346C117.771 0.415346 118.008 0.438203 118.243 0.501061V0.735346C117.88 0.841061 117.342 1.29249 117.342 2.42392V7.15249L120.085 4.52106H120.28C120.471 4.71249 121.67 5.80392 121.907 5.95535C122.016 6.0182 122.165 6.06106 122.293 6.06106C122.528 6.06106 122.68 5.97535 122.871 5.88963V6.2782C122.657 6.46963 122.376 6.83535 122.376 7.30677V13.6582C122.376 16.5039 119.25 18.2382 115.028 18.5353V18.2411H115.025ZM55.7875 5.86963L55.2326 6.25535C55.8734 7.00392 56.6886 7.96677 57.501 8.86677L58.0788 8.48106C57.2635 7.58106 56.4512 6.59535 55.7875 5.86963ZM55.1783 10.4096L57.2349 9.0182C56.5284 8.20392 55.779 7.34963 55.1783 6.66392V10.4096ZM56.5055 15.1582C55.2641 14.6011 54.1485 14.1525 53.1645 13.6182C53.2274 13.2553 53.2503 12.8268 53.2503 11.6268V6.94106L52.5867 7.28392V11.6268C52.5867 12.8268 52.5667 13.5953 52.458 13.9382C53.4219 14.4753 54.7921 15.0525 56.0564 15.6068L56.5055 15.1582ZM52.2663 7.09249C53.4877 6.49249 55.3299 5.40106 56.5513 4.52392H56.7658C57.5582 5.3582 58.7367 6.68392 59.7436 7.58392V7.8182L55.1783 10.7925V12.6325C55.6502 12.9325 56.9775 13.5953 57.7699 13.8725L59.612 12.0982L59.8265 12.3325L56.1222 15.9096H55.9077C54.6634 15.3753 53.0587 14.6896 52.0289 14.1125C52.1576 13.7268 52.2635 12.7868 52.2635 11.6096V7.09249H52.2663ZM63.5966 15.1153C62.7614 14.8811 61.9461 14.3439 61.9461 13.1896V2.81249L61.0251 1.86963L60.5331 2.36106L61.2825 3.12963V13.4639C61.2825 14.6411 62.2265 15.3896 63.1046 15.6039L63.5966 15.1153ZM63.8769 1.93535V12.9353C63.8769 13.4039 64.326 13.8553 64.7551 13.9382L65.4187 13.2753L65.6104 13.5096L63.2534 15.9068H63.1246C62.2265 15.7125 60.9621 14.9211 60.9621 13.5296V3.28392L60.2985 2.62106L59.612 3.30677L59.4003 3.09249L62.0348 0.441061H62.2064L63.8769 1.93535ZM70.1957 5.85249L69.6379 6.2382C70.2815 6.98677 71.0939 7.94963 71.9091 8.84963L72.4869 8.46392C71.6746 7.56106 70.8593 6.5782 70.1957 5.85249ZM69.555 10.4096L71.6116 9.0182C70.9051 8.20392 70.1557 7.34963 69.555 6.66392V10.4096ZM70.8794 15.1582C69.6379 14.6011 68.5252 14.1525 67.5383 13.6182C67.6013 13.2553 67.6242 12.8268 67.6242 11.6268V6.94106L66.9605 7.28392V11.6268C66.9605 12.8268 66.9405 13.5953 66.8318 13.9382C67.7958 14.4753 69.1659 15.0525 70.4303 15.6068L70.8794 15.1582ZM66.6373 7.09249C67.8587 6.49249 69.7009 5.40106 70.9223 4.52392H71.1368C71.9292 5.3582 73.1077 6.68392 74.1145 7.58392V7.8182L69.5521 10.7925V12.6325C70.0212 12.9325 71.3513 13.5953 72.1437 13.8725L73.9858 12.0982L74.2004 12.3325L70.4932 15.9068H70.2787C69.0372 15.3725 67.4296 14.6868 66.3999 14.1096C66.5286 13.7239 66.6344 12.7839 66.6344 11.6068V7.09249H66.6373ZM89.7842 6.5782C90.1475 6.92106 90.6623 7.41249 91.0914 7.77535L91.5233 7.2782C91.1143 6.91249 90.4936 6.3782 90.1961 6.0782L89.7842 6.5782ZM88.6715 15.1153C87.8162 14.8811 87.0009 14.3468 87.0009 13.1896V6.90106L86.0999 5.9782L85.5879 6.46963L86.3373 7.24106V13.4668C86.3373 14.6439 87.2813 15.3925 88.1566 15.6068L88.6715 15.1153ZM88.926 7.54106V12.9325C88.926 13.4039 89.3551 13.8296 89.8042 13.9153L90.4678 13.2725L90.6623 13.5068L88.3053 15.9039H88.1566C87.2784 15.7096 86.0141 14.9182 86.0141 13.5268V7.36963L85.3505 6.70677L84.6639 7.39249L84.4294 7.1782L87.0639 4.52392H87.2584L88.9289 6.14963V7.04963L91.0485 4.52392H91.243C91.6721 4.95249 92.3357 5.59249 92.9135 6.02106V6.06392L91.1372 8.18106H91.0943C90.6023 7.75249 89.9386 7.15249 89.5725 6.78963L88.926 7.54106ZM98.0309 13.3611V10.0011C97.3673 9.82963 96.6808 9.55249 96.0372 9.23249V13.3839L97.2157 14.1125L98.0309 13.3611ZM100.688 15.1382C99.8959 14.8382 99.0378 14.2611 99.0378 13.1268V7.34963L95.8684 5.76392C95.7826 5.82677 95.4164 6.08677 95.3106 6.16963L98.3742 7.75535V13.3839C98.3742 14.4753 99.381 15.3096 100.196 15.6096L100.688 15.1382ZM98.0309 9.68106V7.94963L95.0303 6.36677C94.8157 6.5382 94.0005 7.03249 93.7459 7.1582C94.4553 8.0982 96.3175 9.25249 98.0309 9.68106ZM96.2317 15.0953L94.1121 13.6839V10.5811L93.4685 11.0525V14.0696L95.7397 15.5896L96.2317 15.0953ZM95.6739 15.9096L93.1252 14.2182V10.9011C93.7659 10.4525 95.0961 9.52963 95.7368 9.08106C94.7299 8.54677 93.8746 7.88392 93.3598 7.24106V7.00392C94.8815 6.14963 95.9513 5.3582 96.8724 4.52106H97.0641C97.0641 4.52106 100.193 5.9982 100.342 6.06106C100.514 6.14677 100.643 6.18963 100.814 6.18963C101.029 6.18963 101.22 6.12392 101.435 6.0182V6.36392C101.2 6.53535 100.943 6.85535 100.943 7.32677V12.8868C100.943 13.4639 101.458 13.8496 101.844 13.9353L102.508 13.2725L102.702 13.5068L100.345 15.9039H100.196C99.2752 15.6468 98.2454 14.7696 98.0738 13.7211L95.8255 15.9096H95.6739ZM80.2388 13.3468V7.56963L78.1192 6.64963V13.2182L79.4464 14.0953L80.2388 13.3468ZM81.2228 6.92963L78.1163 5.62392V6.30963L80.5592 7.3582V13.6925C80.5592 15.0639 81.1599 16.5468 82.0809 17.6811L82.5729 17.1896C81.7806 16.1411 81.2228 14.9553 81.2228 13.5868V6.92963ZM77.9018 15.5725L78.4167 15.1039L76.1884 13.6696V6.88392L75.5448 7.33535V13.9925L77.9018 15.5725ZM77.0036 18.2753C76.1884 18.2753 75.4618 18.6553 75.0328 19.2125V19.3239C75.5248 19.0468 76.1026 18.8753 77.0036 18.8753C78.0963 18.8753 79.4894 19.1753 80.2817 19.6239L80.7108 19.1125C79.7897 18.6411 78.4396 18.2753 77.0036 18.2753ZM75.2044 14.1611V7.14106L78.9316 4.55249H79.1461C79.8755 4.85249 82.2526 5.8782 82.5529 6.00677C82.6616 6.04963 82.8104 6.09249 82.9391 6.09249C83.1536 6.09249 83.4082 6.00677 83.6456 5.90106V6.28963C83.4311 6.48106 83.1307 6.90963 83.1307 7.25249V13.1982C83.1307 14.5896 83.4311 15.4096 83.9889 15.9668V16.2011C83.1736 17.0353 81.2686 18.9811 80.4333 20.0096H80.2817C79.4894 19.5611 78.1192 19.1953 77.0036 19.1953C76.1884 19.1953 75.2473 19.4096 74.5408 19.9668L74.3691 19.8182C75.0127 18.3211 76.3829 16.8211 78.1192 16.8211C79.2119 16.8211 80.625 17.2696 81.8464 17.9353C81.0111 16.9925 80.2617 15.2525 80.2388 13.7982L78.0305 15.9153H77.8589L75.2044 14.1611ZM108.437 6.36963L109.573 7.48392V13.5839L110.237 13.2182V7.14106L108.952 5.8582L108.437 6.36963ZM108.906 15.7868C109.015 15.6153 109.25 15.3811 109.378 15.2525L107.107 14.7811V15.4039L108.906 15.7868ZM109.23 13.6039V7.58963L108.223 6.56392L107.11 7.61249V13.1982C107.602 13.3039 108.972 13.5611 109.23 13.6039ZM104.536 17.7411L104.087 18.1696L105.78 19.6268L106.295 19.1782L104.968 18.0668L105.202 17.8325V6.97535L104.258 6.03535L103.786 6.50677L104.536 7.2782V17.7411ZM107.107 7.16392L109.85 4.55249H110.042C110.234 4.74392 111.501 5.8782 111.692 6.00677C111.801 6.06963 111.95 6.09249 112.059 6.09249C112.293 6.09249 112.465 6.00677 112.636 5.92106V6.30963C112.422 6.4782 112.144 6.88677 112.144 7.33535V14.0525C110.966 14.3296 110.022 14.9725 109.018 16.1496H108.932L107.113 15.7639V17.2496L108.054 18.1039L105.826 19.9668H105.72L103.62 18.1925L104.178 17.5925V15.1039C103.964 15.0611 103.529 14.9953 103.317 14.9325V14.6239C103.574 14.5153 104.221 13.8782 104.221 13.3439V7.3982L103.557 6.73535L102.871 7.42106L102.636 7.20677L105.265 4.55249H105.46L107.11 6.1782V7.16392H107.107ZM6.53605 10.4096L6.51889 7.4982L5.87242 7.94677V10.6639C5.87242 10.9639 5.80663 11.1982 5.72368 11.4125L5.80663 11.4153C6.20996 11.1525 6.53605 10.7582 6.53605 10.4096ZM3.17787 5.82963C2.23391 6.77249 1.35575 8.0782 1.35575 9.74677C1.35575 13.7039 4.02742 15.6953 7.39133 15.6953C9.49091 15.6953 10.9555 14.5611 11.8136 13.7039L11.7564 13.6182C10.7724 14.4096 9.42798 15.0553 7.39133 15.0553C4.67103 15.0553 2.04226 13.3868 2.04226 9.74963C2.04226 8.29535 2.56573 6.87249 3.25224 5.90677L3.17787 5.82963ZM10.4177 4.28963C7.88905 4.28963 5.61784 3.04963 3.7757 3.04963C2.59719 3.04963 1.22989 3.52963 0.74361 4.8982L0.817983 4.93249C1.37291 3.98963 2.63724 3.68963 3.77284 3.68963C5.61498 3.68963 7.88619 4.93249 10.4148 4.93249C12.4486 4.93249 13.6271 4.24677 13.8217 2.62106L13.7158 2.60392C13.4183 3.84392 12.4515 4.28963 10.4177 4.28963ZM1.01249 9.74677C1.01249 7.07249 3.04915 5.20963 4.93419 4.37535L5.06291 4.54677C4.3764 5.3382 3.8844 6.10963 3.8844 7.73535C3.8844 9.5982 4.3764 10.8811 5.14873 11.7382C5.40617 11.4611 5.55491 10.9896 5.55491 10.6039V7.82106L8.96173 5.38392L9.11047 5.57535C8.81012 6.00392 8.63849 6.38963 8.63849 7.05249V8.82677C8.63849 10.0696 6.60184 11.3953 5.33752 11.9068C6.17277 12.7211 7.35129 13.0639 8.61561 13.0639C9.08759 13.0639 9.49377 13.0439 9.87994 12.9782V5.20963C8.76722 5.14677 7.71456 4.84678 6.75345 4.58963C5.72368 4.28963 4.67389 4.01249 3.7757 4.01249C2.40268 4.01249 0.732169 4.48392 0.712145 6.47249C0.712145 6.64392 0.732169 6.83535 0.755052 7.05249L0.49761 7.13535C0.260192 6.51535 0.131471 5.91535 0.131471 5.31535C0.114308 2.8982 1.89066 0.781061 4.73968 0.781061C5.93822 0.781061 7.07382 1.08106 8.06068 1.3582C9.1305 1.6582 10.1803 1.93535 11.253 1.93535C11.7879 1.93535 12.1082 1.6582 12.1082 1.14392C12.1082 0.629632 11.8508 0.375346 11.4446 0.266775L11.4904 0.00963204C12.7118 0.223918 14.0591 0.952489 14.0591 2.49249C14.0591 4.35249 12.7118 5.22963 10.4406 5.22963H10.206V12.9325C11.7049 12.6553 12.6889 11.9496 13.4384 10.7725L13.6729 10.9011C12.8377 13.5325 10.8897 16.0353 7.41994 16.0353C3.8844 16.0353 1.01249 13.9839 1.01249 9.74677ZM43.8623 10.4096L43.8451 7.4982L43.1986 7.94677V10.6639C43.1986 10.9639 43.1328 11.1982 43.0499 11.4125L43.13 11.4153C43.5362 11.1525 43.8623 10.7582 43.8623 10.4096ZM40.5012 5.82963C39.5573 6.77249 38.6791 8.0782 38.6791 9.74677C38.6791 13.7039 41.3508 15.6953 44.7147 15.6953C46.8143 15.6953 48.2788 14.5611 49.1341 13.7039L49.0769 13.6182C48.0929 14.4096 46.7485 15.0553 44.7147 15.0553C41.9944 15.0553 39.3656 13.3868 39.3656 9.74963C39.3656 8.29535 39.8891 6.87249 40.5756 5.90677L40.5012 5.82963ZM47.7411 4.28963C45.2124 4.28963 42.9412 3.04963 41.0991 3.04963C39.9205 3.04963 38.5532 3.52963 38.067 4.8982L38.1413 4.93249C38.6991 3.98963 39.9635 3.68963 41.0962 3.68963C42.9383 3.68963 45.2095 4.93249 47.7382 4.93249C49.7748 4.93249 50.9505 4.24677 51.145 2.62106L51.0392 2.60392C50.7445 3.84392 49.7777 4.28963 47.7411 4.28963ZM38.3358 9.74677C38.3358 7.07249 40.3725 5.20963 42.2575 4.37535L42.3863 4.54677C41.6998 5.3382 41.2078 6.10963 41.2078 7.73535C41.2078 9.5982 41.6998 10.8811 42.4721 11.7382C42.7295 11.4611 42.8783 10.9896 42.8783 10.6039V7.82106L46.2851 5.38392L46.4338 5.57535C46.1335 6.00392 45.9618 6.38963 45.9618 7.05249V8.82677C45.9618 10.0696 43.9252 11.3953 42.6609 11.9068C43.4961 12.7211 44.6746 13.0639 45.939 13.0639C46.4109 13.0639 46.8171 13.0439 47.2033 12.9782V5.20963C46.0906 5.14677 45.0379 4.84678 44.0768 4.58963C43.047 4.28963 41.9972 4.01249 41.0991 4.01249C39.726 4.01249 38.0555 4.48392 38.0355 6.47249C38.0355 6.64392 38.0555 6.83535 38.0784 7.05249L37.821 7.13535C37.5835 6.51535 37.4548 5.91535 37.4548 5.31535C37.4348 2.8982 39.2111 0.778203 42.0602 0.778203C43.2587 0.778203 44.3943 1.0782 45.3812 1.35535C46.451 1.65535 47.5008 1.93249 48.5735 1.93249C49.1084 1.93249 49.4287 1.65535 49.4287 1.14106C49.4287 0.626775 49.1713 0.372489 48.7651 0.263918L48.808 0.0067749C50.0294 0.221061 51.3767 0.949632 51.3767 2.48963C51.3767 4.34963 50.0294 5.22677 47.7582 5.22677H47.5237V12.9296C49.0225 12.6525 50.0094 11.9468 50.7588 10.7696L50.9934 10.8982C50.1582 13.5296 48.2102 16.0325 44.7404 16.0325C41.2106 16.0353 38.3358 13.9839 38.3358 9.74677Z" fill="black"/>
</g>
<defs>
<clipPath id="clip0_1_92">
<rect width="123" height="20" fill="white" transform="translate(0 0.00964355)"/>
</clipPath>
</defs>
</svg>
