<svg width="121" height="30" viewBox="0 0 121 30" fill="none" xmlns="http://www.w3.org/2000/svg">
<g clip-path="url(#clip0_1_78)">
<path fill-rule="evenodd" clip-rule="evenodd" d="M62.3818 9.16893C55.9612 10.1795 57.2778 20.7013 63.7102 19.8108C69.1929 19.0519 70.366 10.6159 64.5958 9.25716C63.8879 9.09044 63.1018 9.05557 62.3818 9.16893ZM7.80612 13.5484C7.90165 14.6441 8.28262 15.7681 8.65355 16.8626L8.65356 16.8626C8.81951 17.3522 8.98346 17.8359 9.11893 18.3085C9.13749 18.3733 9.15527 18.4385 9.17297 18.5034C9.34728 19.1428 9.51353 19.7527 10.3474 19.6204C10.9444 19.5258 11.1987 18.5961 11.3802 17.9325C11.4216 17.7814 11.4591 17.6441 11.4961 17.5336C11.5851 17.2676 11.674 17.0008 11.763 16.7335L11.7634 16.7323L11.7637 16.7314L11.7637 16.7314L11.7637 16.7314L11.7637 16.7314C12.3661 14.9225 12.9762 13.0903 13.6963 11.3344C13.818 11.0373 14.1598 10.7461 14.484 10.4698C14.8222 10.1815 15.1413 9.90951 15.1715 9.66432C15.2463 9.05804 13.3677 9.1679 12.5412 9.21623C12.4067 9.2241 12.3001 9.23033 12.2343 9.23159L12.1896 9.23225C11.9454 9.23539 11.5297 9.24074 11.5297 9.5648C11.5297 9.84084 11.8038 9.94393 12.0998 10.0553C12.4192 10.1754 12.7641 10.3051 12.8183 10.6718C12.8802 11.0895 12.6996 11.5704 12.5398 11.9962C12.4961 12.1126 12.4539 12.2249 12.4187 12.3307C12.3261 12.6085 12.2353 12.8894 12.1442 13.1714C11.8374 14.1208 11.5264 15.083 11.1272 15.9838C10.4844 14.532 9.71516 12.3663 9.58254 10.7813C9.55292 10.427 9.92159 10.2243 10.2523 10.0425C10.5914 9.85601 10.8905 9.69153 10.6791 9.40804C10.502 9.17038 10.0397 9.19927 9.69732 9.22067C9.61053 9.22609 9.53144 9.23103 9.46664 9.23103H5.8135C5.82928 9.712 6.12119 10.0199 6.42666 10.3422C6.66769 10.5964 6.91715 10.8596 7.04605 11.2237C7.44291 12.3445 6.52044 15.1385 5.7028 15.9838L4.29042 10.5616L5.26 9.23103H1.71756C1.66699 9.23103 1.60497 9.22786 1.53611 9.22433C1.16682 9.20543 0.600933 9.17647 0.551436 9.5731C0.518856 9.83421 0.797293 10.0229 1.06665 10.2054C1.23843 10.3218 1.40652 10.4357 1.48788 10.5643C1.77387 11.0164 1.91697 11.5783 2.05522 12.1211C2.11219 12.3448 2.16834 12.5653 2.23332 12.7735C2.72684 14.3547 3.18167 15.9527 3.63524 17.5463L3.69464 17.755C3.72336 17.8559 3.75152 17.9685 3.78121 18.0872C3.98897 18.9178 4.27151 20.0473 5.34585 19.5702C5.72817 19.4004 5.88663 18.7964 6.01058 18.324C6.0446 18.1943 6.07601 18.0746 6.10874 17.9764C6.2195 17.6441 6.32504 17.2475 6.43724 16.826C6.75281 15.6402 7.12101 14.2567 7.80612 13.5484ZM27.1788 12.5521V13.2163H28.6179L28.5827 18.3069L27.2895 19.6369H31.0534L32.2516 19.4644L30.9907 18.3069L30.9427 13.2163L30.9728 13.2164C31.3087 13.2176 33.329 13.2252 32.6449 12.6653C32.4468 12.5032 32.1798 12.5223 31.9114 12.5415C31.6209 12.5623 31.3287 12.5832 31.1201 12.3746C30.196 11.4504 31.3578 9.92004 32.3818 9.89524C31.7359 10.7049 32.0846 11.8134 33.2673 11.6423C34.2368 11.5023 34.4926 10.3698 33.796 9.73284C33.1197 9.11447 31.9082 9.14768 31.0534 9.2514C30.0825 9.3693 29.1037 9.91218 28.816 10.8916C28.7722 11.0405 28.7585 11.2276 28.7442 11.4217V11.4217C28.7176 11.7829 28.6893 12.1679 28.4625 12.3746C28.2165 12.5989 27.7885 12.578 27.431 12.5606C27.3412 12.5562 27.2558 12.5521 27.1788 12.5521ZM51.8652 12.8842C50.2859 11.8777 48.3555 12.2208 47.4371 13.9912H47.3264C47.3032 11.424 44.3219 12.3498 43.784 14.2126H43.6733V12.5521H41.2379C41.1979 12.5521 41.1508 12.5501 41.0994 12.5479C40.8482 12.5372 40.4944 12.5221 40.3717 12.7247C40.2833 12.8707 40.58 13.1076 40.8933 13.3578C41.1666 13.576 41.4526 13.8043 41.5065 13.9913C41.7979 14.9998 41.7998 17.1893 41.5065 18.1974C41.4514 18.3872 41.171 18.6021 40.9005 18.8095C40.5793 19.0557 40.272 19.2912 40.3717 19.4616C40.4996 19.6799 40.9022 19.6584 41.1832 19.6433L41.1833 19.6433C41.2459 19.6399 41.3024 19.6369 41.3486 19.6369H44.1161C44.1626 19.6369 44.2194 19.64 44.2823 19.6433C44.5627 19.6583 44.9624 19.6797 45.0929 19.4644C45.1818 19.3176 44.8747 19.1019 44.5404 18.8669C44.2274 18.647 43.8906 18.4103 43.832 18.1977C43.4478 16.8029 43.9597 14.3423 45.1124 13.4377C45.1239 14.7048 46.0653 15.1416 47.105 14.434C46.7362 15.595 46.6454 16.7363 47.1959 17.8657C48.1219 19.7654 50.3829 20.4223 51.9759 18.9727V19.6369H54.3006L55.15 19.4616L54.367 18.6154L54.0835 17.4229L54.0792 9.23103H51.5331L50.6442 9.48111L51.7346 10.4548L51.8652 12.8842ZM69.1345 19.6369C69.4378 19.6359 69.7031 19.4962 69.9553 19.3634C70.2038 19.2326 70.4395 19.1085 70.686 19.1303C70.9868 19.1567 71.2841 19.3053 71.58 19.4531C71.7986 19.5624 72.0164 19.6712 72.2342 19.73C73.3922 20.0429 74.6951 19.5216 75.5508 18.731C76.7573 17.6162 77.1291 15.7066 76.4514 14.2126C75.5615 12.2507 73.2802 11.6699 71.6807 13.1056V9.23103H69.1345C69.093 9.23113 69.0458 9.22925 68.9951 9.22724C68.7459 9.21734 68.4142 9.20416 68.2808 9.40638C68.0792 9.71185 68.4534 9.87128 68.7658 10.0044C68.9021 10.0625 69.0266 10.1155 69.0865 10.1735C69.3542 10.4328 69.355 10.8084 69.3556 11.1566L69.3558 11.2237C69.3596 11.9426 69.3949 12.6999 69.431 13.4731C69.5282 15.5593 69.6309 17.7609 69.1345 19.6369ZM20.979 13.2163L21.0757 13.2161C21.6123 13.2141 22.1309 13.2121 22.1902 13.881C22.232 14.352 22.1841 14.9431 22.1337 15.5661V15.5661V15.5661V15.5661C22.0332 16.8074 21.9225 18.1752 22.4904 18.9706C23.2746 20.0692 25.5586 20.1632 26.4704 19.1704C26.9575 18.6403 26.9572 17.9348 26.9569 17.2616L26.9569 17.2015H26.182C26.1819 17.2467 26.1822 17.2921 26.1825 17.3379C26.1854 17.7847 26.1885 18.2526 25.8884 18.6157C25.416 19.1873 24.7219 18.9752 24.5151 18.3069C24.1905 17.2577 24.2724 15.9237 24.3485 14.6846V14.6846V14.6845L24.3485 14.6845C24.3801 14.1696 24.4107 13.6711 24.4107 13.2163H26.8462V12.5521L24.5882 12.3746L24.4107 10.1166C23.8659 10.159 23.5772 10.5954 23.283 11.0402C23.119 11.2883 22.9532 11.539 22.7403 11.7253C22.4974 11.9379 22.2148 12.0618 21.9347 12.1846C21.6906 12.2917 21.4483 12.3979 21.2356 12.5614C21.0163 12.7299 20.9999 12.9444 20.9805 13.1967L20.979 13.2163ZM17.9873 14.8518C18.8105 13.4814 16.7569 12.7444 15.7764 13.2162C17.9722 14.4213 14.2514 16.4067 14.1327 14.2125C14.1203 13.9836 14.1745 13.7525 14.2771 13.5484C14.4182 13.2677 14.6386 13.028 14.8924 12.8452C16.1662 11.9283 19.7872 11.7306 20.2561 13.659C20.3997 14.2494 20.3286 14.962 20.2569 15.6815C20.1622 16.6309 20.0664 17.5922 20.461 18.2998C20.7786 18.8693 21.0263 18.4888 21.2616 18.1271C21.4578 17.8255 21.6455 17.5371 21.8581 17.8239C22.1761 18.253 21.6129 19.1034 21.2998 19.3718C20.4831 20.0721 19.9239 19.802 19.3018 19.5015C19.002 19.3567 18.6875 19.2048 18.3225 19.1511C18.0819 19.1157 17.811 19.2781 17.5519 19.4333C17.3954 19.5271 17.2433 19.6184 17.1048 19.6618C15.894 20.0414 13.8144 19.7864 13.6836 18.1977C13.5431 16.4924 15.2193 15.9384 16.5513 15.5044C16.6557 15.4703 16.7751 15.4407 16.9002 15.4096L16.9002 15.4096C17.3114 15.3075 17.7841 15.1901 17.9873 14.8518ZM35.7023 12.2691C30.8167 12.98 31.517 20.4116 36.4772 19.826C41.5385 19.2284 40.7154 11.5396 35.7023 12.2691ZM76.9938 16.9802V19.637C77.1763 19.6239 77.3514 19.5657 77.525 19.508C77.716 19.4445 77.9052 19.3816 78.1008 19.3799C78.462 19.3767 78.8225 19.4901 79.1875 19.6049C79.5568 19.7211 79.9308 19.8387 80.3149 19.8386C82.0837 19.8381 83.933 18.3097 83.2136 16.4267C82.785 15.305 81.799 15.0946 80.7985 14.881C80.3674 14.789 79.9336 14.6964 79.5405 14.5301C79.0521 14.3234 78.6354 13.818 79.1296 13.3702C80.0735 12.515 80.7877 13.2096 81.4868 13.8894C81.9325 14.3228 82.372 14.7503 82.861 14.7662V12.4415C82.6825 12.4471 82.501 12.4946 82.3202 12.5418C82.0907 12.6019 81.8624 12.6616 81.6433 12.6349C81.3708 12.6016 81.1183 12.5219 80.8675 12.4427C80.4804 12.3205 80.0973 12.1996 79.6507 12.2525C77.8259 12.4686 75.747 14.7665 77.6785 16.3394C78.1545 16.7269 78.7686 16.8378 79.3766 16.9476C80.0006 17.0603 80.6182 17.1718 81.0733 17.5801C81.5657 18.0218 81.2782 18.5684 80.7571 18.8269C79.604 19.3989 78.9832 18.6781 78.3784 17.9757C77.9646 17.4951 77.5582 17.0232 76.9938 16.9802ZM90.278 17.5337C89.6957 18.3862 88.7813 19.3731 87.6211 19.0112C86.8878 18.7825 85.5509 17.0661 86.2587 16.272C86.4665 16.039 86.9174 16.0647 87.268 16.0848C87.3572 16.0899 87.4399 16.0946 87.5104 16.0946H90.9422C90.9402 15.3908 90.8391 14.7388 90.5204 14.102C89.4987 12.0603 86.6579 11.6764 84.9647 13.1292C83.578 14.3191 83.2903 16.2666 84.109 17.8658C84.385 18.4048 84.7811 18.8242 85.2964 19.1424C85.9209 19.5281 86.6698 19.7677 87.3997 19.8395C88.3841 19.9365 89.4323 19.6245 90.1628 18.9523C90.669 18.4866 91.133 17.837 90.278 17.5337ZM112.972 17.5337C112.376 18.4063 111.385 19.4497 110.204 18.9718C109.524 18.6966 108.238 17.0336 108.947 16.272C109.162 16.0406 109.608 16.0654 109.96 16.085C110.049 16.09 110.132 16.0946 110.204 16.0946H113.636C113.63 15.4453 113.538 14.8095 113.269 14.2127C111.26 9.75972 104.417 13.6475 106.791 17.8658C107.088 18.3916 107.483 18.8229 107.99 19.1514C108.611 19.5542 109.36 19.7673 110.093 19.8395C111.078 19.9364 112.126 19.6246 112.857 18.9523C113.362 18.4865 113.826 17.837 112.972 17.5337ZM94.4846 14.102H94.3739C94.3739 14.0138 94.3812 13.9077 94.3892 13.7929V13.7927V13.7927C94.4147 13.4234 94.4464 12.9648 94.2601 12.7296C93.9407 12.3263 92.5382 12.4375 91.6109 12.5111C91.3299 12.5333 91.0926 12.5522 90.9422 12.5522C91.0058 12.9514 91.2544 13.0876 91.5108 13.2281C91.7317 13.3491 91.9585 13.4734 92.0777 13.772C92.478 14.7747 92.3309 17.1354 92.1346 18.1975C92.0586 18.6086 91.7864 18.7583 91.5208 18.9043C91.2447 19.056 90.9759 19.2038 90.9422 19.637H95.813V18.9728C94.646 19.0439 94.4847 18.3104 94.4846 17.3123C94.4845 15.8909 94.7236 14.5282 95.7023 13.4378C95.775 15.0037 97.9861 15.3415 97.9861 13.6592C97.9861 12.6469 96.9038 12.1682 96.0344 12.4181C95.2249 12.6508 94.7143 13.3214 94.4846 14.102ZM116.957 14.2127H116.846V12.5522H114.411C114.371 12.5522 114.324 12.5502 114.273 12.548C114.021 12.5373 113.665 12.522 113.545 12.7275C113.456 12.8798 113.735 13.0879 114.042 13.3168C114.332 13.5331 114.648 13.768 114.7 13.9917C114.945 15.049 114.983 17.1547 114.68 18.1975C114.621 18.3982 114.332 18.6066 114.055 18.8061C113.721 19.0474 113.404 19.2756 113.535 19.4617C113.702 19.6995 114.175 19.6693 114.517 19.6475C114.603 19.642 114.68 19.637 114.743 19.637H118.396V19.0835C116.067 18.6429 116.769 14.6284 118.285 13.4378C118.3 15.049 120.489 15.3101 120.489 13.6592C120.489 12.5581 119.299 12.1374 118.396 12.4707C117.663 12.7411 117.168 13.4927 116.957 14.2127ZM98.2484 12.5522C98.2826 12.9914 98.5029 13.138 98.7626 13.3108C98.905 13.4055 99.0592 13.5082 99.2011 13.6712C99.4425 13.9486 99.5928 14.3129 99.7373 14.6632C99.7829 14.7738 99.8279 14.883 99.8751 14.9876C100.171 15.6434 100.458 16.3034 100.744 16.9633L100.745 16.9634L100.746 16.9667C100.941 17.4145 101.135 17.8622 101.333 18.3086C101.368 18.3896 101.405 18.4875 101.444 18.5929C101.582 18.9636 101.754 19.4267 102.056 19.5703C102.982 20.0108 103.42 19.2325 103.719 18.53C103.907 18.0894 104.088 17.6394 104.268 17.1876C104.673 16.1765 105.082 15.1565 105.59 14.2127C105.686 14.0364 105.979 13.7973 106.266 13.5632C106.599 13.2924 106.923 13.0281 106.923 12.8755C106.923 12.4034 104.136 12.3475 103.914 12.7275C103.807 12.9095 104.011 13.0561 104.243 13.2227C104.487 13.3983 104.762 13.5962 104.737 13.8811C104.649 14.8752 103.967 16.1449 103.465 17.0798C103.422 17.1599 103.381 17.2375 103.341 17.3123L101.875 13.772L102.657 12.7275L101.569 12.5522H98.2484ZM12.8977 9.78448L13.2299 11.0022H13.3406L14.0048 9.78448H12.8977ZM62.9346 9.84316C60.2921 10.4413 60.5806 15.3712 61.1538 17.3122C61.5141 18.5323 62.5087 19.3412 63.8203 19.0398C64.6836 18.8413 65.1028 17.9795 65.3227 17.2015C65.7925 15.5386 65.8725 13.0874 65.2927 11.445C64.9294 10.416 64.1117 9.57681 62.9346 9.84316ZM30.0564 9.89519C29.0545 10.677 29.0569 11.6576 29.0598 12.8073V12.8081V12.8089V12.8098C29.06 12.871 29.0601 12.9327 29.0601 12.9948C29.0601 13.4913 29.0846 14.0157 29.1097 14.5515V14.5515V14.5516V14.5517C29.1781 16.0147 29.2505 17.5631 28.8387 18.862C29.5778 18.4973 29.5453 17.7056 29.5148 16.9638V16.9638V16.9637V16.9637C29.5088 16.8185 29.5029 16.6751 29.5029 16.5373C29.5029 16.0081 29.4819 15.4631 29.4607 14.9128C29.4144 13.7089 29.367 12.4794 29.5362 11.3343C29.5763 11.0631 29.6909 10.8215 29.804 10.583L29.804 10.5829C29.9105 10.3584 30.0157 10.1365 30.0564 9.89519ZM52.0859 9.89519C52.5552 11.3755 52.4616 13.1849 52.3738 14.8824V14.8825V14.8826V14.8827C52.3401 15.5327 52.3073 16.1662 52.3073 16.7587C52.3073 16.8885 52.2954 17.0501 52.2823 17.2274C52.2301 17.9328 52.1594 18.8873 52.7501 19.0834V12.3306C52.7501 12.1835 52.7572 12.0286 52.7645 11.8706C52.7995 11.1042 52.8378 10.2662 52.0859 9.89519ZM69.5767 9.89519C70.1006 11.8754 69.9887 14.1984 69.8822 16.4088V16.4089V16.409V16.4092C69.8397 17.2912 69.7981 18.1554 69.7981 18.9727C70.2952 18.5587 70.2727 17.9573 70.2503 17.3547L70.2502 17.3542C70.2456 17.229 70.2409 17.1037 70.2409 16.9801V11.8878C70.2409 11.7867 70.2433 11.685 70.2456 11.5837C70.2614 10.9041 70.2769 10.2406 69.5767 9.89519ZM1.82764 10.0059C2.16873 11.199 2.53646 12.3895 2.90446 13.5808L2.90446 13.5808L2.90447 13.5809L2.90447 13.5809C3.25393 14.7121 3.60362 15.8442 3.93096 16.9801C3.96614 17.1021 3.99804 17.2586 4.03302 17.43L4.03302 17.4301C4.17518 18.127 4.36807 19.0728 5.03797 18.9727C4.41728 17.0644 3.86893 15.1262 3.32221 13.1939L3.3222 13.1938L3.32219 13.1938L3.14051 12.552C3.09822 12.4028 3.05916 12.2451 3.01922 12.0838C2.81855 11.2735 2.59548 10.3728 1.82764 10.0059ZM7.03059 10.0059C7.83649 12.2587 8.49306 14.5635 9.14941 16.8694C9.18888 17.008 9.22411 17.1766 9.2621 17.3585L9.2621 17.3585C9.40982 18.0658 9.59916 18.9722 10.2409 19.0834C9.90098 17.6006 9.45046 16.1381 9.00069 14.678L9.00069 14.678C8.75972 13.8957 8.51898 13.1142 8.29557 12.3306C8.25533 12.1894 8.21872 12.0385 8.18115 11.8837L8.18114 11.8836L8.18114 11.8836L8.18113 11.8836C7.99785 11.1281 7.79181 10.2788 7.03059 10.0059ZM32.8239 11.2236L32.9346 10.0059C32.3851 10.2943 32.2422 10.8834 32.8239 11.2236ZM60.4997 10.338C58.1088 12.1648 57.5824 16.958 60.6104 18.5299C60.4591 18.2256 60.3031 17.9334 60.1508 17.6479C59.3582 16.163 58.6637 14.8616 59.22 12.9948C59.3397 12.5931 59.5877 12.1954 59.8345 11.7995C60.1392 11.3109 60.4421 10.8251 60.4997 10.338ZM65.1492 10.338C66.4889 12.8847 66.3143 15.954 65.1492 18.5299C67.1256 16.8921 67.2681 11.9023 65.1492 10.338ZM22.9845 14.1468C22.8558 15.8794 22.7199 17.7081 23.4143 19.1941C22.2447 18.5688 22.3809 16.5069 22.4812 14.9893C22.5061 14.6131 22.5287 14.2703 22.5287 13.9912C22.5287 13.8908 22.5248 13.7859 22.5208 13.6793C22.499 13.0952 22.4752 12.4582 23.0822 12.22C23.0822 12.8316 23.0339 13.4821 22.9845 14.1468V14.1468V14.1468ZM35.8148 12.9669C34.3608 13.5138 34.6296 16.8194 34.9763 17.9764C35.1742 18.6372 35.6679 19.4242 36.4757 19.1119C37.9672 18.5353 37.556 15.3936 37.2635 14.2126C37.1 13.5528 36.6604 12.649 35.8148 12.9669ZM86.1822 15.3196H88.5069C88.5069 15.2712 88.5071 15.2213 88.5073 15.1703L88.5074 15.1667C88.5105 14.5004 88.5146 13.6338 88.0177 13.1536C86.7254 11.9047 86.1844 14.5343 86.1822 15.3196ZM96.5881 12.8842C96.0894 13.3929 96.0112 13.9536 96.5881 14.434V12.8842ZM108.876 15.3196H111.201L111.201 15.2098C111.202 14.5479 111.205 13.6303 110.711 13.1536C109.419 11.9045 108.878 14.5345 108.876 15.3196ZM45.887 14.434L45.9977 12.9949C45.3463 13.3367 45.3631 13.9716 45.887 14.434ZM50.2159 13.0771C48.908 13.622 49.2278 16.9076 49.4875 17.9764C49.6439 18.6196 50.1197 19.29 50.8669 19.0012C52.3382 18.4323 52.0577 15.3889 51.7208 14.2126C51.5369 13.5704 50.9981 12.7514 50.2159 13.0771ZM72.8981 13.0721C71.2443 13.4899 71.4679 16.5202 71.7151 17.755C71.8312 18.3352 72.2783 19.2529 73.0086 19.1342C74.6389 18.8689 74.3197 15.4325 74.1051 14.3233C73.9911 13.7336 73.6581 12.88 72.8981 13.0721ZM105.776 12.9949H105.001L105.223 13.6591L105.776 12.9949ZM119.171 14.434V12.9949C118.506 13.3442 118.506 14.0847 119.171 14.434ZM18.101 13.1056C18.382 13.7954 18.356 14.7238 18.3296 15.6647C18.2906 17.059 18.2507 18.4808 19.208 19.1942C18.8273 18.1513 18.8473 17.04 18.8671 15.9392C18.8715 15.6949 18.8759 15.4512 18.8759 15.2089C18.8759 15.1478 18.8763 15.0871 18.8766 15.0269L18.8766 15.0263C18.8812 14.2422 18.8854 13.5348 18.101 13.1056ZM82.1969 13.1056L81.7541 13.2163L82.1969 14.1019H82.3076L82.1969 13.1056ZM33.9313 18.6407C33.0233 16.4597 33.1174 15.2829 34.2634 13.2163C32.4347 14.0715 31.9796 17.6494 33.9313 18.6407ZM41.6803 13.2163C42.1798 14.5867 42.2521 17.6234 41.6803 18.9728C42.3477 18.7746 42.3463 18.2268 42.3447 17.6277L42.3445 17.5336C42.3446 17.2914 42.3664 16.9907 42.3902 16.6605C42.4809 15.4043 42.6024 13.7224 41.6803 13.2163ZM48.5438 13.2163C47.0411 14.7326 46.5919 17.2523 48.4331 18.7514C47.9213 17.5206 47.5403 16.339 47.8685 14.9875C47.9338 14.7184 48.0628 14.4577 48.1911 14.1983C48.3517 13.8735 48.5114 13.5507 48.5438 13.2163ZM92.3814 13.2163C92.7746 14.9364 92.8623 17.2613 92.3814 18.9728C93.0266 18.7696 93.0426 18.1304 93.0455 17.5336C93.0467 17.2998 93.0675 17.01 93.0904 16.6912C93.1808 15.4353 93.3035 13.7291 92.3814 13.2163ZM101.112 16.7976L101.112 16.7978C101.217 17.0432 101.322 17.2886 101.428 17.5336C101.477 17.6478 101.522 17.7697 101.568 17.8932L101.568 17.8933C101.765 18.4252 101.973 18.9867 102.566 19.0835C102.256 18.0076 101.747 16.9416 101.25 15.9003L101.25 15.9002C101.067 15.5186 100.887 15.1403 100.718 14.7661C100.687 14.6981 100.658 14.6307 100.628 14.564C100.369 13.9726 100.138 13.4467 99.4663 13.2163C100.078 14.3796 100.595 15.5887 101.112 16.7976ZM114.854 13.2163C115.405 14.7294 115.331 17.5556 114.854 19.0835C115.922 18.4974 115.768 14.9975 115.483 13.8822C115.393 13.5315 115.153 13.3763 114.854 13.2163ZM14.78 13.327C14.5153 13.9518 14.4725 14.5034 15.1121 14.8768L15.0014 13.327H14.78ZM111.201 13.327L111.773 15.2177L111.984 14.6549L111.201 13.327ZM37.4737 13.4377C37.917 15.3719 37.9891 16.8235 37.4737 18.7514C38.827 17.5913 38.8517 14.5878 37.4737 13.4377ZM74.2265 13.4377C74.8098 15.2623 74.8061 16.9618 74.1158 18.7514C75.4838 17.6178 75.7249 14.5536 74.2265 13.4377ZM77.8796 13.4377L77.8678 13.458C77.7082 13.7326 77.5477 14.0088 77.48 14.3233C77.1329 15.9354 78.3727 16.2612 79.6113 16.5867C80.8246 16.9056 82.0366 17.2242 81.7541 18.7514H81.8648C82.8371 17.0157 81.4053 16.6222 79.9995 16.2357C79.3025 16.0441 78.6118 15.8542 78.2236 15.5034C77.6925 15.0232 77.7544 14.6002 77.8266 14.1077C77.857 13.8999 77.8893 13.6798 77.8796 13.4377ZM85.4073 18.6407C84.4847 16.6552 84.3694 15.4102 85.4073 13.4377C83.406 14.3913 83.8539 17.5372 85.4073 18.6407ZM88.6176 13.4377L88.9497 15.3196H89.3925C89.3355 14.6027 89.1804 13.9202 88.6176 13.4377ZM107.88 13.4377C106.717 14.7817 106.059 17.6422 108.101 18.6407C107.523 17.5413 107.098 16.47 107.336 15.2089C107.38 14.9751 107.488 14.7284 107.597 14.4807C107.753 14.1235 107.91 13.7641 107.88 13.4377ZM18.101 15.7624C17.6685 15.8652 17.2483 16.0124 16.8837 16.2759C16.6243 16.4633 16.389 16.6977 16.2346 16.9802C15.2297 18.8187 17.9851 19.6943 18.0966 17.4229C18.1151 17.044 18.1103 16.6622 18.1054 16.2812C18.1032 16.108 18.101 15.9349 18.101 15.7624ZM15.3335 16.3159C14.2114 17.0824 13.4016 18.7624 15.2228 19.3049V19.1942C14.335 18.4532 14.6284 17.8781 14.9676 17.213L14.9676 17.213C15.109 16.9358 15.2584 16.6429 15.3335 16.3159ZM77.3261 18.0871V19.0835L77.9903 18.8621L77.3261 18.0871Z" fill="black"/>
</g>
<defs>
<clipPath id="clip0_1_78">
<rect width="120" height="30" fill="white" transform="translate(0.5 0.00964355)"/>
</clipPath>
</defs>
</svg>
