<svg width="158" height="16" viewBox="0 0 158 16" fill="none" xmlns="http://www.w3.org/2000/svg">
<g clip-path="url(#clip0_1_66)">
<path d="M156.454 16.0096L156.288 15.9539L153.311 16.0096C153.135 16.0012 152.941 15.9969 152.718 15.9969C152.524 15.9969 152.328 15.9969 152.138 16.003H152.124C151.935 16.003 151.74 16.009 151.551 16.009C151.011 16.0274 150.472 15.9717 149.947 15.8435C149.929 15.833 149.913 15.8191 149.9 15.8024C149.887 15.7858 149.878 15.7667 149.873 15.7464C149.845 15.6509 149.852 15.5485 149.893 15.4577C150.051 15.3787 150.227 15.3416 150.404 15.3498C150.699 15.334 151.005 15.317 151.105 15.0156L151.159 14.4643V1.44705C150.892 0.913939 150.311 0.840553 149.727 0.840553C149.725 0.783287 149.721 0.726128 149.712 0.669495C149.692 0.516658 149.675 0.384458 149.836 0.345035H154.086C154.301 0.399013 154.524 0.455424 154.524 0.730167C154.461 0.953964 154.188 0.97275 153.925 0.994584C153.75 0.988565 153.575 1.0305 153.422 1.11589C153.129 1.24144 153.058 1.56289 152.993 1.84673C152.972 1.94013 152.952 2.02868 152.926 2.10874V14.4097C152.76 14.7936 153.033 15.069 153.252 15.2897L153.255 15.2928C153.549 15.4383 153.876 15.5048 154.204 15.4856C154.554 15.487 154.903 15.4405 155.241 15.3474C155.926 14.918 156.175 14.1665 156.439 13.3714C156.512 13.15 156.588 12.9214 156.674 12.7006L157.06 9.83247C157.08 9.80274 157.107 9.7791 157.139 9.76429C157.171 9.74947 157.207 9.74409 157.242 9.74878C157.336 9.75057 157.427 9.77966 157.504 9.83247V14.961H157.449C157.449 15.0247 157.449 15.0974 157.455 15.1751V15.1781C157.483 15.4382 157.463 15.7013 157.394 15.9539C157.281 15.9928 157.161 16.0101 157.041 16.0048C156.97 16.0048 156.897 16.0018 156.832 15.9987H156.825C156.76 15.9987 156.698 15.9933 156.64 15.9933C156.579 15.9916 156.517 15.9972 156.458 16.0102L156.454 16.0096ZM142.038 15.9636C141.839 15.9636 141.64 15.9636 141.448 15.9587C141.266 15.9587 141.084 15.9544 140.906 15.9544C140.806 15.925 140.703 15.9117 140.599 15.915C140.437 15.9102 140.269 15.9053 140.197 15.8065C140.174 15.7615 140.161 15.7118 140.159 15.661C140.157 15.6103 140.167 15.5599 140.188 15.5135C140.188 15.3437 140.337 15.3207 140.483 15.3207C140.522 15.3207 140.563 15.3207 140.602 15.3243H140.612C140.65 15.3243 140.688 15.3273 140.724 15.3273C140.787 15.3321 140.849 15.3204 140.906 15.2934C141.128 15.1555 141.318 14.9703 141.461 14.7509C141.604 14.5315 141.697 14.2833 141.733 14.024L142.394 10.2728L143.221 5.52876L143.719 2.77162C143.748 2.62909 143.775 2.47992 143.801 2.33618L143.806 2.30827C143.888 1.62682 144.082 0.963559 144.379 0.345035L145.097 0.400229L145.703 3.10218C145.803 3.79844 145.961 4.47225 146.114 5.12424C146.325 5.94672 146.482 6.78198 146.585 7.62481L147.576 12.2033C147.663 12.4914 147.724 12.8098 147.783 13.113C147.951 13.9852 148.126 14.8852 148.9 15.2934L148.989 15.3098C149.14 15.3358 149.295 15.3625 149.356 15.4693C149.377 15.5207 149.386 15.576 149.384 15.6314C149.381 15.6868 149.366 15.741 149.34 15.7901L149.285 15.8998C148.646 15.9277 147.891 15.9557 147.144 15.9557C146.423 15.9633 145.701 15.9264 144.984 15.8453C144.952 15.7843 144.935 15.7168 144.933 15.648C144.932 15.5792 144.946 15.511 144.975 15.4486C145.065 15.3116 145.292 15.2958 145.511 15.2812C145.672 15.2854 145.831 15.2519 145.976 15.1836C146.115 15.0284 146.213 14.8411 146.261 14.6387C146.309 14.4362 146.306 14.225 146.252 14.024C146.219 13.8681 146.187 13.7068 146.156 13.5515C146.07 12.9522 145.898 12.3683 145.647 11.8175C145.27 11.7939 144.872 11.7812 144.498 11.7812C143.978 11.7762 143.459 11.8068 142.944 11.8727C142.738 12.2246 142.625 12.6226 142.615 13.0299C142.592 13.1621 142.557 13.3065 142.52 13.4593C142.375 14.0549 142.195 14.7936 142.725 15.237C142.849 15.3197 142.998 15.354 143.146 15.3334H143.255H143.359C143.561 15.3334 143.707 15.3528 143.768 15.4486C143.82 15.5299 143.803 15.6603 143.717 15.8465C143.162 15.9354 142.6 15.9746 142.038 15.9636ZM144.103 4.92167C143.996 5.20438 143.918 5.49692 143.869 5.79503C143.838 5.94484 143.808 6.09827 143.771 6.24565L143.33 9.16897C143.172 9.80334 143.062 10.4486 143 11.0994L143.276 11.2662L145.482 11.2116L145.591 11.0994C145.429 9.97815 145.204 8.86674 144.919 7.77037C144.7 6.86972 144.475 5.93817 144.323 4.97687L144.103 4.92167ZM138.937 15.9047C138.87 15.9092 138.805 15.8874 138.755 15.8441C138.575 15.5681 138.453 15.2587 138.396 14.9343C138.339 14.61 138.217 14.3005 138.038 14.0246C137.743 13.2968 137.51 12.5114 137.284 11.749C137.064 10.949 136.8 10.1618 136.493 9.39093L135.391 6.24565C135.3 5.96361 135.19 5.68835 135.061 5.42201C134.957 5.20494 134.864 4.98222 134.785 4.75487L134.675 4.81007C134.518 5.42337 134.499 6.06387 134.62 6.68534L134.564 9.66445V14.5735V14.5801C134.644 14.8662 134.818 15.1168 135.058 15.2915C135.14 15.3321 135.23 15.3499 135.321 15.3431C135.372 15.3431 135.426 15.3431 135.474 15.3383H135.477C135.529 15.3383 135.583 15.3328 135.633 15.3328C135.822 15.3328 135.997 15.368 135.997 15.6215L135.941 15.8428L132.855 15.8974C132.819 15.8883 132.78 15.881 132.742 15.8732C132.553 15.8356 132.357 15.7973 132.357 15.5699C132.462 15.3613 132.721 15.3498 132.998 15.3376C133.301 15.3237 133.62 15.3097 133.736 15.0186C133.928 14.4891 134.004 13.9243 133.957 13.3629L133.901 7.01832V1.72298C133.807 1.06311 133.238 0.928491 132.689 0.798094H132.685C132.595 0.776867 132.503 0.755042 132.416 0.731388C132.302 0.656183 132.344 0.553045 132.382 0.462677C132.4 0.425839 132.412 0.385989 132.416 0.345035C132.828 0.294338 133.243 0.271456 133.658 0.276516C133.866 0.276516 134.07 0.27954 134.287 0.283179C134.504 0.286818 134.723 0.290434 134.948 0.290434C134.995 0.332084 135.046 0.368116 135.101 0.397785C135.203 0.442404 135.287 0.522205 135.336 0.622816C135.752 1.79032 136.136 2.99179 136.506 4.15445V4.16111C137.113 6.06733 137.742 8.03783 138.53 9.89007C138.553 9.88912 138.575 9.88323 138.595 9.87275C138.615 9.86227 138.633 9.84747 138.647 9.82944C138.675 9.78092 138.647 9.71179 138.621 9.6378C138.582 9.53409 138.538 9.41701 138.642 9.33877C138.618 8.84144 138.625 8.34535 138.632 7.86561C138.652 7.19814 138.637 6.53003 138.587 5.86414C138.637 5.52106 138.652 5.1738 138.632 4.82765C138.621 4.54807 138.624 4.26807 138.643 3.98887C138.556 3.93186 138.589 3.85967 138.617 3.7966C138.634 3.75839 138.65 3.72261 138.638 3.69532C138.632 3.68582 138.625 3.67759 138.616 3.67111C138.607 3.66463 138.597 3.66004 138.587 3.65771C138.637 3.17366 138.634 2.68556 138.578 2.20214V2.19666C138.556 1.89341 138.532 1.57439 138.532 1.28691C138.37 1.10123 138.164 0.958649 137.933 0.87187C137.703 0.785092 137.454 0.756812 137.21 0.78958C137.208 0.772441 137.206 0.75543 137.202 0.738644C137.181 0.627048 137.138 0.394173 137.319 0.349292H140.517C140.682 0.391141 140.661 0.527594 140.639 0.659204C140.631 0.702271 140.626 0.745832 140.625 0.78958C140.494 0.846577 140.357 0.887323 140.217 0.910887C139.97 0.929059 139.741 1.04343 139.578 1.22931L139.357 1.78121L139.302 4.75972V14.1938C139.283 14.4171 139.28 14.6414 139.292 14.8652C139.315 15.1752 139.3 15.4868 139.247 15.7931C139.16 15.8657 139.05 15.9052 138.937 15.9047ZM130.329 15.9047C130.214 15.9051 130.099 15.8846 129.991 15.8441C129.68 15.8441 129.563 15.6288 129.439 15.4001C129.373 15.2559 129.279 15.1256 129.164 15.0162L128.997 13.415V10.217V10.1806C128.942 9.47038 128.881 8.66437 128.339 8.28591C128.045 8.05861 127.681 7.93993 127.309 7.9499C127.095 7.94853 126.882 7.9874 126.683 8.06451L126.573 8.23072C126.47 9.43357 126.456 10.6423 126.531 11.8472C126.563 12.6581 126.595 13.4939 126.573 14.4091L126.576 14.4285C126.629 14.7572 126.69 15.1302 127.068 15.2922C127.181 15.3096 127.294 15.3197 127.408 15.3225C127.593 15.3245 127.776 15.3512 127.954 15.4019C127.978 15.4658 127.987 15.5342 127.981 15.6021C127.977 15.6839 127.986 15.7658 128.008 15.8447L125.087 15.8993L123.488 15.7889C123.455 15.7467 123.43 15.6979 123.417 15.6456C123.403 15.5933 123.401 15.5388 123.411 15.4856C123.412 15.4585 123.42 15.4321 123.434 15.4086C123.447 15.385 123.466 15.3649 123.488 15.3498C123.701 15.3586 123.913 15.3242 124.112 15.2486C124.312 15.173 124.493 15.0579 124.647 14.9101L124.813 14.3588V1.66964C124.796 1.62051 124.781 1.57136 124.765 1.52223C124.744 1.38299 124.693 1.25006 124.615 1.13259C124.537 1.01511 124.435 0.915881 124.315 0.841738C124.211 0.808801 124.102 0.792233 123.993 0.792616C123.762 0.780486 123.544 0.768362 123.544 0.511207C123.562 0.450886 123.6 0.39844 123.651 0.362582C123.703 0.326724 123.765 0.309606 123.828 0.314088C123.878 0.315249 123.929 0.31931 123.979 0.32623H123.987C124.046 0.333777 124.105 0.338026 124.165 0.338964C124.254 0.340628 124.343 0.323709 124.425 0.28925C125.252 0.345047 125.923 0.345035 126.849 0.345035C127.154 0.304667 127.46 0.284421 127.767 0.2844C129.253 0.2844 130.337 0.816272 130.818 1.78121C131.136 2.29494 131.344 2.86877 131.429 3.4667C131.514 4.06462 131.475 4.67374 131.314 5.25583C131.219 5.42565 131.127 5.6052 131.037 5.77926C130.647 6.53981 130.243 7.32583 129.439 7.68245C129.439 7.9857 129.638 8.14034 129.849 8.30712C129.993 8.40544 130.117 8.53067 130.213 8.67589L130.251 8.75171L130.261 8.77169C130.505 9.17611 130.641 9.63682 130.654 10.109L130.764 12.9232C130.764 12.9632 130.764 13.005 130.764 13.0487V13.0596C130.759 13.5685 130.753 14.2653 131.206 14.4685C131.701 14.303 131.733 13.6989 131.764 13.1154C131.774 12.9201 131.785 12.7188 131.813 12.5381C131.862 12.5064 131.92 12.4918 131.977 12.4968C132.035 12.4919 132.093 12.5064 132.142 12.5381C132.251 13.0818 132.232 13.6433 132.089 14.1789C131.945 14.7144 131.681 15.2097 131.315 15.6263L131.285 15.6391C130.986 15.7891 130.661 15.879 130.327 15.9035L130.329 15.9047ZM127.629 0.73683C127.477 0.737861 127.327 0.754508 127.179 0.786545C127.029 0.835037 126.894 0.921586 126.788 1.03767C126.682 1.15376 126.608 1.29543 126.572 1.44886C126.572 3.51095 126.572 5.14426 126.627 7.24031C126.965 7.32888 127.313 7.37091 127.662 7.36525C127.984 7.37564 128.305 7.33344 128.613 7.24031C129.09 7.02743 129.257 6.58042 129.44 5.97149L129.495 3.04817C129.48 2.94204 129.469 2.82438 129.458 2.70065C129.446 2.36815 129.385 2.0393 129.276 1.72483C129.1 1.44041 128.858 1.20225 128.571 1.03019C128.284 0.858137 127.96 0.757133 127.627 0.735608L127.629 0.73683ZM118.304 15.8471C117.763 15.7496 117.258 15.5089 116.841 15.15C116.424 14.7911 116.111 14.3272 115.933 13.8062C115.505 12.9135 115.539 11.6689 115.57 10.4657C115.601 9.86898 115.593 9.27088 115.545 8.67526V1.55925C115.46 1.25867 115.263 1.00218 114.994 0.842367C114.891 0.808428 114.783 0.78802 114.674 0.781695C114.442 0.756829 114.223 0.733194 114.223 0.512429C114.215 0.485507 114.214 0.457305 114.218 0.429695C114.222 0.402084 114.232 0.375714 114.248 0.352328C114.294 0.291678 114.388 0.291678 114.49 0.2844C114.57 0.28818 114.649 0.271672 114.721 0.236462L117.973 0.289842C118.098 0.230631 118.234 0.199778 118.372 0.199482C118.455 0.192625 118.538 0.207605 118.613 0.242941C118.688 0.278277 118.752 0.332712 118.8 0.400821C118.856 0.732575 118.631 0.788389 118.414 0.842367C118.127 0.859548 117.854 0.976414 117.643 1.1729C117.45 1.64449 117.375 2.15577 117.422 2.66308V8.95245L117.367 9.00764C117.422 9.83551 117.422 10.5396 117.422 11.2207C117.422 11.9018 117.422 12.6199 117.477 13.4751C117.548 13.8076 117.688 14.1216 117.887 14.3969C118.087 14.6722 118.342 14.9027 118.636 15.0738C118.788 15.1076 118.944 15.1248 119.1 15.1248C119.288 15.1353 119.475 15.1069 119.651 15.0413C119.828 14.9758 119.988 14.8745 120.124 14.7439C120.355 14.5441 120.543 14.299 120.675 14.0237C120.808 13.7484 120.882 13.4487 120.895 13.1433V7.62785L120.84 7.29732L120.895 2.44534C120.956 1.94352 120.839 1.43603 120.565 1.01157C120.308 0.858734 120.015 0.775139 119.716 0.768961C119.626 0.758651 119.541 0.748951 119.463 0.735608L119.519 0.349885L122.44 0.294099C122.512 0.2988 122.579 0.32936 122.63 0.380128C122.681 0.430896 122.711 0.498385 122.716 0.570028C122.716 0.739241 122.553 0.741682 122.395 0.744715C122.316 0.733982 122.235 0.749985 122.165 0.790209C122.026 0.809532 121.896 0.873959 121.797 0.973706C121.697 1.07345 121.633 1.20306 121.614 1.34273L121.447 2.22457V13.2586C121.312 14.1536 120.839 14.9626 120.125 15.519C119.761 15.7416 119.334 15.8403 118.909 15.8004C118.706 15.7989 118.503 15.8158 118.303 15.8507L118.304 15.8471ZM47.3244 15.8331C46.9384 15.8354 46.5555 15.7646 46.1958 15.6245L45.038 14.8531C45.0008 14.8372 44.9609 14.8286 44.9204 14.8276C44.7992 14.8276 44.7325 14.9301 44.678 15.021C44.6557 15.0599 44.6292 15.0963 44.5992 15.1296C44.5992 15.4438 44.5519 15.6755 44.3234 15.7913L43.9372 15.6809L43.8821 12.481V8.89482C43.9611 8.86428 44.0455 8.85025 44.1301 8.85358C44.2148 8.85022 44.2994 8.86425 44.3785 8.89482L44.3901 9.13376C44.4943 11.3172 44.6022 13.5709 46.1976 14.6869C46.5763 14.9669 47.0292 15.1292 47.4996 15.1533C47.6754 15.1527 47.8501 15.1257 48.0178 15.0732C48.9416 14.685 49.4502 13.6661 49.4502 12.2051C49.4214 11.7127 49.2886 11.232 49.0606 10.7947C48.8326 10.3575 48.5147 9.97348 48.1276 9.66811C47.6275 9.10481 47.0658 8.59929 46.4533 8.16098C45.7324 7.65662 45.0893 7.04909 44.5446 6.35785C44.4041 6.1676 44.3042 5.9504 44.2513 5.71981C44.2033 5.53946 44.1353 5.3651 44.0482 5.20005C43.7929 4.33782 43.7952 3.41969 44.0549 2.55876C44.288 1.77331 44.701 1.0531 45.2611 0.455422C45.6943 0.172851 46.1988 0.0192784 46.7159 0.0126538C46.8766 0.0119386 47.0368 0.0308911 47.1929 0.0690687C47.6688 0.227444 48.1026 0.491863 48.4616 0.842367C48.5246 0.889744 48.6015 0.914897 48.6804 0.913922C48.8079 0.904865 48.9314 0.865804 49.041 0.799908H49.0452L49.0671 0.788988C49.1445 0.685668 49.187 0.560289 49.1883 0.431138C49.2132 0.244944 49.2362 0.0672548 49.4489 0.0672548C49.4692 0.0671636 49.4895 0.0683679 49.5096 0.0708825L49.7854 0.126705V5.91874C49.7363 5.94361 49.7308 6.02063 49.7248 6.10069C49.7181 6.19955 49.7114 6.30206 49.6198 6.30206H49.2883C49.1901 4.42556 49.0689 2.09112 47.4699 1.06129C47.1877 0.887793 46.8645 0.792576 46.5334 0.78536C46.242 0.833118 45.9676 0.95449 45.7361 1.13799C45.5047 1.32149 45.3239 1.56105 45.2108 1.834C45.0426 2.19875 44.9601 2.59719 44.9697 2.99879C44.9792 3.4004 45.0805 3.7945 45.2659 4.15082C45.8124 4.83883 46.4623 5.43788 47.1923 5.92663C47.6162 6.23069 48.0223 6.55873 48.4088 6.90915L48.5621 7.07047L48.59 7.09961C49.5144 8.07 50.5625 9.16712 50.6146 10.8253C50.7233 11.6751 50.6188 12.5386 50.3108 13.338C50.0028 14.1374 49.5008 14.8475 48.8501 15.4044C48.3946 15.6979 47.8611 15.8469 47.3196 15.8319L47.3244 15.8331ZM102.04 15.8137C101.711 15.8063 101.387 15.7263 101.092 15.5795C100.797 15.4328 100.538 15.2228 100.334 14.9646C99.6826 14.0197 99.0813 12.8807 99.5626 11.5998C99.6572 11.3664 99.8161 11.1648 100.021 11.0183C100.226 10.8718 100.468 10.7866 100.719 10.7725L100.772 10.7932L100.786 10.7986C101.043 10.8999 101.335 11.0139 101.436 11.2681C101.425 11.4589 101.44 11.6504 101.482 11.8369C101.536 12.1475 101.588 12.4404 101.381 12.6472C101.361 12.7382 101.322 12.8237 101.265 12.8979C101.209 12.9722 101.138 13.0333 101.056 13.0772C100.96 13.1255 100.879 13.1978 100.821 13.2869C100.762 13.376 100.727 13.4789 100.72 13.5855C100.715 13.8839 100.796 14.1776 100.952 14.4318C101.108 14.686 101.334 14.89 101.603 15.0198C101.684 15.0382 101.767 15.0478 101.85 15.0483C102.005 15.0394 102.157 14.9977 102.294 14.9261C102.432 14.8545 102.553 14.7546 102.65 14.6329C102.887 13.6272 102.953 12.5886 102.845 11.561V11.5537C102.83 11.1947 102.816 10.8556 102.816 10.5494L102.872 7.35007V1.66842C102.782 1.3371 102.611 1.03351 102.374 0.78536C102.244 0.699614 102.09 0.660667 101.935 0.674973C101.877 0.674973 101.817 0.674985 101.764 0.67923C101.711 0.683476 101.648 0.683451 101.593 0.683451C101.385 0.683451 101.181 0.655543 101.108 0.454793L101.274 0.124262C102.018 0.124262 102.672 0.156429 103.304 0.184934C103.936 0.213439 104.529 0.245569 105.198 0.245569C105.44 0.245569 105.669 0.241941 105.904 0.234056C105.927 0.229369 105.95 0.226917 105.973 0.226764C106.009 0.224349 106.045 0.232403 106.076 0.249937C106.108 0.267471 106.134 0.293757 106.151 0.325638C106.172 0.372934 106.181 0.424917 106.177 0.476633C106.172 0.528349 106.154 0.578066 106.125 0.621002C106.01 0.644049 105.896 0.661622 105.785 0.681637C105.381 0.691981 104.994 0.847379 104.694 1.11952C104.516 1.67111 104.476 2.25791 104.577 2.82862C104.634 3.24994 104.636 3.67673 104.585 4.09866C104.605 4.20768 104.605 4.31954 104.585 4.42856C104.563 4.57536 104.563 4.72453 104.585 4.87133C104.622 5.35653 104.609 5.88538 104.596 6.39605C104.59 6.63865 104.585 6.86244 104.585 7.07714V13.2562C104.281 14.2629 103.792 15.4541 102.655 15.7367C102.453 15.7878 102.244 15.8133 102.036 15.8125L102.04 15.8137ZM84.1816 15.8052C83.9562 15.8052 83.7264 15.8016 83.504 15.7986H83.4986C83.2712 15.7949 83.0354 15.7913 82.7996 15.7913C82.0347 15.7434 81.2334 15.7222 80.2023 15.7222C79.7817 15.7222 79.3537 15.7258 78.9428 15.7288H78.9354C78.5227 15.7319 78.0959 15.7355 77.6722 15.7355C77.6402 15.7219 77.6122 15.7003 77.5909 15.6726C77.5697 15.645 77.5559 15.6123 77.551 15.5778C77.5357 15.5201 77.5335 15.4598 77.5448 15.4012C77.556 15.3426 77.5803 15.2873 77.6159 15.2394C77.7801 15.1908 77.9483 15.1567 78.1184 15.1375C78.3056 15.1397 78.4909 15.1006 78.6613 15.0229C78.8317 14.9452 78.9829 14.8309 79.104 14.6881C79.4525 14.4164 79.4204 13.7953 79.3895 13.1943C79.3717 12.9571 79.3685 12.7192 79.3798 12.4816C79.4046 11.9413 79.3852 11.3141 79.3664 10.7076C79.3283 9.99397 79.3327 9.27865 79.3798 8.56551L79.3246 5.42082V1.50224C79.2589 1.2717 79.1223 1.06771 78.9342 0.919216C78.7461 0.770726 78.516 0.685267 78.2766 0.674973H78.1826H78.1766H78.0765C77.8947 0.674973 77.7626 0.657387 77.6953 0.570658C77.6698 0.528281 77.6542 0.480625 77.6499 0.431323C77.6456 0.382022 77.6527 0.332384 77.6705 0.286214C77.7008 0.172799 79.2398 0.115156 82.245 0.115156C82.8791 0.115156 83.4397 0.115167 83.8495 0.119413H83.9034H84.3447C84.4455 0.167502 84.557 0.188394 84.6684 0.180048C84.7338 0.180048 84.8042 0.180064 84.8715 0.174606C84.9388 0.169147 85.0121 0.168535 85.08 0.168535C85.2727 0.168535 85.4794 0.189171 85.5564 0.343221C85.5564 1.04433 85.5631 1.73816 85.5691 2.34465C85.5813 3.6183 85.5928 4.82281 85.5564 6.13345C85.5369 6.17649 85.5045 6.21236 85.4636 6.23606C85.4228 6.25976 85.3755 6.27014 85.3285 6.26567C85.2503 6.2679 85.1741 6.2406 85.1151 6.18923C85.0885 5.92844 85.0654 5.65613 85.043 5.39291V5.38443C84.8775 3.42787 84.7066 1.40518 82.9669 0.727724C82.8479 0.685265 82.7223 0.664731 82.596 0.667089C82.4222 0.672781 82.2493 0.693054 82.0789 0.727724C81.9174 0.760447 81.7533 0.779515 81.5886 0.784731C81.4411 0.893696 81.32 1.03443 81.2342 1.19651C81.1483 1.3586 81.1 1.53789 81.0928 1.72117V7.07229C81.1449 7.22876 81.1982 7.34885 81.3685 7.34885C82.5984 7.02922 82.7385 5.71739 82.873 4.448C82.9009 4.18478 82.93 3.91245 82.9688 3.65227C82.9916 3.62211 83.022 3.59852 83.057 3.58393C83.0919 3.56934 83.1301 3.56424 83.1676 3.56916C83.256 3.56504 83.3427 3.59476 83.4101 3.65227V5.9139C83.4749 5.97818 83.4646 6.00488 83.4446 6.05886C83.4209 6.11781 83.4091 6.18088 83.4101 6.24443C83.4608 6.50643 83.4762 6.77405 83.4561 7.04016C83.4439 7.2716 83.4472 7.5036 83.4658 7.73461V9.22353C83.4013 9.63767 83.3798 10.0574 83.4015 10.4759C83.4327 10.9434 83.3983 11.413 83.2991 11.8709C83.2799 11.8896 83.2571 11.9042 83.2321 11.914C83.2071 11.9238 83.1804 11.9285 83.1536 11.9279C83.1006 11.9284 83.0488 11.9123 83.0054 11.882C82.9619 11.8517 82.9291 11.8086 82.9112 11.7587C82.8985 11.6125 82.8876 11.4639 82.8761 11.3068V11.3038C82.7869 10.1054 82.6863 8.74682 81.8092 8.0627C81.7282 8.00172 81.6278 7.9724 81.5267 7.98022C81.4134 7.97695 81.3015 8.00552 81.2037 8.0627L81.0922 8.45086V12.0347H81.1479C81.157 12.3257 81.1479 12.6169 81.1207 12.9068C81.0679 13.6594 81.0085 14.5128 81.4789 14.9052C81.8031 15.0558 82.1573 15.1311 82.5147 15.1254C82.7036 15.1256 82.8921 15.1069 83.0772 15.0696C84.1404 14.7305 84.5277 13.7104 84.9023 12.7236C84.9587 12.575 85.0097 12.4416 85.0618 12.3112C85.0198 12.055 85.0424 11.7924 85.1273 11.547C85.1858 11.3471 85.2193 11.1408 85.2272 10.9326L85.3376 9.16715C85.3642 9.13415 85.3973 9.10695 85.4349 9.08723C85.4724 9.06752 85.5135 9.05569 85.5558 9.05251C85.6169 9.05546 85.6758 9.07656 85.7249 9.11314L85.8352 9.22294C85.7907 9.54458 85.7856 9.87044 85.8201 10.1933C85.8588 10.8307 85.8995 11.4894 85.3958 11.7096C85.3676 11.7946 85.3108 11.8673 85.2351 11.9152C85.1842 11.9448 85.1418 11.9871 85.1119 12.0378C85.0819 12.0886 85.0656 12.1462 85.0642 12.2051C85.1133 12.156 85.1648 12.108 85.2194 12.0571L85.226 12.0504C85.4345 11.8674 85.6209 11.6606 85.7813 11.4342H85.8916L85.837 14.6347C85.8057 14.785 85.7986 14.9394 85.8158 15.092C85.8322 15.3868 85.8473 15.6646 85.5606 15.7361C85.1014 15.7867 84.6394 15.8091 84.1774 15.8034L84.1816 15.8052ZM66.4483 15.8052C66.3673 15.8051 66.2863 15.8004 66.2058 15.7913C65.6977 15.6434 65.2645 15.3084 64.9935 14.8537L64.8281 13.8062V9.83488L64.8207 9.8003C64.6559 9.02884 64.4856 8.23133 63.7261 8.0142C63.5009 7.93663 63.2652 7.89349 63.0272 7.88623C62.8642 7.87567 62.7024 7.92079 62.5683 8.0142L62.4574 8.23435V14.36C62.5714 14.6984 62.6799 14.9665 62.9544 15.0762C63.0048 15.0866 63.0599 15.0926 63.1126 15.0993C63.2576 15.0948 63.3989 15.1455 63.5079 15.2412C63.5347 15.2816 63.5532 15.3269 63.5622 15.3745C63.5713 15.4221 63.5707 15.471 63.5606 15.5184L63.4497 15.6846L60.5832 15.7392C60.5419 15.7362 60.5012 15.7281 60.462 15.7149C60.4228 15.7017 60.382 15.6935 60.3407 15.6906C60.3232 15.6891 60.3056 15.693 60.2903 15.7016C60.2749 15.7103 60.2625 15.7234 60.2547 15.7392C60.1814 15.6918 60.0943 15.6704 60.0074 15.6785C59.9221 15.6802 59.8369 15.6863 59.7522 15.6967H59.748C59.6659 15.7069 59.5833 15.713 59.5006 15.7149C59.3758 15.7149 59.3 15.6894 59.2582 15.6354C59.2364 15.5916 59.2251 15.5434 59.2251 15.4944C59.2251 15.4455 59.2364 15.3972 59.2582 15.3534C59.2582 15.1714 59.3685 15.132 59.534 15.132C59.5625 15.132 59.5946 15.132 59.6219 15.132H59.6255C59.6583 15.132 59.6897 15.132 59.7219 15.132C59.8104 15.1388 59.8988 15.1176 59.9746 15.0714C60.1723 15.0076 60.343 14.8795 60.4596 14.7075C60.5008 14.6596 60.5402 14.6141 60.5808 14.5747C60.5851 14.4663 60.6002 14.3586 60.6257 14.2532C60.6832 14.0709 60.6866 13.8758 60.6354 13.6916L60.6911 10.4935C60.6911 10.0393 60.6844 9.59472 60.6784 9.16471C60.6662 8.31561 60.6541 7.50776 60.6911 6.74176C60.6911 5.90358 60.6911 4.75548 60.6354 3.87363C60.6633 3.59767 60.6633 3.24713 60.6633 2.9081C60.6633 2.56907 60.6632 2.21912 60.6911 1.94316C60.5826 1.45796 60.4705 0.950304 60.0298 0.784731C59.9063 0.74789 59.7773 0.732535 59.6485 0.739273C59.4255 0.739273 59.2151 0.734406 59.1466 0.564587C59.1295 0.514217 59.1225 0.46094 59.1261 0.407854C59.1296 0.354768 59.1436 0.302917 59.1673 0.255267C59.19 0.220807 59.2194 0.191283 59.2538 0.168461C59.2882 0.145639 59.3267 0.129991 59.3673 0.122448H64.7117C65.1663 0.248668 65.5909 0.465001 65.9604 0.758596C66.3298 1.05219 66.6365 1.41706 66.8623 1.83155C67.2926 3.18525 67.4236 5.09208 66.6962 6.07703C66.3214 6.64797 65.8337 7.1361 65.2633 7.51139C65.1942 7.75399 65.3184 7.84316 65.476 7.95779C65.5861 8.0296 65.6821 8.12109 65.7591 8.22768C66.5471 8.79294 66.6416 10.1011 66.6416 11.0364C66.6416 10.9593 66.5865 10.8841 66.5343 10.8841C66.5209 10.8848 66.5079 10.8895 66.4971 10.8976C66.4863 10.9057 66.4782 10.9168 66.4737 10.9296C66.4612 10.9605 66.4564 10.9941 66.4598 11.0273C66.4632 11.0604 66.4746 11.0923 66.4931 11.1201C66.5174 11.1496 66.5485 11.173 66.5835 11.1883C66.6186 11.2036 66.6568 11.2103 66.695 11.208C66.715 11.5489 66.7059 11.9097 66.695 12.2585C66.651 12.847 66.6878 13.4387 66.8041 14.0173C66.8277 14.0955 66.8701 14.1667 66.9277 14.2246C66.9854 14.2824 67.0563 14.3252 67.1344 14.349C67.3417 14.3072 67.4254 14.1392 67.4982 13.9912C67.5208 13.943 67.5462 13.8962 67.5745 13.8511C67.5489 13.4524 67.5711 13.0521 67.6406 12.6587C67.657 12.5374 67.6721 12.421 67.6854 12.3058C67.7071 12.3208 67.7329 12.3289 67.7594 12.3288C67.8099 12.3241 67.8585 12.3068 67.9006 12.2785L67.9067 12.2748C67.9429 12.25 67.9844 12.234 68.0279 12.2281C68.0673 12.2281 68.0982 12.253 68.1249 12.3058C68.2182 13.369 68.2395 14.8567 67.3533 15.5056C67.0894 15.6969 66.7722 15.8006 66.4464 15.8022L66.4483 15.8052ZM63.4782 0.750156C63.3932 0.749122 63.3086 0.762059 63.2278 0.788396C62.8199 0.788396 62.5859 1.04127 62.512 1.56044L62.5672 7.18693C62.8606 7.28251 63.1678 7.32921 63.4764 7.32519C63.7912 7.34189 64.1048 7.27517 64.3856 7.13174C64.7702 6.8243 65.0416 6.39756 65.1572 5.91874C65.1681 5.57122 65.1996 5.20672 65.233 4.82099V4.81673C65.3645 3.30716 65.5136 1.59562 64.2753 0.84296C64.1315 0.839222 63.9882 0.822786 63.8473 0.793837C63.7252 0.767573 63.6012 0.751969 63.4764 0.747158L63.4782 0.750156ZM109.956 15.804C109.548 15.8342 109.145 15.7123 108.822 15.462C107.789 14.4754 107.067 13.2069 106.748 11.8139C106.374 10.2265 106.219 8.59553 106.287 6.96616C106.316 4.70166 107.091 2.51004 108.493 0.731981C108.706 0.521553 108.961 0.357416 109.24 0.249826C109.52 0.142236 109.819 0.0935031 110.118 0.106679C110.407 0.1061 110.695 0.149437 110.971 0.235241C111.556 0.616749 112.047 1.12633 112.406 1.72542C112.973 2.67426 113.348 3.72514 113.511 4.81854V4.82461C113.563 5.0569 113.617 5.29708 113.673 5.5318C113.87 6.99989 113.89 8.48629 113.734 9.95922C113.62 11.2956 113.262 12.5998 112.679 13.8075C112.271 14.5806 111.661 15.2285 110.914 15.6821C110.6 15.7601 110.277 15.8 109.952 15.801L109.956 15.804ZM109.94 0.729537C109.899 0.729537 109.856 0.729549 109.814 0.733795C109.061 0.895123 108.723 1.68903 108.491 2.44412C108.491 3.00513 108.498 3.49093 108.504 3.96036V3.97188C108.516 4.83371 108.526 5.57789 108.49 6.47005C108.476 6.57102 108.49 6.67403 108.532 6.76723C108.568 6.83327 108.583 6.90858 108.576 6.98341C108.568 7.05824 108.539 7.12915 108.49 7.18693C108.546 7.21483 108.546 7.31309 108.546 7.40771C108.546 7.50232 108.546 7.60054 108.601 7.62844C108.545 8.16351 108.518 8.70129 108.521 9.2393V9.246C108.517 9.60626 108.512 9.94648 108.491 10.277C108.593 10.6878 108.607 11.1154 108.532 11.5319C108.491 11.8292 108.477 12.1297 108.491 12.4295C108.442 13.2689 108.564 14.3903 109.428 14.9659C109.648 15.0862 109.894 15.1488 110.144 15.1478C110.403 15.1567 110.657 15.0738 110.861 14.9137L110.956 14.7627C111.222 14.3948 111.413 13.9787 111.52 13.5376L111.576 6.36573L111.52 6.30995V2.83469L111.41 1.78728C111.293 1.48703 111.092 1.22712 110.83 1.03889C110.569 0.850666 110.258 0.74215 109.937 0.726502L109.94 0.729537ZM91.7318 15.7907C91.3118 15.7907 90.8899 15.7701 90.4819 15.7501H90.4686C90.0637 15.7307 89.6455 15.71 89.2321 15.71C88.9581 15.71 88.7114 15.7185 88.478 15.7367C88.458 15.7402 88.4377 15.742 88.4174 15.7422C88.379 15.7444 88.3408 15.7354 88.3072 15.7165C88.2737 15.6976 88.2463 15.6695 88.2283 15.6354C88.201 15.5721 88.1895 15.503 88.1949 15.4342C88.2003 15.3654 88.2224 15.2989 88.2592 15.2406C88.372 15.2157 88.4913 15.1988 88.6071 15.18C89.0151 15.1236 89.3993 15.0702 89.5272 14.6857L89.5818 8.50787V1.22628C89.5376 1.13628 89.4761 1.05589 89.4008 0.989697C89.3255 0.92351 89.2379 0.872835 89.143 0.840553C88.3489 0.929102 88.1549 1.57804 87.967 2.20576C87.9216 2.3586 87.8743 2.51688 87.8185 2.66123L87.3791 5.64037C87.343 5.85369 87.334 6.07072 87.3524 6.28629C87.3657 6.60713 87.3779 6.91037 87.2136 7.07473L86.882 7.01891L86.8275 3.93005C86.8275 3.65652 86.8244 3.36599 86.8208 3.08397C86.7938 2.17056 86.814 1.25636 86.8814 0.345035C87.754 0.182622 88.6435 0.130659 89.5291 0.190375C91.3621 0.190375 93.4884 0.260138 93.9921 0.28925L94.1018 0.454793L94.1576 4.70027C94.0824 5.11934 94.0576 5.54593 94.0837 5.9709C94.1004 6.32004 94.0882 6.66996 94.0473 7.0171C94.0276 7.03904 94.0036 7.05672 93.9768 7.06903C93.95 7.08134 93.921 7.08804 93.8915 7.08869C93.8119 7.08029 93.7362 7.05004 93.6726 7.00133C93.6502 6.98738 93.6266 6.97221 93.606 6.9619L93.4399 4.25876C93.2357 3.07973 93.0247 1.86067 92.2828 0.948497C92.1858 0.86358 92.06 0.819074 91.9312 0.824155C91.8735 0.818735 91.8153 0.827218 91.7616 0.848845C91.7078 0.870472 91.66 0.904627 91.6221 0.948497L91.4003 1.16986V14.5735C91.4675 15.0447 91.9094 15.0641 92.3361 15.0829C92.585 15.0667 92.8335 15.1194 93.0544 15.2352C93.0732 15.2857 93.0807 15.3397 93.0766 15.3934C93.0725 15.4472 93.0568 15.4994 93.0306 15.5465C93.0044 15.5936 92.9683 15.6344 92.9248 15.6662C92.8813 15.698 92.8314 15.72 92.7786 15.7306C92.43 15.7697 92.0795 15.7885 91.7288 15.7871L91.7318 15.7907ZM54.7255 15.7379C54.6302 15.7358 54.5352 15.7267 54.4412 15.7107H54.4357C54.3472 15.695 54.2576 15.6858 54.1678 15.6833C54.0794 15.6808 53.9917 15.6995 53.912 15.7379C53.3989 15.6896 52.8834 15.6714 52.3681 15.6833C52.3482 15.6762 52.33 15.6648 52.315 15.6498C52.3 15.6348 52.2886 15.6166 52.2815 15.5966C52.2452 15.4605 52.2563 15.3161 52.313 15.1872L52.4512 15.163L52.4748 15.1587C53.0282 15.0623 53.6004 14.9628 53.8011 14.36V1.12015C53.7638 1.01518 53.6974 0.923027 53.6095 0.854583C53.5217 0.786139 53.4161 0.744237 53.3053 0.733795C52.4936 0.95092 52.2687 1.79821 52.0505 2.61759L52.0378 2.66489C51.7042 3.94207 51.5739 5.26388 51.6517 6.58166C51.6173 6.64344 51.5966 6.7119 51.5911 6.7824C51.5723 6.9037 51.5541 7.02498 51.3759 7.02498L51.0455 6.914V0.238906C52.255 0.0949307 53.4735 0.0418002 54.6909 0.0799889C56.0244 0.0799889 57.3906 0.104851 58.1562 0.129111L58.2659 0.405078V6.74905C58.2434 6.81268 58.2069 6.87048 58.1592 6.91822C58.1115 6.96596 58.0537 7.00242 57.9902 7.02498L57.7143 6.914C57.786 5.0983 57.5245 3.28482 56.9427 1.56347C56.8139 1.2223 56.5568 0.945183 56.2262 0.791431H56.2135C55.9614 0.791431 55.6752 0.791402 55.5643 1.01217V12.7619H55.511C55.5232 12.9438 55.5243 13.1452 55.5261 13.3368C55.531 14.0191 55.5359 14.7245 56.0075 15.0235C56.1322 15.1002 56.2778 15.1358 56.4239 15.1254C56.4681 15.1254 56.5123 15.1254 56.5548 15.1254C56.5972 15.1254 56.6439 15.1254 56.6833 15.1254C56.9258 15.1254 57.0839 15.186 57.1076 15.4705C57.1076 15.6828 56.9597 15.7131 56.8154 15.7131C56.7621 15.7131 56.7064 15.7088 56.6476 15.7046C56.5888 15.7003 56.5263 15.6955 56.4693 15.6955C56.3854 15.6903 56.3016 15.7079 56.2268 15.7464H55.0145V15.6918C54.9211 15.7258 54.8217 15.7403 54.7224 15.7343L54.7255 15.7379ZM70.1748 15.7379C70.0241 15.7058 69.8701 15.6919 69.716 15.6967C69.6251 15.6967 69.5287 15.6967 69.4353 15.7015C69.342 15.7064 69.2432 15.7064 69.1456 15.7064C68.9344 15.7152 68.7232 15.6888 68.5207 15.6281C68.4996 15.5626 68.4931 15.4933 68.5016 15.425C68.51 15.3567 68.5333 15.2911 68.5698 15.2327C68.6199 15.1887 68.6788 15.1558 68.7425 15.136C68.8062 15.1163 68.8733 15.1102 68.9395 15.1181C69.0044 15.1181 69.0735 15.1217 69.1402 15.1254C69.2069 15.129 69.2759 15.1327 69.3414 15.1327C69.4811 15.1466 69.621 15.1071 69.7329 15.0223C69.9344 14.893 70.0882 14.7013 70.1706 14.4764L70.1742 14.4685V1.45068C70.0874 1.18061 69.9126 0.947449 69.6778 0.788396C69.521 0.740184 69.3565 0.721469 69.1929 0.733202C68.9595 0.733202 68.7189 0.7332 68.5983 0.602197C68.564 0.559064 68.5392 0.509108 68.5256 0.455681C68.512 0.402254 68.5099 0.346581 68.5195 0.292285L68.6304 0.126705H76.3484C76.6158 0.24012 76.5909 0.650703 76.5703 1.01339C76.557 1.15865 76.557 1.30483 76.5703 1.45009C76.6354 1.90638 76.6446 2.36892 76.5976 2.82744C76.5515 3.25019 76.561 3.67718 76.6261 4.09744C76.5527 4.25634 76.5427 4.43724 76.5982 4.60325C76.6324 4.72569 76.6419 4.85371 76.6261 4.97987C76.579 5.19483 76.5604 5.41508 76.5709 5.63489C76.5829 5.84089 76.5644 6.04752 76.5157 6.24805C76.4951 6.24805 76.4752 6.24805 76.4551 6.24805C76.3986 6.25226 76.3418 6.24444 76.2885 6.2251C76.2352 6.20576 76.1867 6.17534 76.146 6.13585C75.9927 5.97331 76.0115 5.65551 76.029 5.34741C76.0487 5.1686 76.0451 4.988 76.0187 4.81007C75.8253 2.80863 75.0834 1.47433 73.8141 0.83811C73.5899 0.767221 73.356 0.731836 73.1208 0.733202C72.9467 0.718364 72.7714 0.739685 72.606 0.795836C72.4406 0.851987 72.2885 0.941734 72.1594 1.05948C71.9506 1.99169 71.8893 2.9509 71.9775 3.90213C71.9872 4.17445 71.9957 4.42977 71.9957 4.64508C71.9498 4.78067 71.9443 4.92676 71.9799 5.06541C72.0094 5.19925 72.0147 5.33727 71.9957 5.47298V7.0171C72.0092 7.07208 72.0162 7.1285 72.0163 7.18512C72.0254 7.35858 72.0369 7.57325 72.2636 7.57325C72.2839 7.57302 72.3042 7.5714 72.3242 7.5684C73.6329 6.96797 73.8136 5.43717 73.8136 3.87241C73.8071 3.83285 73.8101 3.79234 73.8224 3.75417C73.8346 3.71601 73.8558 3.68131 73.8841 3.65293C73.9124 3.62456 73.947 3.60331 73.9851 3.59096C74.0233 3.57861 74.0638 3.57551 74.1033 3.58189C74.1541 3.58239 74.2048 3.58706 74.2548 3.59585L74.31 3.92579C74.2706 4.2789 74.2666 4.63505 74.2978 4.98897C74.3402 5.42547 74.3258 5.86563 74.2548 6.2984C74.2548 7.06683 74.2548 8.11788 74.31 8.94575C74.2551 9.90101 74.2551 10.8586 74.31 11.8139C74.3162 11.8588 74.3119 11.9045 74.2975 11.9475C74.2831 11.9904 74.259 12.0295 74.227 12.0616C74.195 12.0936 74.1561 12.1179 74.1131 12.1324C74.0702 12.1469 74.0245 12.1512 73.9797 12.145C73.7481 11.9461 73.7547 11.5258 73.7614 11.1195C73.7807 10.8713 73.7613 10.6217 73.7038 10.3795L73.6808 10.2795C73.4674 9.36486 73.2256 8.32896 72.2158 8.1173L72.0491 8.22705C71.9841 9.02142 71.9639 9.81883 71.9885 10.6155V10.6331C71.9921 10.8878 71.9951 11.1516 71.9951 11.4263C71.9951 11.7448 72.0006 12.0868 72.0067 12.4489V12.4586C72.0194 13.2216 72.0321 14.0094 71.9951 14.6814C72.0825 14.8368 72.2147 14.9621 72.3744 15.0411C72.5341 15.1201 72.714 15.149 72.8904 15.1241C73.0474 15.1241 73.211 15.1108 73.3844 15.0969C73.5578 15.0829 73.7481 15.0678 73.9245 15.0678C75.3392 14.4455 75.8168 12.7067 76.0751 11.2614L76.737 11.4276V15.5123L76.5703 15.6785L70.1748 15.7379ZM34.9464 15.6858L31.8035 15.6306H30.0942C30.0675 15.6329 30.0405 15.6286 30.0159 15.618C29.9912 15.6075 29.9696 15.5909 29.9529 15.5699C29.8923 15.4856 29.9032 15.3213 29.9844 15.0811C30.0851 15.0714 30.1911 15.0647 30.2936 15.0587C30.7627 15.0302 31.247 14.998 31.4725 14.6414C31.5811 14.1044 31.6219 13.5559 31.5938 13.0087C31.5834 12.6144 31.5973 12.2198 31.6356 11.8272C31.5915 11.4318 31.5822 11.0332 31.6077 10.6361C31.6331 10.2056 31.6239 9.77383 31.5804 9.34484L31.6362 8.62736V1.56288C31.5755 1.27675 31.4426 1.01095 31.2501 0.790802C31.1198 0.638571 30.8397 0.631916 30.5688 0.625851C30.3166 0.620393 30.079 0.614923 30.0057 0.485739C29.9566 0.399617 29.985 0.264965 30.0923 0.073918H34.8342L34.8378 0.0787673C34.8899 0.184298 34.9991 0.404475 34.89 0.515464C34.7008 0.584453 34.5024 0.625328 34.3014 0.636771C33.9037 0.681046 33.5292 0.723493 33.457 1.12196C33.3461 2.83228 33.3461 4.08166 33.3461 5.81139L33.2909 12.5435H33.2352C33.3322 12.8989 33.357 13.2701 33.3079 13.6352C33.2169 14.0555 33.2815 14.4945 33.4897 14.8706C33.557 14.9386 33.6376 14.9919 33.7263 15.0275C33.815 15.0631 33.9101 15.0801 34.0056 15.0775C34.1332 15.1003 34.2627 15.1113 34.3923 15.1102C34.6391 15.1226 34.8851 15.0735 35.1082 14.9671C36.2386 14.0628 36.5551 12.4998 36.7624 11.1055C36.8296 10.7333 36.867 10.3562 36.8745 9.97803C36.8782 9.52189 36.9331 9.06763 37.0381 8.62373C37.1085 8.59647 37.1833 8.58246 37.2588 8.58246C37.3342 8.58255 37.409 8.59657 37.4794 8.62373V15.3558L37.4236 15.6318H37.1909C36.386 15.6263 35.5489 15.6306 34.9433 15.6809L34.9464 15.6858ZM28.7152 15.6312H22.5931C22.524 15.6164 22.4539 15.6067 22.3834 15.6021C22.2015 15.5851 22.0094 15.5681 21.9306 15.4116C21.9573 15.1229 22.1906 15.035 22.4373 14.9422C22.7034 14.8421 22.9786 14.739 22.9786 14.3636V6.58469C22.941 5.90845 22.955 5.08843 22.9671 4.36548C22.9731 4.01614 22.9786 3.68683 22.9786 3.38541C22.9786 3.17556 22.992 2.9542 23.0065 2.71827C23.0562 1.90617 23.1071 1.06617 22.5931 0.681044C22.4808 0.599339 22.3419 0.562759 22.2039 0.578542C22.1585 0.578542 22.1112 0.578542 22.0658 0.578542C22.0203 0.578542 21.9681 0.581578 21.9233 0.581578C21.8631 0.589672 21.802 0.585441 21.7435 0.569177C21.6851 0.552913 21.6306 0.524952 21.5833 0.486961C21.5588 0.450751 21.5426 0.409538 21.536 0.36632C21.5294 0.323102 21.5325 0.278969 21.5451 0.237092C21.5704 0.180952 21.6086 0.131612 21.6567 0.0931301C21.7047 0.0546479 21.7612 0.0280894 21.8215 0.0156892H26.2882C26.4524 0.0696675 26.5646 0.124256 26.5088 0.345627C26.4718 0.602782 26.1857 0.615535 25.9087 0.627665C25.7764 0.627012 25.6446 0.643521 25.5166 0.676787C24.9037 0.881177 24.8959 1.54106 24.8886 2.1797C24.8909 2.39632 24.8795 2.61284 24.8546 2.82803V13.7516C24.8546 13.802 24.8546 13.8535 24.8546 13.9051V13.9184C24.8486 14.3078 24.8425 14.7099 25.1322 14.8549C25.1962 14.9255 25.2763 14.9794 25.3658 15.012C25.4552 15.0447 25.5513 15.055 25.6456 15.0423C25.7468 15.0423 25.8554 15.0344 25.9602 15.0271C26.0651 15.0198 26.1748 15.0114 26.2791 15.0114C26.338 15.0108 26.3969 15.014 26.4555 15.021C26.8488 14.9125 27.1871 14.6601 27.4034 14.3139C27.5285 14.1469 27.6727 13.9952 27.8332 13.862C27.9029 13.6055 27.9938 13.3665 28.0817 13.1342C28.2132 12.8171 28.3146 12.4884 28.3848 12.1523C28.5266 11.5879 28.6095 11.0102 28.6321 10.4286C28.6519 9.77917 28.7538 9.13482 28.9352 8.51091C28.9613 8.50405 28.9882 8.50038 29.0152 8.49998C29.1716 8.49998 29.2194 8.64554 29.2661 8.78624V14.9119C29.2914 14.9755 29.3033 15.0437 29.3011 15.1122C29.2989 15.1806 29.2827 15.2479 29.2534 15.3098C29.2302 15.377 29.2158 15.4469 29.2104 15.5178L28.7139 15.6275L28.7152 15.6312ZM21.1074 15.6312H17.8543C17.7991 15.5487 17.6318 15.5487 17.4542 15.5487C17.289 15.5683 17.1216 15.5396 16.9723 15.4662C16.9545 15.4108 16.949 15.3522 16.9562 15.2945C16.9635 15.2368 16.9832 15.1813 17.0141 15.132C17.1099 15.0107 17.3094 15.0022 17.5203 14.9944C17.7949 14.9834 18.0791 14.9725 18.1301 14.6911C18.3919 14.4291 18.3064 13.9227 18.2513 13.5867L18.2422 13.5333C18.1423 13.2869 18.0842 13.0255 18.0701 12.76C18.0792 12.5558 18.0453 12.3521 17.9705 12.1619C17.8958 11.9717 17.7817 11.7994 17.636 11.6562H15.4303L15.2097 11.7666C15.1772 12.1073 15.1108 12.444 15.0114 12.7716C14.8296 13.4684 14.6362 14.1889 15.0441 14.8567C15.1737 14.9331 15.3187 14.9797 15.4685 14.9931C15.613 15.001 15.7522 15.0496 15.8703 15.1333L15.8152 15.4644L12.6723 15.519C12.6442 15.5289 12.6148 15.5342 12.585 15.5347C12.5542 15.5355 12.5241 15.5265 12.4988 15.5089C12.4735 15.4914 12.4545 15.4662 12.4444 15.4371C12.4221 15.3679 12.416 15.2945 12.4265 15.2226C12.437 15.1507 12.4639 15.0822 12.505 15.0223C12.5523 15.0259 12.5996 15.0283 12.6469 15.0283C12.8849 15.0201 13.1184 14.961 13.3317 14.8552C13.5451 14.7493 13.7334 14.5991 13.884 14.4146C14.0947 13.8611 14.2342 13.2832 14.2992 12.6945C14.3572 12.2709 14.4397 11.8509 14.5459 11.4367L15.1521 7.5751L15.703 4.37522C15.8473 3.68624 15.9631 2.96631 16.0752 2.27066V2.26581C16.1795 1.6211 16.2868 0.954566 16.4189 0.292877C16.4456 0.160661 16.7062 0.0454144 16.9772 0.0454144C17.0462 0.0395395 17.1156 0.0486579 17.1808 0.0721041C17.246 0.0955503 17.3053 0.132771 17.3548 0.181269C17.3846 0.220264 17.4052 0.265558 17.4149 0.313681C17.4247 0.361805 17.4234 0.411502 17.4112 0.45905C17.519 1.18685 17.6821 1.88675 17.8397 2.56421C18.007 3.2823 18.1797 4.02465 18.2925 4.81795L19.4508 10.5002C19.5642 11.0218 19.6503 11.5464 19.7333 12.054C19.8367 12.7759 19.9815 13.4911 20.1673 14.1962C20.2275 14.4345 20.361 14.6478 20.5489 14.8061C20.7369 14.9643 20.9698 15.0595 21.2147 15.0781C21.2182 15.1419 21.2362 15.2042 21.2675 15.26C21.3032 15.3364 21.3348 15.4019 21.2675 15.4674L21.102 15.6324L21.1074 15.6312ZM16.1977 11.0139C16.3509 11.0173 16.5037 11.03 16.6553 11.0521H16.668C16.8086 11.0728 16.9503 11.085 17.0923 11.0885C17.1915 11.097 17.2914 11.0832 17.3845 11.048C17.4777 11.0129 17.5617 10.9573 17.6306 10.8853L17.079 7.90744L16.4729 5.14911L16.3619 5.09329L15.9758 7.13477L15.4794 10.2782L15.4236 10.9957L15.8649 11.0515C15.973 11.0215 16.0848 11.0063 16.1971 11.0066L16.1977 11.0139ZM5.27679 15.4947C5.20477 15.4939 5.1331 15.4843 5.06339 15.4662C4.80517 15.3916 4.79368 15.1484 4.78156 14.8913C4.78135 14.7684 4.765 14.646 4.73302 14.5273L4.45725 12.7619L3.63046 8.40418L3.07884 5.25946C2.94731 4.25146 2.71092 3.24044 2.4818 2.26277C2.42119 1.99349 2.36059 1.7509 2.30725 1.50891C2.23049 1.25566 2.07186 1.03509 1.85627 0.881791C1.80354 0.834484 1.7496 0.78535 1.70111 0.73683C1.57874 0.704591 1.45238 0.6901 1.32589 0.693778H1.14772C0.95681 0.704586 0.766546 0.662614 0.597883 0.572472C0.557445 0.523582 0.528789 0.466081 0.513976 0.404374C0.499162 0.342668 0.498589 0.278407 0.512422 0.216473C0.52039 0.182154 0.537818 0.150709 0.562663 0.125743C0.587508 0.100776 0.618817 0.0832597 0.653081 0.0751396H4.84275C4.8685 0.0881782 4.89523 0.09914 4.92273 0.1079C4.98346 0.119739 5.03945 0.148975 5.08389 0.192041C5.12833 0.235107 5.15936 0.290127 5.17312 0.350477C5.07783 0.529235 4.92236 0.66847 4.73427 0.743493C4.57412 0.807912 4.43836 0.921247 4.34633 1.06736C4.1902 1.49186 4.17068 1.9546 4.29054 2.39074L4.95307 6.3075C4.99792 6.51452 5.04299 6.72277 5.08825 6.93221C5.31919 8.00268 5.55799 9.1077 5.83439 10.1691H5.99991C6.44058 8.2956 6.77633 6.3924 7.10062 4.55168V4.54261C7.01505 4.1263 6.95437 3.70522 6.91882 3.28168C6.80184 2.15724 6.67994 0.994597 5.72163 0.515464C5.69706 0.467794 5.68491 0.414722 5.68618 0.361101C5.68746 0.30748 5.70215 0.255039 5.72895 0.208588C5.76768 0.161402 5.81735 0.124417 5.87368 0.100941C5.93001 0.0774651 5.99125 0.0681887 6.052 0.073918C6.43812 0.10121 7.25399 0.101237 8.0438 0.101237C8.84816 0.101237 9.60829 0.101227 9.91137 0.128519C9.96681 0.270468 9.96681 0.428079 9.91137 0.570028C9.76949 0.619172 9.62396 0.657101 9.47614 0.683451C9.32781 0.692902 9.18278 0.731568 9.04943 0.797243C8.91608 0.862917 8.79704 0.954332 8.69908 1.06618C8.5594 1.36049 8.48393 1.68115 8.47777 2.00691C8.4716 2.33266 8.53482 2.65602 8.66326 2.95541C8.79642 3.37956 8.86449 3.82144 8.86512 4.26602L9.52646 7.74127C9.57313 7.959 9.60767 8.1931 9.64041 8.41932C9.67561 8.99593 9.8441 9.55649 10.1326 10.0569H10.1883L11.0151 6.47064C11.2949 5.45885 11.5235 4.43357 11.7001 3.39873C11.7964 2.88503 11.8964 2.35437 12.0073 1.83703C12.0677 1.64417 12.0627 1.43672 11.993 1.24704C11.9233 1.05737 11.7927 0.896129 11.6218 0.788396C11.4357 0.649074 11.2058 0.581275 10.9739 0.597347C10.8775 0.590676 10.7782 0.583983 10.6848 0.568215C10.6294 0.426266 10.6294 0.268654 10.6848 0.126705H10.7139C10.9563 0.126705 11.32 0.122465 11.7479 0.117007C12.3086 0.110335 12.9445 0.102422 13.4579 0.102422C13.765 0.0948277 14.0724 0.102949 14.3787 0.126705C14.3995 0.133611 14.4185 0.145064 14.4344 0.16028C14.4502 0.175496 14.4624 0.194065 14.4702 0.214622C14.5019 0.332892 14.4891 0.458702 14.4344 0.568215H14.4307C13.9621 0.614479 13.52 0.807161 13.167 1.11893C12.9415 1.76228 12.7593 2.41995 12.6214 3.0876V3.09186C12.5662 3.33445 12.5092 3.58191 12.4492 3.81966L11.5122 8.12274C11.2734 9.15378 11.0194 10.2097 10.7733 11.2335C10.4502 12.5793 10.1162 13.9706 9.80341 15.3492C9.7716 15.3924 9.72967 15.4272 9.68125 15.4503C9.63283 15.4735 9.57941 15.4844 9.52579 15.482C9.4455 15.4853 9.36703 15.4577 9.30641 15.405C9.09787 15.0559 8.97161 14.6639 8.93726 14.2587V14.255C8.90149 14.05 8.86512 13.8378 8.81118 13.6401L7.98439 8.89422L7.5431 6.90915H7.43218L6.77091 10.1636C6.42662 11.8188 6.09266 13.452 5.77868 15.0186C5.77254 15.1469 5.71655 15.2678 5.6227 15.3555C5.52885 15.4432 5.40449 15.4907 5.27612 15.4881L5.27679 15.4947Z" fill="black"/>
</g>
<defs>
<clipPath id="clip0_1_66">
<rect width="157" height="16" fill="white" transform="translate(0.5 0.00964355)"/>
</clipPath>
</defs>
</svg>
